<svg xmlns="http://www.w3.org/2000/svg" height="512" width="512"><path d="M 217.11914,-1.8652344 C 185.26367,10.44401 153.4082,22.753255 121.55273,35.0625 117.42226,35.862904 110.72376,39.813467 105.13545,41.415006 71.354621,54.47003 37.573795,67.525054 3.7929688,80.580078 c -5.7667035,-2.400354 -1.344296,8.596918 -2.6953126,12.845703 10e-8,84.540369 0,169.080729 0,253.621099 67.4441368,26.60549 134.8894138,53.20811 202.3339838,79.8125 4.09734,2.21906 12.30321,0.3296 17.99219,0.95703 8.0613,-4.4221 19.49586,-7.93007 28.90715,-11.9657 58.13894,-22.93483 116.27855,-45.86794 174.41707,-68.80383 0,-88.40105 0,-176.80209 0,-265.20313 0.73028,-3.606683 -8.34232,-3.09483 -11.6432,-5.906891 C 348.02029,49.908748 282.93676,23.878069 217.85156,-2.1484375 l -0.73242,0.2832031 z m 72.25781,48.7441404 c -24.4069,10.14974 -48.8138,20.299479 -73.2207,30.449219 -23.38151,-10.447266 -46.76302,-20.894531 -70.14453,-31.341797 23.87825,-9.246745 47.75651,-18.493489 71.63476,-27.740234 23.91016,9.544271 47.82032,19.088541 71.73047,28.632812 z M 192.04688,87.351562 C 164.28906,98.894531 136.53125,110.4375 108.77344,121.98047 82.510417,111.62109 56.247396,101.26172 29.984375,90.902344 60.347656,79.148437 90.710938,67.394531 121.07422,55.640625 c 23.65755,10.570313 47.3151,21.140625 70.97266,31.710937 z m 205.73046,2.802735 c -27.07356,10.679683 -54.14713,21.359373 -81.2207,32.039063 -25.52018,-11.403 -51.04036,-22.80599 -76.56055,-34.208985 24.87045,-10.34375 49.74089,-20.6875 74.61133,-31.03125 27.72331,11.067057 55.44662,22.134115 83.16992,33.201172 z m -105.9414,41.796873 c -26.30404,10.37565 -52.60808,20.7513 -78.91211,31.12695 C 186.66406,152.71875 160.4043,142.35938 134.14453,132 c 27.2474,-11.32813 54.49479,-22.65625 81.74219,-33.984375 25.31641,11.311845 50.63281,22.623695 75.94922,33.935545 z m -190.05274,7.69336 c 0,36.21419 0,72.42839 0,108.64258 -27.229164,-9.84635 -54.45833,-19.69271 -81.687497,-29.53906 0,-37.11003 0,-74.22006 0,-111.33008 27.229167,10.74219 54.458333,21.48437 81.687497,32.22656 z M 405.76562,217.75 c -27.0345,9.91081 -54.06901,19.82161 -81.10351,29.73242 0,-36.02278 0,-72.04557 0,-108.06836 27.0345,-10.66536 54.06901,-21.33073 81.10351,-31.99609 10e-6,36.77734 0,73.55469 0,110.33203 z m -100.08789,36.69531 c -27.7513,10.17774 -55.5026,20.35547 -83.2539,30.53321 0,-35.07878 0,-70.15756 0,-105.23633 27.7513,-10.94792 55.5026,-21.89584 83.2539,-32.84375 0,35.84896 0,71.69791 0,107.54687 z M 203.4375,179.74219 c 0,35.10677 0,70.21354 0,105.32031 -27.55664,-9.96745 -55.11328,-19.9349 -82.66992,-29.90234 0,-36.01237 0,-72.02474 0,-108.03711 27.55664,10.87304 55.11328,21.74609 82.66992,32.61914 z m 202.32812,154.3789 c -27.03255,10.66146 -54.0651,21.32292 -81.09765,31.98438 0,-32.79818 0,-65.59636 0,-98.39453 27.03255,-9.91341 54.0651,-19.82683 81.09765,-29.74024 0,32.05013 10e-6,64.10026 0,96.15039 z M 101.7832,268.49219 c 0,32.61458 0,65.22916 0,97.84375 -27.229164,-10.73828 -54.45833,-21.47657 -81.687497,-32.21485 0,-31.72786 0,-63.45573 0,-95.18359 27.229167,9.85156 54.458333,19.70312 81.687497,29.55469 z m 203.89453,105.10156 c -27.7513,10.94661 -55.5026,21.89323 -83.2539,32.83984 0,-33.74153 0,-67.48307 0,-101.22461 27.7513,-10.17773 55.5026,-20.35546 83.2539,-30.5332 0,32.97266 0,65.94531 0,98.91797 z M 203.43164,305.26367 c 0,33.72331 0,67.44662 0,101.16992 -27.55664,-10.86783 -55.11328,-21.73567 -82.66992,-32.60351 0,-32.82357 0,-65.64714 0,-98.4707 27.55664,9.96809 55.11328,19.93619 82.66992,29.90429 z" transform="translate(76.675 76.675) scale(.84226)"/></svg>