<svg xmlns="http://www.w3.org/2000/svg" height="512" width="512"><path d="m 67.889155,67.724028 0,87.371662 0,13.74561 0,275.43467 376.221685,0 0,-275.43467 0,-13.74561 0,-87.371652 -376.221683,0 z m 233.905885,257.249142 -91.59008,0 0,-64.32031 91.59008,0 z m 25.36327,-64.32031 91.58928,0 0,64.32031 -91.58928,0 z m -25.36327,91.81154 0,64.32034 -91.59008,0 0,-64.32034 z m -208.542622,-91.81154 91.589272,0 0,64.32031 -91.589272,0 z m 116.952542,-27.49124 0,-64.32032 91.59008,0 0,64.32032 z m -25.36327,-64.32032 0,64.32032 -91.589272,0 0,-64.32032 z m -91.589272,183.6231 91.589272,0 0,64.32034 -91.589272,0 z m 233.905892,64.32034 0,-64.32034 91.58928,0 0,64.32034 z m 91.58928,-183.62312 -91.58928,0 0,-64.32032 91.58928,0 z"/><path style="isolation:auto;mix-blend-mode:normal" d="M 93.675781 85.820312 L 93.675781 137.4043 L 184.8418 137.4043 L 184.8418 85.820312 L 93.675781 85.820312 z M 210.20508 85.820312 L 210.20508 137.4043 L 301.79492 137.4043 L 301.79492 85.820312 L 210.20508 85.820312 z M 327.1582 85.820312 L 327.1582 137.4043 L 418.32422 137.4043 L 418.32422 85.820312 L 327.1582 85.820312 z" color="#000" overflow="visible" fill="maroon"/></svg>