<svg xmlns="http://www.w3.org/2000/svg" height="512" width="512"><g fill="#004abc"><path d="m 369.43731,129.43731 0,-98.87462 -20,0 0,-20 -98.87462,0 0,20 -122.63434,0 0,-20 -97.36566,0 0,20 -20,0 0,98.87462 20,0 0,121.12538 -20,0 0,98.87462 20,0 0,20 97.36566,0 0,-20 122.63434,0 0,20 98.87462,0 0,-20 20,0 0,-98.87462 -20,0 0,-121.12538 z M 340,100 l -20,0 0,180 20,0 0,40 -20,0 0,20 -40,0 0,-20 -180,0 0,20 -40,0 0,-20 -20,0 0,-40 20,0 0,-180 -20,0 0,-40 20,0 0,-20 40,0 0,20 180,0 0,-20 40,0 0,20 20,0 z" transform="translate(4.17 4.17) scale(1.32542)"/><path d="m 100,280 180,0 0,-180 -180,0 z m 25.2685,-154.7315 129.463,0 0,129.463 -129.463,0 z" transform="translate(4.17 4.17) scale(1.32542)"/></g><path d="m 136.71221,375.2878 238.57558,0 0,-238.5756 -238.57558,0 0,238.5756 z m 318.10078,-238.5756 -26.5084,0 0,238.5756 26.5084,0 0,53.0168 -26.5084,0 0,26.5084 -53.0168,0 0,-26.5084 -238.57558,0 0,26.5084 -53.016797,0 0,-26.5084 -26.5084,0 0,-53.0168 26.5084,0 0,-238.5756 -26.5084,0 0,-53.016801 26.5084,0 0,-26.5084 53.016797,0 0,26.5084 238.57558,0 0,-26.5084 53.0168,0 0,26.5084 26.5084,0 0,53.016801 z" fill="#fff" fill-opacity=".784"/></svg>