<svg xmlns="http://www.w3.org/2000/svg" width="573.263" height="573.263"><path d="m 496.032,173.518 c -15.696,8.434 -22.208,24.676 -19.891,43.774 0.698,5.732 -2.215,14.708 -6.581,17.789 -27.34,19.278 -55.243,37.813 -83.644,55.488 -10.73,6.68 -16.002,2.962 -17.646,-9.747 -0.562,-4.341 -0.285,-8.809 -0.175,-13.215 0.611,-23.799 2.378,-47.634 1.595,-71.384 -0.273,-8.242 1.212,-15.243 4.162,-21.42 16.189,-9.4 33.247,-16.503 51.334,-21.363 13.477,11.901 31.404,14.235 46.892,5.235 16.989,-9.874 23.925,-30.527 16.54,-49.25 -6.716,-17.026 -25.292,-26.924 -43.966,-23.419 -20.041,3.757 -31.995,19.343 -31.849,40.71 0.024,3.586 -0.922,7.181 -1.791,10.771 -16.397,5.1 -32.077,12.036 -46.952,20.738 -5.35,1.012 -9.833,0.751 -14.02,-0.934 -6.499,-6.883 -13.003,-13.766 -19.502,-20.649 14.182,-24.264 13.7,-41.959 -1.559,-56.741 -13.076,-12.664 -33.248,-14.692 -48.797,-4.9 -15.802,9.947 -22.293,29.943 -15.479,47.671 7.438,19.351 19.792,24.896 52.146,21.869 9.686,10.253 19.372,20.51 29.058,30.763 6.1,11.273 10.515,23.276 11.175,36.749 0.367,7.421 0.437,14.868 0.331,22.317 -27.026,-18.694 -54.183,-37.222 -80.956,-56.275 -30.123,-21.44 -59.434,-49.213 -63.823,-87.618 6.14,-1.461 11.991,-4.19 17.152,-8.511 4.415,-3.696 7.768,-7.785 10.171,-12.101 3.354,-3.084 5.659,-7.499 5.896,-13.285 1.016,-24.904 -14.146,-44.166 -36.316,-53.489 -18.409,-7.74 -38.613,-0.008 -52.62,12.75 -0.743,0.478 -1.313,1.069 -1.787,1.718 -2.411,2.366 -4.643,4.859 -6.585,7.458 -2.913,3.893 -3.403,8.776 -2.289,13.383 -4.415,26.899 23.224,50.865 51.082,53.17 3.97,33.921 23.701,60.608 49.221,82.734 33.313,28.882 72.494,52.122 108.675,77.206 0.538,0.375 1.073,0.653 1.604,0.869 -0.466,9.445 -1.131,18.886 -1.856,28.295 -1.645,21.241 -5.867,41.707 -13.313,61.07 -5.626,-4.137 -9.923,-9.837 -12.497,-16.442 12.575,-9.237 14.859,-26.088 8.564,-39.642 -6.296,-13.558 -24.844,-18.548 -38.03,-13.721 -11.392,4.17 -18.152,14.631 -18.515,25.721 -1.359,8.396 1.403,17.274 7.381,24.365 5.373,6.377 13.811,9.273 22.207,9.147 4.296,11.869 12.452,21.714 22.986,28.319 -3.949,7.728 -8.478,15.247 -13.659,22.529 -12.848,18.046 -24.941,20.258 -39.968,4.357 -18.413,-19.481 -35.157,-40.612 -51.734,-61.726 -6.928,-8.825 -7.801,-19.311 -5.834,-29.87 0.853,-1.783 1.701,-3.566 2.554,-5.345 31.962,-2.742 45.365,-11.119 49.502,-30.543 3.978,-18.674 -4.227,-36.781 -20.265,-44.729 -6.324,-3.133 -13.432,-4.463 -20.372,-4.092 -19.082,-1.338 -36.316,13.452 -42.118,30.641 -5.182,15.353 3.052,31.942 16.185,39.996 -2.068,4.333 -4.137,8.666 -6.206,12.999 -3.692,0.013 -7.915,-1.689 -11.946,-5.21 -13.9,-12.143 -25.994,-26.398 -40.135,-38.218 -11.13,-9.306 -17.765,-19.821 -20.449,-31.661 4.268,-20.021 8.54,-40.041 12.807,-60.062 1.657,-0.841 3.529,-1.571 5.753,-2.163 24.745,-6.569 35.137,-35.81 21.832,-57.789 -8.344,-13.782 -23.668,-20.869 -39.511,-18.266 -17.658,2.901 -29.323,14.076 -33.007,31.616 -3.296,15.708 3.986,31.583 18.005,41.061 2.231,1.506 5.08,3.554 7.274,5.643 -4.443,20.837 -8.886,41.673 -13.329,62.51 -3.77,-1.179 -7.564,-2.236 -11.412,-3.031 -3.717,-26.712 -13.109,-38.613 -31.697,-41.384 -19.156,-2.855 -36.512,6.173 -43.538,22.652 -7.291,17.095 -2.379,36.459 12.077,47.609 16.304,12.575 31.053,10.461 58.421,-10.241 5.353,1.032 10.612,2.542 15.79,4.468 15.133,13.513 30.38,27.173 45.798,40.723 42.627,37.463 76.063,81.592 100.707,132.106 -41.555,-6.274 -78.226,-31.489 -98.887,-68.997 3.513,-3.048 6.573,-6.695 8.96,-10.856 9.596,-16.757 1.044,-38.308 -14.525,-47.639 -4.248,-2.546 -8.654,-3.9 -13.089,-4.345 -3.337,-1.522 -6.94,-2.444 -10.686,-2.554 -13.619,-0.404 -24.884,7.099 -30.73,18.769 -1.938,1.057 -3.517,2.872 -4.141,5.766 -0.033,0.154 -0.049,0.313 -0.082,0.469 -1.636,2.525 -1.767,5.263 -0.951,7.703 -0.71,16.707 7.667,31.905 23.787,39.307 8.025,3.685 16.544,4.198 24.459,2.252 24.986,46.476 73.105,77.051 125.346,80.593 4.268,9.29 9.368,18.592 11.208,28.241 -4.606,29.617 -12.231,58.557 -22.534,86.814 -2.383,6.532 -0.249,11.71 3.762,14.949 0.816,1.664 1.946,3.101 2.889,3.309 24.142,5.32 48.479,8.776 72.62,0.253 2.04,-0.722 4.61,-4.524 4.725,-6.757 1.958,-3.104 2.75,-7.058 1.489,-11.673 -8.613,-31.501 -12.754,-63.729 -12.044,-96.096 1.313,-5.729 2.623,-11.453 3.957,-17.177 0.322,-0.122 0.641,-0.204 0.967,-0.367 19.331,-9.601 38.662,-19.2 57.993,-28.797 0.144,0.131 0.27,0.273 0.416,0.404 11.551,10.131 28.793,8.363 39.883,-1.302 12.162,-10.608 10.049,-29.494 1.008,-40.996 -10.266,-13.064 -30.927,-11.036 -42.249,-1.171 -0.946,0.828 -1.604,1.714 -2.109,2.624 -0.604,0.555 -1.179,1.175 -1.685,1.941 -4.252,6.426 -5.598,14.268 -4.317,21.652 -0.212,0.09 -0.424,0.135 -0.636,0.241 -14.415,7.156 -28.825,14.312 -43.24,21.473 1.746,-6.561 3.578,-13.093 5.646,-19.551 1.021,-3.187 2.114,-6.345 3.244,-9.49 27.973,-33.868 69.217,-53.574 113.354,-54.591 0.126,-0.004 0.232,-0.036 0.354,-0.045 0.751,6.275 3.146,12.457 7.435,17.683 12.799,15.599 38.213,19.891 54.121,6.386 15.304,-12.991 19,-38.707 5.32,-54.309 -14.57,-16.615 -40.07,-17.01 -56.223,-2.656 -2.387,2.121 -3.239,4.59 -3.06,6.952 -1.894,2.195 -3.469,4.627 -4.688,7.25 -0.979,-0.31 -2.04,-0.518 -3.26,-0.489 -32.991,0.759 -63.946,10.686 -90.38,28.119 4.194,-5.908 8.857,-11.562 14.125,-16.892 29.571,-29.914 64.142,-52.432 101.437,-71.017 5.981,-2.982 14.174,-3.656 20.906,-2.603 18.617,2.913 35.838,-3.925 44.235,-19.253 8.041,-14.68 5.504,-34.876 -5.888,-46.793 -12.159,-12.709 -31.792,-15.728 -47.5,-7.287 z" transform="matrix(.8547 0 0 .8547 41.649 41.649)" fill="#004abc"/><path d="m 190.97852,14.28125 c -13.05357,2.004336 -27.72451,9.51883 -31.35743,23.123047 -1.55338,15.689737 8.93485,30.781823 23.61593,35.973292 8.31997,3.606362 17.81393,6.797942 26.67314,3.32163 C 224.48867,73.47334 236.6798,56.319242 229.85547,41.796875 224.21357,25.82653 207.90279,13.215957 190.97852,14.28125 Z m 108.92382,68.623047 c -20.8442,-0.356011 -32.59482,29.922483 -16.75195,43.626953 9.88647,8.38676 23.06233,3.10746 34.57422,4.72266 6.26922,-10.69036 13.2818,-25.24114 5.50391,-36.957035 -5.00595,-7.607194 -14.37923,-11.657342 -23.32618,-11.392578 z M 137.06641,93.550781 c -17.36609,-1.093357 -32.85187,18.954449 -24.70313,35.115239 3.73259,8.66142 12.43189,15.10261 19.9082,19.26953 3.96393,-3.28124 9.71366,-2.85231 13.99805,-5.72461 9.17514,-3.75727 16.25989,-12.76859 15.32227,-23.00196 -0.36836,-12.90392 -10.95592,-25.956378 -24.52539,-25.658199 z m 313.32812,5.78125 c -13.50828,0.27786 -25.35463,13.266419 -23.53758,26.856209 0.19465,4.05876 -1.26158,9.50077 -1.36476,12.63598 4.28053,-0.76908 7.83628,2.1282 10.01367,5.4414 13.76743,11.95033 39.86305,4.00685 41.79102,-15.06445 2.67514,-15.55464 -10.33637,-32.247073 -26.90235,-29.869139 z m 65.08789,83.369139 c -15.9448,-1.06585 -29.36055,15.85303 -25.34241,31.17019 0.36653,6.6942 -0.29389,13.56396 -2.84118,19.81419 13.90519,-3.76201 29.71809,3.91415 42.43555,-4.50586 13.41417,-9.16448 14.10348,-30.96062 1.24804,-40.95703 -4.30404,-3.58084 -9.87668,-5.6854 -15.5,-5.52149 z m -456.488279,7.32227 c -14.922659,-0.57458 -30.210815,15.34611 -25.365235,30.98633 2.445096,12.2538 15.881988,23.56931 28.632813,18.27929 8.181057,-3.16891 15.269399,-9.19196 22.578125,-13.44336 -1.996727,-11.06668 -2.15342,-24.15168 -11.828125,-31.79687 -3.899491,-3.37783 -9.036663,-4.16271 -14.017578,-4.02539 z m 175.197269,33.57617 c -17.10676,-0.22293 -34.85069,17.31676 -28.24805,34.75781 2.88155,7.68039 11.8724,10.41796 16.17187,16.61133 2.05349,1.76911 7.8205,-0.81938 11.19745,-0.56057 11.29619,-1.06491 25.30856,-5.49591 27.88068,-18.2031 3.80545,-16.19073 -9.52535,-34.63821 -27.00195,-32.60547 z m 75.45117,60.32422 c -12.34402,0.3948 -19.51475,16.35597 -12.44141,26.24414 3.44002,6.08714 10.91593,7.76094 17.14063,7.33594 1.94456,0.72453 3.28758,-2.12877 5.35742,-2.35547 12.25434,-7.04141 8.64111,-29.9798 -6.1543,-31.05078 -1.2921,-0.18301 -2.59992,-0.19712 -3.90234,-0.17383 z m -186.5,9.99609 c -12.81509,2.41774 -22.29079,17.67415 -16.56836,29.66797 4.09301,12.10037 17.62601,20.09191 30.01589,16.86473 5.06336,0.54921 7.24912,-4.54791 11.49583,-6.2827 10.77598,-8.93828 8.91699,-28.72387 -3.89063,-34.99023 -6.17226,-3.8336 -13.72588,-5.7057 -21.05273,-5.25977 z m 372.79297,5.3086 c -8.95903,-0.41679 -16.75121,5.9398 -19.58008,14.13476 -2.78716,3.93417 -3.77776,8.9666 -2.29102,13.60156 -0.6219,0.98351 0.53372,5.33927 1.66016,7.51758 8.13529,15.02892 33.7621,16.62103 41.92578,0.65039 8.29478,-13.21949 0.0889,-34.57024 -16.35351,-35.57226 -1.77154,-0.27719 -3.56916,-0.38644 -5.36133,-0.33203 z m -85.73828,70.61132 c -10.25423,-0.42333 -19.57232,11.11864 -15.07227,20.84766 -1.08733,2.64276 2.78796,3.64362 3.54492,5.96094 9.24896,9.49266 29.55515,0.14694 25.80078,-13.58399 -1.30207,-6.73533 -6.8584,-13.5578 -14.27343,-13.22461 z" transform="matrix(.8547 0 0 .8547 41.649 41.649)" fill="#71c837"/></svg>