<?xml version="1.0" encoding="utf-8"?>
<!DOCTYPE svg PUBLIC "-//W3C//DTD SVG 1.1//EN" "http://www.w3.org/Graphics/SVG/1.1/DTD/svg11.dtd">
<svg width="512" height="512" viewBox="0 0 512 512" xmlns="http://www.w3.org/2000/svg" xmlns:xlink="http://www.w3.org/1999/xlink" fill="#000000">
  <path
     style="opacity:0.223"
     d="m 342.09631,113.28575 0,32.4615 7.64207,0 c 3.88157,0 7.3993,0.69149 10.55308,2.07284 3.07291,1.26622 5.74236,3.39588 8.00662,6.38879 2.26425,2.9929 4.00235,6.96432 5.21534,11.91412 1.21299,4.8347 1.82004,10.87793 1.82004,18.12997 l 0,30.21704 c 0,8.63338 0.52532,16.00041 1.57658,22.10134 0.97039,6.10091 2.50613,11.2226 4.60866,15.36663 2.10252,4.02891 4.77197,7.19447 8.00661,9.49671 3.23465,2.18712 7.03513,3.74097 11.40191,4.66187 -8.65268,1.38135 -15.08108,6.21646 -19.28612,14.5045 -4.20504,8.17294 -6.30764,20.77735 -6.30764,37.81389 l 0,43.85809 c 0,7.48226 -0.60705,13.6977 -1.82004,18.6475 -1.21299,4.9498 -2.95109,8.92122 -5.21534,11.91413 -2.26426,2.99291 -4.93371,5.12257 -8.00662,6.38879 -3.15378,1.26623 -6.67151,1.89987 -10.55308,1.89987 l -7.64207,0 0,32.46151 10.18987,0 c 16.73928,0 29.23293,-5.75533 37.48127,-17.26651 8.24834,-11.39606 12.37313,-29.52707 12.37313,-54.39121 l 0,-43.85676 c 0,-11.85651 1.86004,-20.77739 5.57988,-26.76321 3.71983,-5.98581 9.90569,-8.97917 18.55836,-8.97917 l 7.64208,0 0,-32.63446 -7.64208,0 c -4.36676,0 -8.08684,-0.63232 -11.15976,-1.89854 -3.0729,-1.38135 -5.58021,-3.45449 -7.521,-6.21717 -1.94079,-2.76268 -3.31572,-6.27266 -4.12437,-10.5318 -0.88953,-4.37424 -1.33311,-9.5551 -1.33311,-15.54091 l 0,-30.38868 c 0,-11.85651 -0.93002,-22.27474 -2.78994,-31.25346 -1.94079,-8.97872 -4.9332,-16.46144 -8.97651,-22.44725 -4.0433,-5.98581 -9.17851,-10.47518 -15.40521,-13.46808 -6.30755,-3.10802 -13.86834,-4.66188 -22.68274,-4.66188 l -10.18987,0 z m -137.45749,4.18026 c -8.81441,0 -16.37652,1.55386 -22.68407,4.66187 -6.22669,2.99291 -11.36058,7.48227 -15.40388,13.46809 -4.04331,5.98581 -7.03573,13.46853 -8.97651,22.44725 -1.85992,8.97871 -2.78994,19.39562 -2.78994,31.25213 l 0,30.39 c 0,5.98581 -0.44491,11.16534 -1.33444,15.53959 -0.80866,4.25913 -2.18359,7.77044 -4.12437,10.53312 -1.94079,2.76269 -4.44809,4.83449 -7.521,6.21584 -3.07292,1.26622 -6.79167,1.89987 -11.15844,1.89987 l -7.64207,0 0,32.63447 7.64207,0 c 8.65268,0 14.83852,2.99203 18.55837,8.97783 3.71984,5.98582 5.57988,14.90804 5.57988,26.76455 l 0,43.85675 c 0,24.86415 4.12345,42.99382 12.3718,54.38989 8.24833,11.51118 20.74331,17.26784 37.4826,17.26784 l 10.18854,0 0,-32.46151 -7.64207,0 c -3.88158,0 -7.39931,-0.63364 -10.55309,-1.89987 -3.0729,-1.26623 -5.74102,-3.39589 -8.00528,-6.3888 -2.26424,-2.9929 -4.00367,-6.96432 -5.21666,-11.91412 -1.213,-4.94981 -1.81873,-11.16525 -1.81873,-18.64751 l 0,-43.85809 c 0,-17.03653 -2.10259,-29.64095 -6.30763,-37.81388 -4.20504,-8.28804 -10.63345,-13.12316 -19.28612,-14.5045 4.36677,-0.9209 8.16726,-2.47476 11.40191,-4.66188 3.23464,-2.30223 5.90276,-5.46779 8.00528,-9.4967 2.10252,-4.14403 3.6396,-9.26705 4.60999,-15.36797 1.05126,-6.10092 1.57657,-13.46795 1.57657,-22.10133 l 0,-30.21705 c 0,-7.25204 0.60573,-13.29527 1.81873,-18.12996 1.21299,-4.94981 2.95242,-8.92122 5.21666,-11.91413 2.26426,-2.9929 4.93238,-5.12123 8.00528,-6.38746 3.15378,-1.38134 6.67151,-2.07283 10.55309,-2.07283 l 7.64207,0 0,-32.4615 -10.18854,0 z m -9.83199,74.4543 0,16.11168 19.82895,0 48.95368,67.54399 -44.30645,61.03811 -21.3789,0 0,16.11168 61.03811,0 0,-16.11168 -20.75891,0 35.01196,-48.02371 35.01064,48.02371 -20.44893,0 0,16.11168 74.36118,0 0,-16.11168 -21.06891,0 -50.19366,-69.09262 43.0678,-59.48948 21.37758,0 0,-16.11168 -61.96677,0 0,16.11168 21.6889,0 -33.77199,46.47507 -33.77199,-46.47507 19.20895,0 0,-16.11168 -71.88124,0 z"
      />
  <path
     d="m 320.40139,93.760328 0,32.461502 7.64207,0 c 3.88157,0 7.3993,0.69149 10.55308,2.07284 3.07291,1.26622 5.74236,3.39588 8.00662,6.38879 2.26425,2.9929 4.00235,6.96432 5.21534,11.91412 1.21299,4.8347 1.82004,10.87793 1.82004,18.12997 l 0,30.21704 c 0,8.63338 0.52532,16.00041 1.57658,22.10134 0.97039,6.10091 2.50613,11.2226 4.60866,15.36663 2.10252,4.02891 4.77197,7.19447 8.00661,9.49671 3.23465,2.18712 7.03513,3.74097 11.40191,4.66187 -8.65268,1.38135 -15.08108,6.21646 -19.28612,14.5045 -4.20504,8.17294 -6.30764,20.77735 -6.30764,37.81389 l 0,43.85809 c 0,7.48226 -0.60705,13.6977 -1.82004,18.6475 -1.21299,4.9498 -2.95109,8.92122 -5.21534,11.91413 -2.26426,2.99291 -4.93371,5.12257 -8.00662,6.38879 -3.15378,1.26623 -6.67151,1.89987 -10.55308,1.89987 l -7.64207,0 0,32.46151 10.18987,0 c 16.73928,0 29.23293,-5.75533 37.48127,-17.26651 8.24834,-11.39606 12.37313,-29.52707 12.37313,-54.39121 l 0,-43.85676 c 0,-11.85651 1.86004,-20.77739 5.57988,-26.76321 3.71983,-5.98581 9.90569,-8.97917 18.55836,-8.97917 l 7.64208,0 0,-32.63446 -7.64208,0 c -4.36676,0 -8.08684,-0.63232 -11.15976,-1.89854 -3.0729,-1.38135 -5.58021,-3.45449 -7.521,-6.21717 -1.94079,-2.76268 -3.31572,-6.27266 -4.12437,-10.5318 -0.88953,-4.37424 -1.33311,-9.5551 -1.33311,-15.54091 l 0,-30.38868 c 0,-11.85651 -0.93002,-22.27474 -2.78994,-31.25346 -1.94079,-8.97872 -4.9332,-16.46144 -8.97651,-22.44725 -4.0433,-5.98581 -9.17851,-10.47518 -15.40521,-13.468086 -6.30755,-3.108017 -13.86834,-4.661876 -22.68274,-4.661876 l -10.18987,0 z M 182.9439,97.940584 c -8.81441,0 -16.37652,1.553858 -22.68407,4.661876 -6.22669,2.99291 -11.36058,7.48227 -15.40388,13.46809 -4.04331,5.98581 -7.03573,13.46853 -8.97651,22.44725 -1.85992,8.97871 -2.78994,19.39562 -2.78994,31.25213 l 0,30.39 c 0,5.98581 -0.44491,11.16534 -1.33444,15.53959 -0.80866,4.25913 -2.18359,7.77044 -4.12437,10.53312 -1.94079,2.76269 -4.44809,4.83449 -7.521,6.21584 -3.07292,1.26622 -6.79167,1.89987 -11.15844,1.89987 l -7.64207,0 0,32.63447 7.64207,0 c 8.65268,0 14.83852,2.99203 18.55837,8.97783 3.71984,5.98582 5.57988,14.90804 5.57988,26.76455 l 0,43.85675 c 0,24.86415 4.12345,42.99382 12.3718,54.38989 8.24833,11.51118 20.74331,17.26784 37.4826,17.26784 l 10.18854,0 0,-32.46151 -7.64207,0 c -3.88158,0 -7.39931,-0.63364 -10.55309,-1.89987 -3.0729,-1.26623 -5.74102,-3.39589 -8.00528,-6.3888 -2.26424,-2.9929 -4.00367,-6.96432 -5.21666,-11.91412 -1.213,-4.94981 -1.81873,-11.16525 -1.81873,-18.64751 l 0,-43.85809 c 0,-17.03653 -2.10259,-29.64095 -6.30763,-37.81388 -4.20504,-8.28804 -10.63345,-13.12316 -19.28612,-14.5045 4.36677,-0.9209 8.16726,-2.47476 11.40191,-4.66188 3.23464,-2.30223 5.90276,-5.46779 8.00528,-9.4967 2.10252,-4.14403 3.6396,-9.26705 4.60999,-15.36797 1.05126,-6.10092 1.57657,-13.46795 1.57657,-22.10133 l 0,-30.21705 c 0,-7.25204 0.60573,-13.29527 1.81873,-18.12996 1.21299,-4.94981 2.95242,-8.92122 5.21666,-11.91413 2.26426,-2.9929 4.93238,-5.12123 8.00528,-6.38746 3.15378,-1.38134 6.67151,-2.07283 10.55309,-2.07283 l 7.64207,0 0,-32.461506 -10.18854,0 z m -9.83199,74.454306 0,16.11168 19.82895,0 48.95368,67.54399 -44.30645,61.03811 -21.3789,0 0,16.11168 61.03811,0 0,-16.11168 -20.75891,0 35.01196,-48.02371 35.01064,48.02371 -20.44893,0 0,16.11168 74.36118,0 0,-16.11168 -21.06891,0 -50.19366,-69.09262 43.0678,-59.48948 21.37758,0 0,-16.11168 -61.96677,0 0,16.11168 21.6889,0 -33.77199,46.47507 -33.77199,-46.47507 19.20895,0 0,-16.11168 -71.88124,0 z" />
</svg>
