<?xml version="1.0" encoding="utf-8"?>
<!DOCTYPE svg PUBLIC "-//W3C//DTD SVG 1.1//EN" "http://www.w3.org/Graphics/SVG/1.1/DTD/svg11.dtd">
<svg width="512" height="512" viewBox="0 0 512 512" xmlns="http://www.w3.org/2000/svg" xmlns:xlink="http://www.w3.org/1999/xlink" fill="#000000">
  <path
     d="M 256,96 C 144.341,96 47.559,161.021 0,256 47.559,350.979 144.341,416 256,416 367.657,416 464.439,350.979 512,256 464.442,161.021 367.657,96 256,96 Z m 0.294,50.38189 c 46.64172,4.13048 91.2926,11.42736 123.21875,31.75781 22.38879,14.28057 44.94087,34.88549 61.52045,55.5771 -19.57253,3.75889 -48.88466,6.9847 -68.51661,8.80213 -95.64254,0.73085 -178.62999,-0.83112 -263.02636,-10.56776 -11.362946,-1.05397 -22.81665,-2.10906 -34.488277,-3.14648 15.730465,-18.62037 34.175387,-34.81502 54.773437,-47.95313 0.0363,-0.0231 0.21097,-0.07 0.33789,-0.10937 43.18997,-23.26711 87.31754,-33.79098 126.18072,-34.3603 z M 71.300781,278.69141 c 25.229138,2.26935 49.893809,4.66342 74.189449,6.92187 C 167.70866,323.53186 208.87751,349 256,349 c 43.63527,0 82.16319,-21.84009 105.26953,-55.17969 24.46985,-1.45703 48.95868,-4.07947 73.62695,-8.20312 -15.2672,17.59848 -32.97686,32.96824 -52.67187,45.53125 C 344.42761,355.25644 300.779,368 256,368 211.22,368 167.57239,355.25744 129.77539,331.14844 107.53585,316.96334 87.813753,299.20914 71.300781,278.69141 Z" />
</svg>
