<?xml version="1.0" encoding="UTF-8" standalone="no"?>
<svg
   xmlns:dc="http://purl.org/dc/elements/1.1/"
   xmlns:cc="http://creativecommons.org/ns#"
   xmlns:rdf="http://www.w3.org/1999/02/22-rdf-syntax-ns#"
   xmlns:svg="http://www.w3.org/2000/svg"
   xmlns="http://www.w3.org/2000/svg"
   version="1.1"
   fill="#000000"
   viewBox="0 0 512 512"
   height="512"
   width="512">
  <path
     id="path4147"
     d="M 254.91602 150.7793 C 202.92685 150.82169 169.86222 155.94966 134.71094 177.80273 C 135.04216 177.60321 135.3712 177.3994 135.70312 177.20117 C 130.72412 190.86517 128 205.613 128 221 C 128 291.692 185.308 349 256 349 C 326.692 349 384 291.692 384 221 C 384 205.76254 381.32468 191.15454 376.4375 177.60156 C 343.06123 160.37152 299.79085 150.8209 254.91602 150.7793 z M 208 157 C 234.51 157 256 178.49 256 205 C 256 231.51 234.51 253 208 253 C 181.49 253 160 231.51 160 205 C 160 178.49 181.49 157 208 157 z M 380.70508 179.90039 C 381.21179 180.21725 381.72028 180.52992 382.22461 180.85156 C 392.13954 187.17575 401.54382 194.22118 410.39844 201.89062 C 401.9396 194.32332 392.32202 186.24508 380.70508 179.90039 z M 420.27734 210.93555 C 420.72103 211.3649 421.15919 211.79968 421.59961 212.23242 C 421.15913 211.79973 420.72107 211.36487 420.27734 210.93555 z M 425.23438 215.87695 C 425.76619 216.42206 426.29552 216.96939 426.82227 217.51953 C 426.29547 216.96961 425.76622 216.42186 425.23438 215.87695 z M 429.67773 220.55273 C 430.39425 221.32713 431.10786 222.10486 431.81445 222.88867 C 431.10737 222.10483 430.39473 221.32718 429.67773 220.55273 z M 433.5625 224.84375 C 434.5566 225.97056 435.54202 227.10453 436.51562 228.25 C 435.54181 227.10513 434.55678 225.96999 433.5625 224.84375 z M 77.439453 225.99414 C 77.340864 226.10719 77.242918 226.22075 77.144531 226.33398 C 77.242842 226.22072 77.340939 226.10722 77.439453 225.99414 z M 438.08984 230.12695 C 439.00064 231.22052 439.90479 232.31981 440.79688 233.42969 C 439.90445 232.32021 439.00098 231.22011 438.08984 230.12695 z M 73.480469 230.65234 C 73.301275 230.86844 73.123782 231.08601 72.945312 231.30273 C 73.123644 231.08589 73.301411 230.86855 73.480469 230.65234 z M 442.13281 235.10742 C 443.04124 236.25811 443.93987 237.41837 444.82812 238.58594 C 443.9392 237.41826 443.04196 236.25817 442.13281 235.10742 z M 69.615234 235.43555 C 69.348002 235.77475 69.085799 236.11831 68.820312 236.45898 C 69.085594 236.1181 69.348207 235.77496 69.615234 235.43555 z M 445.83008 239.90234 C 446.90344 241.33314 447.95911 242.77714 449.00195 244.23242 C 447.95919 242.77803 446.90341 241.33219 445.83008 239.90234 z M 65.824219 240.37305 C 65.447073 240.87762 65.08039 241.3908 64.707031 241.89844 C 65.080107 241.39054 65.447369 240.8779 65.824219 240.37305 z M 62.15625 245.41211 C 61.571762 246.23712 61.006186 247.07548 60.431641 247.9082 C 61.005784 247.07532 61.572231 246.23735 62.15625 245.41211 z M 449.85742 245.43164 C 450.95642 246.98486 452.03962 248.55072 453.10352 250.13086 C 452.0392 248.55057 450.95697 246.98486 449.85742 245.43164 z M 58.558594 250.62891 C 57.369938 252.40263 56.201926 254.19286 55.058594 256 C 56.201891 254.19291 57.37042 252.40304 58.558594 250.62891 z M 453.5625 250.81836 C 454.70778 252.53176 455.83794 254.25592 456.94141 256 C 455.838 254.25603 454.70788 252.53145 453.5625 250.81836 z M 88.316406 297.72656 C 89.882455 299.30267 91.469779 300.85633 93.078125 302.38867 C 91.470112 300.85666 89.882141 299.30231 88.316406 297.72656 z M 136.92969 335.53516 C 139.33656 336.95283 141.76572 338.32643 144.21484 339.6543 C 141.76572 338.32642 139.33656 336.95284 136.92969 335.53516 z M 156.56641 345.88086 C 158.68236 346.87184 160.80755 347.83558 162.94922 348.76172 C 160.80799 347.83577 158.68192 346.87162 156.56641 345.88086 z M 178.41992 354.81055 C 180.71317 355.61464 183.02171 356.3774 185.33789 357.10938 C 183.02121 356.37725 180.71367 355.61482 178.41992 354.81055 z "
     style="fill:#ff0000" />
  <path
     d="M 256,96 C 144.341,96 47.559,161.021 0,256 47.559,350.979 144.341,416 256,416 367.657,416 464.439,350.979 512,256 464.442,161.021 367.657,96 256,96 Z m -1.08398,54.7793 c 44.87483,0.0416 88.14521,9.59222 121.52148,26.82226 -0.048,-0.13301 -0.0922,-0.26758 -0.14062,-0.40039 1.47795,0.88306 2.94566,1.78464 4.4082,2.69922 15.13159,8.26424 26.91109,19.49475 37.0918,28.66602 14.932,14.04714 28.09889,29.97554 39.14453,47.43359 -19.146,30.261 -44.6358,55.96044 -74.7168,75.14844 C 344.42761,355.25644 300.779,368 256,368 211.22,368 167.57239,355.25744 129.77539,331.14844 99.695391,311.96244 74.205594,286.262 55.058594,256 63.95206,241.94307 74.229988,228.88677 85.685547,216.99414 144.58382,161.36043 180.2103,150.84021 254.91602,150.7793 Z" />
  <path
     d="M 360.28978,199.879 C 377.8396,296.98353 283.93222,371.82982 190.52045,311.56926 323.66483,355.92941 361.48551,230.98396 360.28978,199.879 Z"
     style="fill:#000000" />
</svg>
