<svg xmlns="http://www.w3.org/2000/svg" width="512" height="512"><path d="M 71.215,40.861 82.008,22.16 69.853,1.102 l -24.314,0 -11,19.049 -22.39,0 L 0,41.207 l 12.156,21.056 22.793,0 10.997,19.048 24.312,0 L 82.413,60.258 71.215,40.861 Z m -23.36,-35.743 19.678,0 9.839,17.039 -9.839,17.037 -19.678,0 -9.836,-17.037 9.836,-17.039 z m -13.702,53.127 -19.677,0 -9.837,-17.038 9.837,-17.04 19.678,0 9.835,17.04 -9.836,17.038 z m 33.784,19.048 -19.678,0 -9.835,-17.035 9.835,-17.043 19.678,0 9.835,17.043 -9.835,17.035 z" transform="translate(25.156 33.874) scale(5.17952)"/><path d="m 273.02228,60.325809 101.92262,0 50.96132,88.253861 -50.96132,88.24351 -101.92262,0 -50.94578,-88.24351 50.94578,-88.253861 z" fill="#0ff" fill-opacity=".742"/><path d="m 202.05247,335.49825 -101.91745,0 -50.95096,-88.24869 50.95096,-88.25905 101.92263,0 50.94059,88.25905 -50.94577,88.24869 z" fill="#916f6f" fill-opacity=".642"/><path d="m 377.03743,434.15778 -101.92263,0 -50.94059,-88.23315 50.94059,-88.27459 101.92263,0 50.9406,88.27459 -50.9406,88.23315 z" fill="red"/></svg>