<?xml version="1.0" encoding="utf-8"?>
<!DOCTYPE svg PUBLIC "-//W3C//DTD SVG 1.1//EN" "http://www.w3.org/Graphics/SVG/1.1/DTD/svg11.dtd">
<svg 
xmlns="http://www.w3.org/2000/svg" 
xmlns:xlink="http://www.w3.org/1999/xlink" 
width="512" 
height="512" 
viewBox="0 0 512 512" 
fill="#000000">
  <path
     d="M 72 0 C 50 0 32 18 32 40 L 32 472 C 32 494 50 512 72 512 L 440 512 C 462 512 480 494 480 472 L 480 168 C 480 146 467.2728 115.27084 451.7168 99.714844 L 380.2832 28.283203 C 364.7272 12.727203 334 4.7369516e-015 312 0 L 72 0 z M 72 32 L 312 32 C 314.416 32 317.127 32.304563 320 32.851562 L 320 160 L 447.14844 160 C 447.69544 162.873 448 165.583 448 168 L 448 472 C 448 476.336 444.336 480 440 480 L 72 480 C 67.664 480 64 476.336 64 472 L 64 40 C 64 39.729 64.015074 39.460332 64.042969 39.195312 C 64.461387 35.22002 67.935 32 72 32 z M 352 46.271484 C 354.17 47.786484 356.09125 49.347109 357.65625 50.912109 L 429.08984 122.34375 C 430.65484 123.90875 432.21352 125.83 433.72852 128 L 352 128 L 352 46.271484 z M 182.62305 136.10742 L 182.62305 419.36914 L 372.07812 277.73828 L 182.62305 136.10742 z " />
</svg>
