<?xml version="1.0" encoding="utf-8"?>
<!DOCTYPE svg PUBLIC "-//W3C//DTD SVG 1.1//EN" "http://www.w3.org/Graphics/SVG/1.1/DTD/svg11.dtd">
<svg 
xmlns="http://www.w3.org/2000/svg" 
xmlns:xlink="http://www.w3.org/1999/xlink" 
width="512" 
height="512" 
viewBox="0 0 512 512" 
fill="#000000">
  <path
     d="M 42 0 C 20 0 2 18 2 40 L 2 472 C 2 494 20 512 42 512 L 410 512 C 432 512 450 494 450 472 L 450 434.87695 L 418 439.00586 L 418 472 C 418 476.336 414.336 480 410 480 L 42 480 C 37.664 480 34 476.336 34 472 L 34 40 C 34 35.664 37.664 32 42 32 L 282 32 C 284.416 32 287.127 32.304564 290 32.851562 L 290 131.16797 L 317.84375 160 L 417.14844 160 C 417.22103 160.38129 417.27787 160.75171 417.3418 161.12695 C 423.48791 149.10284 428.18772 137.35237 431.27148 126.28516 C 432.28531 122.64668 433.14104 119.14061 433.85352 115.75195 C 430.17018 109.57279 426.05459 104.05264 421.7168 99.714844 L 350.2832 28.283203 C 334.7272 12.727203 304 4.7369516e-015 282 0 L 42 0 z M 447.55273 18.730469 L 438.81055 26.386719 C 498.15094 75.656682 462.96493 186.4464 376.15625 266.73047 L 310.8457 199.10547 L 274.73633 425.01953 L 500.85352 395.84961 L 444.33008 337.32227 C 523.64715 252.37386 531.98809 59.680524 447.55273 18.730469 z M 322 46.271484 C 324.17 47.786484 326.09125 49.347109 327.65625 50.912109 L 399.08984 122.34375 C 400.65484 123.90875 402.21352 125.83 403.72852 128 L 322 128 L 322 46.271484 z "
     id="path4151" />
  <path
     d="m 59.536222,137.3753 0,203.28329 2.72654,0 70.578088,-62.07308 70.58031,62.07308 2.72654,0 0,-203.28329 z"
   />
</svg>

