<?xml version="1.0" encoding="utf-8"?>
<!DOCTYPE svg PUBLIC "-//W3C//DTD SVG 1.1//EN" "http://www.w3.org/Graphics/SVG/1.1/DTD/svg11.dtd"> <svg width="512" height="512" viewBox="0 0 512 512" xmlns="http://www.w3.org/2000/svg" xmlns:xlink="http://www.w3.org/1999/xlink" fill="#000000">
  <path
     d="M 196.18359 0.85742188 C 88.347576 0.85742188 0.9296875 28.176102 0.9296875 61.875 L 0.9296875 98.484375 L 147.37109 244.92578 L 147.37109 366.95898 C 147.37109 380.43838 169.22401 391.36523 196.18359 391.36523 C 223.1424 391.36523 244.99805 380.43838 244.99805 366.95898 L 244.99805 244.92578 L 391.4375 98.484375 L 391.4375 61.875 C 391.4375 28.176102 304.01961 0.85742188 196.18359 0.85742188 z M 196.18359 25.263672 C 241.42308 25.263672 284.80773 30.320427 318.3457 39.501953 C 333.484 43.646529 346.31336 48.590268 355.44531 53.798828 C 361.46769 57.233319 364.72158 60.139068 366.23633 61.875 C 364.72158 63.610932 361.46692 66.513965 355.44531 69.949219 C 346.31336 75.157779 333.484 80.101517 318.3457 84.246094 C 284.80849 93.427619 241.42384 98.484375 196.18359 98.484375 C 150.94334 98.484375 107.55945 93.427619 74.021484 84.246094 C 58.883179 80.101517 46.055014 75.157779 36.923828 69.949219 C 30.901455 66.513965 27.648322 63.610932 26.132812 61.875 C 27.648321 60.139068 30.901455 57.234082 36.923828 53.798828 C 46.055014 48.590268 58.883179 43.646529 74.021484 39.501953 C 107.55945 30.320427 150.94334 25.263672 196.18359 25.263672 z M 395.02734 268.16992 L 295.44531 321.51758 L 282.73242 328.32812 L 282.73242 436.88281 L 394.625 511.8125 L 399.25391 511.8125 L 511.14453 436.88281 L 511.14453 328.32812 L 398.84961 268.16992 L 395.02734 268.16992 z M 396.93945 284.42188 L 487.4082 332.88672 L 396.93945 381.35352 L 306.46875 332.88672 L 396.93945 284.42188 z M 297.95898 345.60352 L 299.09375 346.21094 L 297.95898 346.21094 L 297.95898 345.60352 z M 297.95898 350.01758 L 306.19922 350.01758 L 313.30664 353.82617 L 297.95898 353.82617 L 297.95898 350.01758 z M 297.95898 357.63281 L 320.41211 357.63281 L 327.51953 361.43945 L 297.95898 361.43945 L 297.95898 357.63281 z M 297.95898 365.24609 L 334.625 365.24609 L 341.73047 369.05273 L 297.95898 369.05273 L 297.95898 365.24609 z M 297.95898 372.85938 L 348.83789 372.85938 L 355.94336 376.66602 L 297.95898 376.66602 L 297.95898 372.85938 z M 297.95898 380.47461 L 363.04883 380.47461 L 370.15625 384.28125 L 297.95898 384.28125 L 297.95898 380.47461 z M 297.95898 388.08789 L 377.26172 388.08789 L 384.36914 391.89453 L 297.95898 391.89453 L 297.95898 388.08789 z M 297.95898 395.70117 L 389.32422 395.70117 L 389.32422 399.50781 L 297.95898 399.50781 L 297.95898 395.70117 z M 297.95898 403.31445 L 389.32422 403.31445 L 389.32422 407.12109 L 297.95898 407.12109 L 297.95898 403.31445 z M 297.95898 410.92969 L 389.32422 410.92969 L 389.32422 414.73633 L 297.95898 414.73633 L 297.95898 410.92969 z M 297.95898 418.54297 L 389.32422 418.54297 L 389.32422 422.34961 L 297.95898 422.34961 L 297.95898 418.54297 z M 297.95898 426.15625 L 389.32422 426.15625 L 389.32422 429.96289 L 299.76562 429.96289 L 297.95898 428.75391 L 297.95898 426.15625 z M 305.45117 433.76953 L 389.32422 433.76953 L 389.32422 437.57617 L 311.13672 437.57617 L 305.45117 433.76953 z M 316.82031 441.38477 L 389.32422 441.38477 L 389.32422 445.19141 L 322.50586 445.19141 L 316.82031 441.38477 z M 328.19141 448.99805 L 389.32422 448.99805 L 389.32422 452.80469 L 333.875 452.80469 L 328.19141 448.99805 z M 339.56055 456.61133 L 389.32422 456.61133 L 389.32422 460.41797 L 345.24609 460.41797 L 339.56055 456.61133 z M 350.93164 464.22461 L 389.32422 464.22461 L 389.32422 468.0332 L 356.61523 468.0332 L 350.93164 464.22461 z M 362.30078 471.83984 L 389.32422 471.83984 L 389.32422 475.64648 L 367.98633 475.64648 L 362.30078 471.83984 z M 373.66992 479.45312 L 389.32422 479.45312 L 389.32422 483.25977 L 379.35547 483.25977 L 373.66992 479.45312 z M 385.04102 487.06641 L 389.32422 487.06641 L 389.32422 489.93555 L 385.04102 487.06641 z "
     />
</svg>
