<?xml version="1.0" encoding="utf-8"?>
<!DOCTYPE svg PUBLIC "-//W3C//DTD SVG 1.1//EN" "http://www.w3.org/Graphics/SVG/1.1/DTD/svg11.dtd"> <svg width="512" height="512" viewBox="0 0 512 512" xmlns="http://www.w3.org/2000/svg" xmlns:xlink="http://www.w3.org/1999/xlink" fill="#000000">
  <path
     d="M 196.18384,0.85734851 C 88.347822,0.85734851 0.92960098,28.1754 0.92960098,61.874298 l 0,36.61017 146.44067902,146.440682 0,122.0339 c 0,13.4794 21.85398,24.40678 48.81356,24.40678 26.95881,0 48.81356,-10.92738 48.81356,-24.40678 l 0,-122.0339 146.44068,-146.440682 0,-36.61017 C 391.43808,28.1754 304.01986,0.85734851 196.18384,0.85734851 Z M 36.9235,53.798705 C 46.054686,48.590145 58.882737,43.64701 74.021042,39.502434 107.55901,30.320908 150.94359,25.264128 196.18384,25.264128 c 45.23949,0 88.62483,5.05678 122.1628,14.238306 15.1383,4.144576 27.96635,9.087711 37.0983,14.296271 6.02238,3.434491 9.2761,6.339661 10.79085,8.075593 -1.51475,1.735932 -4.76924,4.640339 -10.79085,8.075593 -9.13195,5.20856 -21.96,10.151695 -37.0983,14.296272 -33.53721,9.181525 -76.92255,14.238305 -122.1628,14.238305 -45.24025,0 -88.62483,-5.05678 -122.162798,-14.238305 C 58.882737,80.101586 46.054686,75.158451 36.9235,69.949891 30.901127,66.514637 27.647398,63.61023 26.131889,61.874298 27.647398,60.138366 30.901127,57.233959 36.9235,53.798705 Z" />
  <path
     d="M 265.71289 346.64258 L 265.71289 353.99219 L 265.71289 486.36719 L 277.21875 486.36719 L 277.21875 498.64062 L 502.85156 498.64062 L 502.85156 358.91406 L 491.3457 358.91406 L 491.3457 346.64258 L 265.71289 346.64258 z M 280.41211 361.3418 L 476.64648 361.3418 L 476.64648 471.66797 L 280.41211 471.66797 L 280.41211 361.3418 z "
      />
</svg>
