<svg width="512" height="512" xmlns="http://www.w3.org/2000/svg"><path d="M196.18384.85734851C88.347822.85734851.92960098 28.1754.92960098 61.874298l0 36.61017 146.44067902 146.440682 0 122.0339c0 13.4794 21.85398 24.40678 48.81356 24.40678 26.95881 0 48.81356-10.92738 48.81356-24.40678l0-122.0339 146.44068-146.440682 0-36.61017C391.43808 28.1754 304.01986.85734851 196.18384.85734851zM36.9235 53.798705C46.054686 48.590145 58.882737 43.64701 74.021042 39.502434 107.55901 30.320908 150.94359 25.264128 196.18384 25.264128c45.23949 0 88.62483 5.05678 122.1628 14.238306 15.1383 4.144576 27.96635 9.087711 37.0983 14.296271 6.02238 3.434491 9.2761 6.339661 10.79085 8.075593-1.51475 1.735932-4.76924 4.640339-10.79085 8.075593-9.13195 5.20856-21.96 10.151695-37.0983 14.296272-33.53721 9.181525-76.92255 14.238305-122.1628 14.238305-45.24025 0-88.62483-5.05678-122.162798-14.238305C58.882737 80.101586 46.054686 75.158451 36.9235 69.949891 30.901127 66.514637 27.647398 63.61023 26.131889 61.874298 27.647398 60.138366 30.901127 57.233959 36.9235 53.798705zM265.71289 346.64258L265.71289 353.99219 265.71289 486.36719 277.21875 486.36719 277.21875 498.64062 502.85156 498.64062 502.85156 358.91406 491.3457 358.91406 491.3457 346.64258 265.71289 346.64258zM280.41211 361.3418L476.64648 361.3418 476.64648 471.66797 280.41211 471.66797 280.41211 361.3418z"/></svg>