<svg xmlns="http://www.w3.org/2000/svg" height="512" width="512"><path d="M 255.86914 16.84375 C 223.42605 16.84375 192.59433 23.240365 162.98047 35.945312 C 104.15625 61.176136 60.826959 103.92999 35.550781 162.84961 C 22.884932 192.36807 16.710937 223.29324 16.710938 255.73633 C 16.710938 288.18568 22.884932 319.36786 35.550781 348.89258 C 60.826959 407.81219 104.15547 450.82348 162.98047 476.06055 C 192.59433 488.7655 223.42526 495.15625 255.86914 495.15625 C 288.31849 495.15625 319.11502 488.69825 348.76172 476.06055 C 408.07859 450.7617 450.95473 407.71211 476.18555 348.89258 C 488.8905 319.27324 495.28906 288.18568 495.28906 255.73633 C 495.28906 223.29324 488.8905 192.46817 476.18555 162.84961 C 450.95395 104.02461 408.07781 61.243386 348.76172 35.945312 C 319.11502 23.30136 288.31849 16.84375 255.86914 16.84375 z M 241.2168 48.242188 L 241.2168 161.01953 L 241.21484 161.01953 L 160.88867 161.01953 C 168.99944 131.18828 180.05095 106.11279 194.38086 85.921875 C 208.83277 65.552669 224.20779 52.953662 241.2168 48.242188 z M 270.78516 48.242188 C 287.79417 52.953662 303.16645 65.552668 317.61914 85.921875 C 331.95375 106.11279 343.00056 131.18828 351.11133 161.01953 L 270.78516 161.01953 L 270.78516 48.242188 z M 176.32227 61.328125 C 155.65121 87.491858 140.47984 120.72216 130.79492 161.01953 L 68.257812 161.01953 C 91.28343 116.27343 130.01298 80.425039 176.32227 61.328125 z M 335.67578 61.328125 C 381.99133 80.424257 420.71579 116.27265 443.74219 161.01953 L 381.20508 161.01953 C 371.52564 120.72138 356.34684 87.491076 335.67578 61.328125 z M 56.484375 189.80078 L 125.03906 189.80078 C 121.63898 212.03973 120.06641 234.0221 120.06641 255.73633 C 120.06641 277.19407 121.63976 298.91535 125.03906 321.1543 L 55.958984 321.1543 C 49.154911 299.95852 45.755859 277.98152 45.755859 255.73633 C 45.755859 232.97267 49.417556 210.99655 56.484375 189.80078 z M 154.87109 189.80078 L 241.21484 189.80078 L 241.21484 321.1543 L 154.3457 321.1543 C 150.94092 297.86515 149.10938 276.14463 149.10938 255.73633 C 149.10938 233.75936 150.94081 211.77775 154.87109 189.80078 z M 270.78516 189.80078 L 357.12891 189.80078 C 361.05841 211.77775 362.89062 233.75936 362.89062 255.73633 C 362.89062 276.14542 361.05908 297.86515 357.6543 321.1543 L 270.78516 321.1543 L 270.78516 189.80078 z M 386.96094 189.80078 L 455.51562 189.80078 C 462.58245 210.99577 466.24414 232.97189 466.24414 255.73633 C 466.24336 277.98152 462.84588 299.95852 456.04102 321.1543 L 386.96094 321.1543 C 390.36571 298.91457 391.93359 277.19407 391.93359 255.73633 C 391.93359 234.0221 390.36571 212.04051 386.96094 189.80078 z M 68.257812 349.9375 L 130.79492 349.9375 C 140.47984 391.01608 155.65394 424.77048 176.32422 450.67773 C 129.22668 431.05062 90.496751 395.20362 68.257812 349.9375 z M 160.88867 349.9375 L 241.21484 349.9375 L 241.21484 463.75781 C 224.20583 458.78907 208.24755 446.22862 193.85742 425.82031 C 179.46651 405.40654 168.4755 380.03072 160.88867 349.9375 z M 270.78516 349.9375 L 351.11133 349.9375 C 343.26331 380.03072 332.1271 405.30566 317.88086 425.82031 C 303.60177 446.38502 288.05614 459.05181 270.78516 463.75781 L 270.78516 349.9375 z M 381.20508 349.9375 L 443.74414 349.9375 C 421.50442 395.20362 382.77369 431.05062 335.67773 450.67773 C 356.34878 424.77048 371.52564 391.01608 381.20508 349.9375 z" /></svg>