<svg xmlns="http://www.w3.org/2000/svg" width="512" height="512"><path transform="matrix(7.0272 0 0 7.0275 52.211 52.203)" fill="#784936" d="M3 13L29 26 29 58 3 45z"/><path transform="matrix(7.0272 0 0 7.0275 52.211 52.203)" fill="#db8360" fill-opacity=".862" d="M55 13L29 26 29 58 55 45z"/><path transform="matrix(7.0272 0 0 7.0275 52.215 52.202)" fill="#e7af97" fill-opacity=".731" d="M28 0L55 13 29 26 3 13z"/><path d="m 251.25045,44.760419 c -16.81736,6.17482 -32.21061,16.28071 -48.45234,24.04451 -44.17541,23.18108 -88.74793,45.735831 -132.678513,69.303141 -5.16448,6.18886 -1.1454,15.33303 -2.41442,22.64952 0,69.24444 0,138.48887 0,207.7333 1.8063,9.54997 13.75255,9.93855 20.51029,14.89128 56.187893,27.84961 112.054423,56.52061 168.443123,83.85702 8.0855,0.0607 14.53042,-6.93586 21.98591,-9.37103 55.50654,-27.868 111.21721,-55.38448 166.59687,-83.471 5.48601,-8.20081 1.80707,-19.24567 2.87891,-28.76967 -0.19879,-68.03064 0.39769,-136.11762 -0.29842,-204.11303 -5.33727,-8.03834 -16.54308,-9.5631 -24.5475,-14.58105 C 366.89595,99.787199 310.51753,72.640999 254.13912,45.494789 l -2.88867,-0.73437 0,0 z m -0.23633,15.87695 c 57.52605,27.69922 115.05209,55.398441 172.57814,83.097661 -55.22657,27.61458 -110.45313,55.22917 -165.6797,82.84375 C 202.51348,198.87826 147.11439,171.17773 91.715307,143.47721 144.81491,115.86393 197.91452,88.250649 251.01412,60.637369 Z M 82.705537,155.74675 c 54.930333,27.46614 109.860673,54.93229 164.791003,82.39843 5.56563,6.89219 1.82449,17.16231 2.92183,25.56811 0,61.33341 1e-5,122.66683 1e-5,184.00025 -55.28014,-27.85808 -110.93453,-55.03335 -165.980133,-83.31934 -3.62672,-10.26574 -0.87351,-22.05453 -1.73275,-32.97087 2e-5,-58.55885 -6e-5,-117.1178 4e-5,-175.67658 z m 350.414063,0 c 0,68.24479 0,136.48958 0,204.73437 -7.74791,10.19826 -21.51069,12.94376 -32.19374,19.4704 -45.17305,22.58734 -90.34611,45.17468 -135.51916,67.76202 0,-69.36914 0,-138.73828 0,-208.10742 C 321.311,211.653 377.2153,183.69987 433.1196,155.74675 Z M 272.44186,291.99479 c -34.34452,27.93636 -68.68904,55.87271 -103.03356,83.80907 34.34452,-27.93635 68.68904,-55.87271 103.03356,-83.80907 z m -170.8125,58.16797 c -12.659333,20.55175 -25.318673,41.1035 -37.978013,61.65526 12.65934,-20.55176 25.31867,-41.10351 37.978013,-61.65526 z" style="line-height:normal;text-indent:0;text-align:start;text-decoration-line:none;text-decoration-style:solid;text-decoration-color:#000;text-transform:none;block-progression:tb;isolation:auto;mix-blend-mode:normal" color="#000" font-weight="400" font-family="sans-serif" white-space="normal" overflow="visible"/></svg>