<svg xmlns="http://www.w3.org/2000/svg" width="46.036" height="46.037"><path d="M 17.630859 6.7421875 C 5.8218607 9.0392907 0.86649291 25.36654 9.0390625 34.095703 C 11.769348 37.092409 17.634225 41.936286 21.123047 37.519531 C 21.195917 37.220096 21.318481 36.925059 21.324219 36.617188 L 21.628906 10.001953 C 21.157116 8.1610236 19.998752 6.7016997 17.630859 6.7421875 z M 28.904297 6.9980469 C 26.669406 7.2308025 25.599311 8.4485546 25.123047 10.099609 L 25.423828 36.552734 C 25.579398 36.978654 25.764098 37.397558 25.982422 37.806641 C 30.034358 41.360817 35.168907 36.282917 37.742188 33.140625 C 44.678699 24.221517 40.117974 9.5044719 28.904297 6.9980469 z"/><path d="m 39.043466,23.060465 c 0,-6.288962 -3.862193,-11.674089 -9.345279,-13.9166954 -0.61257,-0.2507748 -1.310037,-0.1795913 -1.85926,0.1893872 -0.549223,0.3683255 -0.878365,0.9880792 -0.878365,1.6483222 l 0,24.155359 c 0,0.661549 0.329795,1.279997 0.879018,1.648322 0.549876,0.368325 1.246037,0.440815 1.858607,0.190693 5.483086,-2.241299 9.345279,-7.62708 9.345279,-13.915388 z" fill="#fff"/></svg>