<svg width="512" height="512" xmlns="http://www.w3.org/2000/svg"><path d="m 321.2838,447.71323 q 39.88402,0 59.53702,-18.33081 19.653,-18.14752 19.653,-57.74208 l 0,-46.56026 q 0,-18.88074 8.86312,-28.41277 8.8631,-9.53202 29.47949,-9.53202 l 12.13861,0 0,-34.64525 -12.13861,0 q -10.40453,0 -17.72624,-2.01638 -7.3217,-2.1997 -11.94593,-6.5991 -4.62425,-4.3994 -6.551,-11.1818 -2.11944,-6.9657 -2.11944,-16.49773 l 0,-32.26223 q 0,-18.88074 -4.43156,-33.17878 -4.62423,-14.29803 -14.25806,-23.83006 -9.63382,-9.53202 -24.4699,-14.29804 -15.02876,-4.94932 -36.0305,-4.94932 l -16.18482,0 0,34.46194 12.13862,0 q 9.24847,0 16.76285,2.1997 7.32169,2.01639 12.71664,6.7824 5.39494,4.76601 8.28508,12.64826 2.89015,7.69895 2.89015,19.24736 l 0,32.07892 q 0,13.74811 2.5048,23.46345 2.31211,9.71533 7.32171,16.31442 5.00958,6.41579 12.71663,10.08195 7.70706,3.48285 18.11159,4.94932 -20.61638,2.1997 -30.63555,15.39788 -10.01918,13.01488 -10.01918,40.14449 l 0,46.56028 q 0,11.91502 -2.89015,19.79728 -2.89014,7.88224 -8.28508,12.64825 -5.39495,4.76602 -12.71664,6.7824 -7.51438,2.0164 -16.76285,2.0164 l -12.13862,0 0,34.46193 16.18482,0 z m -78.49981,0 q -39.88403,0 -59.53702,-18.33081 -19.65299,-18.14752 -19.65299,-57.74208 l 0,-46.56026 q 0,-18.88074 -8.86312,-28.41277 -8.86311,-9.53202 -29.47949,-9.53202 l -12.13862,0 0,-34.64525 12.13862,0 q 10.40453,0 17.72623,-2.01638 7.3217,-2.1997 11.94594,-6.5991 4.62423,-4.3994 6.551,-11.1818 2.11944,-6.9657 2.11944,-16.49773 l 0,-32.26223 q 0,-18.88074 4.43156,-33.17878 4.62422,-14.29803 14.25805,-23.83006 9.63382,-9.53203 24.46991,-14.29804 15.02875,-4.94932 36.03049,-4.94932 l 16.18482,0 0,34.46194 -12.13861,0 q -9.24848,0 -16.76285,2.1997 -7.3217,2.01639 -12.71666,6.7824 -5.39493,4.76601 -8.28507,12.64826 -2.89016,7.69895 -2.89016,19.24736 l 0,32.07892 q 0,13.74811 -2.50479,23.46345 -2.31212,9.71533 -7.3217,16.31442 -5.00959,6.41579 -12.71664,10.08195 -7.70706,3.48285 -18.11159,4.94932 20.61638,2.1997 30.63555,15.39788 10.01917,13.01488 10.01917,40.14449 l 0,46.56028 q 0,11.91502 2.89016,19.79728 2.89014,7.88224 8.28507,12.64825 5.39496,4.76602 12.71666,6.7824 7.51437,2.0164 16.76285,2.0164 l 12.13861,0 0,34.46193 -16.18482,0 z" opacity=".329"/><path d="m 295.2499,426.01831 q 39.88402,0 59.53702,-18.33081 19.653,-18.14752 19.653,-57.74208 l 0,-46.56026 q 0,-18.88074 8.86312,-28.41277 8.8631,-9.53202 29.47949,-9.53202 l 12.13861,0 0,-34.64525 -12.13861,0 q -10.40453,0 -17.72624,-2.01638 -7.3217,-2.1997 -11.94593,-6.5991 -4.62425,-4.3994 -6.551,-11.1818 -2.11944,-6.9657 -2.11944,-16.49773 l 0,-32.26223 q 0,-18.88074 -4.43156,-33.17878 -4.62423,-14.29803 -14.25806,-23.83006 -9.63382,-9.53202 -24.4699,-14.298033 -15.02876,-4.949321 -36.0305,-4.949321 l -16.18482,0 0,34.461934 12.13862,0 q 9.24847,0 16.76285,2.1997 7.32169,2.01639 12.71664,6.7824 5.39494,4.76601 8.28508,12.64826 2.89015,7.69895 2.89015,19.24736 l 0,32.07892 q 0,13.74811 2.5048,23.46345 2.31211,9.71533 7.32171,16.31442 5.00958,6.41579 12.71663,10.08195 7.70706,3.48285 18.11159,4.94932 -20.61638,2.1997 -30.63555,15.39788 -10.01918,13.01488 -10.01918,40.14449 l 0,46.56028 q 0,11.91502 -2.89015,19.79728 -2.89014,7.88224 -8.28508,12.64825 -5.39495,4.76602 -12.71664,6.7824 -7.51438,2.0164 -16.76285,2.0164 l -12.13862,0 0,34.46193 16.18482,0 z m -78.49981,0 q -39.88403,0 -59.53702,-18.33081 -19.65299,-18.14752 -19.65299,-57.74208 l 0,-46.56026 q 0,-18.88074 -8.86312,-28.41277 -8.86311,-9.53202 -29.479491,-9.53202 l -12.138616,0 0,-34.64525 12.138616,0 q 10.404531,0 17.726231,-2.01638 7.3217,-2.1997 11.94594,-6.5991 4.62423,-4.3994 6.551,-11.1818 2.11944,-6.9657 2.11944,-16.49773 l 0,-32.26223 q 0,-18.88074 4.43156,-33.17878 4.62422,-14.29803 14.25805,-23.83006 9.63382,-9.532021 24.46991,-14.298034 15.02875,-4.94932 36.03049,-4.94932 l 16.18482,0 0,34.461934 -12.13861,0 q -9.24848,0 -16.76285,2.1997 -7.3217,2.01639 -12.71666,6.7824 -5.39493,4.76601 -8.28507,12.64826 -2.89016,7.69895 -2.89016,19.24736 l 0,32.07892 q 0,13.74811 -2.50479,23.46345 -2.31212,9.71533 -7.3217,16.31442 -5.00959,6.41579 -12.71664,10.08195 -7.70706,3.48285 -18.11159,4.94932 20.61638,2.1997 30.63555,15.39788 10.01917,13.01488 10.01917,40.14449 l 0,46.56028 q 0,11.91502 2.89016,19.79728 2.89014,7.88224 8.28507,12.64825 5.39496,4.76602 12.71666,6.7824 7.51437,2.0164 16.76285,2.0164 l 12.13861,0 0,34.46193 -16.18482,0 z"/></svg>