<svg xmlns="http://www.w3.org/2000/svg" height="512" width="512"><path transform="matrix(7.0272 0 0 7.0275 52.211 52.203)" fill="#3f4398" d="M3 13L29 26 29 58 3 45z"/><path transform="matrix(7.0272 0 0 7.0275 52.211 52.203)" fill="#6992f1" fill-opacity=".862" d="M55 13L29 26 29 58 55 45z"/><path transform="matrix(7.0272 0 0 7.0275 52.215 52.202)" fill="#cad3f3" fill-opacity=".731" d="M28 0L55 13 29 26 3 13z"/><path style="line-height:normal;text-indent:0;text-align:start;text-decoration-line:none;text-decoration-style:solid;text-decoration-color:#000;text-transform:none;block-progression:tb;isolation:auto;mix-blend-mode:normal" d="m 249.33772,44.713086 c -16.81736,6.174823 -32.21061,16.280718 -48.45234,24.04451 -44.17541,23.18108 -88.74793,45.735834 -132.678513,69.303144 -5.164482,6.18886 -1.145399,15.33303 -2.41442,22.64952 0,69.24444 0,138.48887 0,207.7333 1.806306,9.54997 13.752548,9.93855 20.51029,14.89128 56.187893,27.84961 112.054423,56.52061 168.443123,83.85702 8.0855,0.0607 14.53042,-6.93586 21.98591,-9.37103 55.50654,-27.868 111.21721,-55.38448 166.59687,-83.471 5.48601,-8.20081 1.80707,-19.24567 2.87891,-28.76967 -0.19879,-68.03064 0.39769,-136.11762 -0.29842,-204.11303 -5.33727,-8.03834 -16.54308,-9.5631 -24.5475,-14.58105 C 364.98322,99.739874 308.6048,72.593667 252.22639,45.44746 l -2.88867,-0.734374 0,0 z m -0.23633,15.876952 C 306.62744,88.289259 364.15348,115.98848 421.67953,143.6877 366.45296,171.30228 311.2264,198.91687 255.99983,226.53145 200.60075,198.83093 145.20166,171.1304 89.802577,143.42988 142.90218,115.8166 196.00179,88.203319 249.10139,60.590038 Z M 80.792807,155.69942 c 54.930333,27.46614 109.860673,54.93229 164.791003,82.39843 5.56563,6.89219 1.82449,17.16231 2.92183,25.56811 0,61.33341 1e-5,122.66683 1e-5,184.00025 C 193.22551,419.80813 137.57112,392.63286 82.525522,364.34687 78.8988,354.08113 81.652011,342.29234 80.792767,331.376 c 2.7e-5,-58.55885 -5.3e-5,-117.1178 4e-5,-175.67658 z m 350.414063,0 c 0,68.24479 0,136.48958 0,204.73437 -7.74791,10.19826 -21.51069,12.94376 -32.19374,19.4704 -45.17305,22.58734 -90.34611,45.17468 -135.51916,67.76202 0,-69.36914 0,-138.73828 0,-208.10742 55.9043,-27.95312 111.8086,-55.90625 167.7129,-83.85937 z M 270.52913,291.94746 c -34.34452,27.93636 -68.68904,55.87271 -103.03356,83.80907 34.34452,-27.93635 68.68904,-55.87271 103.03356,-83.80907 z M 99.716633,350.11543 c -12.659338,20.55175 -25.318676,41.1035 -37.978014,61.65526 12.659336,-20.55176 25.318675,-41.10351 37.978014,-61.65526 z" color="#000" font-weight="400" font-family="sans-serif" white-space="normal" overflow="visible"/><path d="m 252.34824,128.16712 a 4.1121171,4.1121171 0 0 0 -2.09761,0.45935 l -96.31243,50.08465 a 4.1121171,4.1121171 0 0 0 -0.14777,0.0867 4.1120274,4.1122071 0 0 0 -0.0974,0.0568 4.1121171,4.1121171 0 0 0 -0.24734,0.16489 4.1120274,4.1122071 0 0 0 -0.0878,0.0643 4.1121171,4.1121171 0 0 0 -0.24414,0.20023 4.1120274,4.1122071 0 0 0 -0.0664,0.0589 4.1121171,4.1121171 0 0 0 -0.22807,0.22914 4.1120274,4.1122071 0 0 0 -0.0578,0.0632 4.1121171,4.1121171 0 0 0 -0.20987,0.25805 4.1120274,4.1122071 0 0 0 -0.0461,0.061 4.1121171,4.1121171 0 0 0 -0.17453,0.26448 4.1120274,4.1122071 0 0 0 -0.0536,0.0889 4.1121171,4.1121171 0 0 0 -0.14883,0.28482 4.1120274,4.1122071 0 0 0 -0.0343,0.0717 4.1121171,4.1121171 0 0 0 -0.121,0.29874 4.1120274,4.1122071 0 0 0 -0.0321,0.0932 4.1121171,4.1121171 0 0 0 -0.0889,0.30516 4.1120274,4.1122071 0 0 0 -0.0203,0.0824 4.1121171,4.1121171 0 0 0 -0.06,0.32337 4.1120274,4.1122071 0 0 0 -0.0118,0.0803 4.1121171,4.1121171 0 0 0 -0.0289,0.35228 4.1120274,4.1122071 0 0 0 -0.002,0.0525 4.1121171,4.1121171 0 0 0 -0.005,0.10708 l 0,123.28587 a 4.1121171,4.1121171 0 0 0 1.55688,3.22083 4.1120274,4.1122071 0 0 0 0.001,0 4.1121171,4.1121171 0 0 0 0.33301,0.23878 4.1120274,4.1122071 0 0 0 0.001,0.001 4.1121171,4.1121171 0 0 0 0.35549,0.20344 4.1120274,4.1122071 0 0 0 0.001,10e-4 4.1121171,4.1121171 0 0 0 0.0236,0.0118 4.1120274,4.1122071 0 0 0 0.003,0.002 l 100.16502,50.08465 a 4.1120274,4.1122071 0 0 0 0.76559,0.2891 4.1120274,4.1122071 0 0 0 0.13706,0.03 4.1121171,4.1121171 0 0 0 0.23985,0.0525 4.1121171,4.1121171 0 0 0 0.006,10e-4 4.1120274,4.1122071 0 0 0 0.32658,0.0385 4.1121171,4.1121171 0 0 0 0.008,0.001 4.1120274,4.1122071 0 0 0 0.0685,0.009 4.1121171,4.1121171 0 0 0 0.005,0 4.1120274,4.1122071 0 0 0 0.003,0 4.1120274,4.1122071 0 0 0 0.15418,0.003 4.1121171,4.1121171 0 0 0 0.17454,0.004 4.1121171,4.1121171 0 0 0 0.0771,0.001 4.1121171,4.1121171 0 0 0 0.0236,-0.002 4.1121171,4.1121171 0 0 0 0.25162,-0.0203 4.1120274,4.1122071 0 0 0 0.14134,-0.0128 4.1121171,4.1121171 0 0 0 0.006,-0.001 4.1120274,4.1122071 0 0 0 0.11671,-0.0214 4.1121171,4.1121171 0 0 0 0.11243,-0.0203 4.1120274,4.1122071 0 0 0 0.16811,-0.031 4.1121171,4.1121171 0 0 0 0.0171,-0.005 4.1121171,4.1121171 0 0 0 0.22379,-0.0642 4.1120274,4.1122071 0 0 0 0.15312,-0.0449 4.1121171,4.1121171 0 0 0 0.0171,-0.008 4.1121171,4.1121171 0 0 0 0.17133,-0.0685 4.1120274,4.1122071 0 0 0 0.20665,-0.0835 4.1120274,4.1122071 0 0 0 0.0974,-0.0461 l 100.16508,-50.08465 a 4.1120274,4.1122071 0 0 0 0.003,-0.002 4.1121171,4.1121171 0 0 0 0.35441,-0.20023 4.1120274,4.1122071 0 0 0 0.003,-0.002 4.1121171,4.1121171 0 0 0 0.33301,-0.2345 4.1120274,4.1122071 0 0 0 0.003,-0.002 4.1121171,4.1121171 0 0 0 0.30731,-0.26661 4.1121171,4.1121171 0 0 0 1.27099,-2.97135 l 0,-123.28587 a 4.1121171,4.1121171 0 0 0 -2.32577,-3.70514 L 253.93189,128.56972 a 4.1121171,4.1121171 0 0 0 -1.58365,-0.4026 z m -0.12956,8.70418 94.61207,45.55642 -90.83016,45.41722 -91.11391,-45.55856 87.332,-45.41508 z m 2.06763,4.80448 -4.38582,0.0193 0.0375,8.77164 4.38582,-0.0193 -0.0375,-8.77164 z m 0.0739,17.54328 -4.38582,0.0193 0.0375,8.77057 4.38582,-0.0182 -0.0375,-8.77164 z m 0.0739,17.54329 -4.38582,0.0182 0.0375,8.77164 4.38582,-0.0182 -0.0375,-8.77163 z m -94.48678,12.25053 90.34295,45.17308 0.0171,3.99607 1.58472,-0.006 0,8.77164 -1.54832,0.006 0.03,7.01452 -2.22931,1.15963 2.02373,3.89113 1.72392,-0.89622 0,90.95436 -89.16835,-44.58524 1.83957,-0.95726 -2.02374,-3.89113 -2.5923,1.34808 0,-111.97866 z m 192.1066,0 0,112.241 -7.15265,-3.44355 -1.90274,3.95109 5.98018,2.87927 -88.8696,44.4364 0,-114.0902 91.94481,-45.97401 z m -97.54594,5.29274 -4.38582,0.0182 0.0375,8.77164 4.38582,-0.0182 -0.0375,-8.77164 z m 0.0739,17.54328 -4.38582,0.0182 0.0375,8.77164 4.38582,-0.0182 -0.0375,-8.77164 z m -14.21965,47.32531 -7.78226,4.04746 2.02373,3.89113 7.78226,-4.04746 -2.02373,-3.89113 z m 25.50649,0.58249 -1.90273,3.95109 7.90325,3.80547 1.90274,-3.95109 -7.90326,-3.80547 z m -41.07101,7.51136 -7.78226,4.04746 2.02373,3.89113 7.78226,-4.04746 -2.02373,-3.89113 z m 56.87753,0.0985 -1.90274,3.95216 7.90325,3.80547 1.90274,-3.95216 -7.90325,-3.80547 z m 15.80651,7.61094 -1.90274,3.95216 7.90326,3.80547 1.90273,-3.95216 -7.90325,-3.80547 z m -88.24856,0.3844 -7.78226,4.04746 2.02373,3.89113 7.78226,-4.04746 -2.02373,-3.89113 z m 104.05507,7.22654 -1.90274,3.95216 7.90326,3.80547 1.90273,-3.95216 -7.90325,-3.80547 z m -119.6196,0.86731 -7.78225,4.04746 2.02373,3.89113 7.78226,-4.04746 -2.02374,-3.89113 z m 135.42611,6.74363 -1.90274,3.95216 7.90326,3.80547 1.90273,-3.95217 -7.90325,-3.80546 z m -150.99062,1.35022 -7.78227,4.04746 2.02374,3.89113 7.78226,-4.04746 -2.02373,-3.89113 z" style="line-height:normal;text-indent:0;text-align:start;text-decoration-line:none;text-decoration-style:solid;text-decoration-color:#000;text-transform:none;block-progression:tb;isolation:auto;mix-blend-mode:normal" color="#000" font-weight="400" font-family="sans-serif" white-space="normal" overflow="visible"/></svg>