<svg xmlns="http://www.w3.org/2000/svg" xmlns:xlink="http://www.w3.org/1999/xlink" viewBox="-128 -128 2048 2048" height="2048" width="2048"><defs><linearGradient id="a"><stop offset="0" stop-color="#8ea9ff"/><stop offset="1" stop-color="#fff" stop-opacity="0"/></linearGradient><linearGradient xlink:href="#a" id="b" x1="869.966" y1="1329.898" x2="887.322" y2="418.712" gradientUnits="userSpaceOnUse"/></defs><path d="m 886.18925,186.19655 c -105.67287,0.30668 -167.56577,69.13848 -212.74459,172.98149 -113.34399,217.0571 -156.19864,586.81215 -308.3235,801.43086 -74.16977,83.8387 -173.67738,145.4984 -312.416066,167.7882 3.485434,0.045 6.936794,0.038 10.369014,0 l 1665.853792,0 c 3.4322,0.038 6.8816,0.045 10.367,0 -138.7452,-22.2906 -238.2544,-83.955 -312.425,-167.7998 C 1274.7534,945.97872 1231.8986,576.23801 1118.5592,359.18397 1071.9995,252.16434 1007.687,182.32959 896.00003,186.36065 c -3.31176,-0.11827 -6.58153,-0.17375 -9.81077,-0.16303 z" style="isolation:auto;mix-blend-mode:normal" color="#000" overflow="visible" fill="url(#b)"/><path d="M 886.18915,186.19701 C 780.51627,186.50369 718.62441,255.33505 673.44559,359.17807 560.1016,576.23517 517.24642,945.99041 365.12156,1160.6091 c -74.16977,83.8388 -173.67751,145.4986 -312.416201,167.7884 3.485434,0.045 6.937357,0.038 10.369577,0 l 306.807534,0 c 40.53726,-26.3399 74.76991,-59.6394 104.03447,-97.9838 120.94882,-197.7923 155.02237,-538.55904 245.13797,-738.59863 35.92,-95.70162 85.12814,-159.13805 169.14472,-159.42068 l 0,0.002 c 2.56747,-0.0103 5.1673,0.0398 7.80038,0.14873 88.79824,-3.71502 139.93149,60.64522 176.94939,159.27443 90.1119,200.03678 124.1828,540.78905 245.125,738.58125 29.266,38.3486 63.5028,71.6538 104.0431,97.9963 l 306.8097,0 c 3.4323,0.038 6.882,0.045 10.3674,0 -138.7453,-22.2907 -238.2542,-83.9561 -312.4248,-167.801 C 1274.7533,945.9781 1231.8982,576.23706 1118.5588,359.18303 1071.9991,252.1634 1007.687,182.32954 896.00001,186.3606 c -3.31178,-0.11828 -6.58158,-0.17431 -9.81086,-0.16359 z M 58.707776,1520.3651 l 1674.584424,0 0,109.44 -1674.584424,0 z" style="isolation:auto;mix-blend-mode:normal" color="#000" overflow="visible" fill="#0c4be0"/></svg>