<svg xmlns="http://www.w3.org/2000/svg" width="512" height="512"><path d="m 166.926,155.377 c 8.633,-10.416 14.741,-22.853 17.662,-35.965 l 14.641,3.262 c -3.435,15.42 -10.612,30.039 -20.754,42.275 l -11.549,-9.572 z M 162.129,20.796 C 149.526,11.121 134.647,4.5 119.099,1.65 l -2.705,14.754 c 13.219,2.424 25.876,8.057 36.6,16.291 l 9.135,-11.899 z M 4.476,71.48 18.827,75.845 C 22.735,62.992 29.764,51.047 39.153,41.3 L 28.35,30.894 C 17.326,42.338 9.07,56.373 4.476,71.48 Z m 29.338,104.381 c 11.849,10.591 26.185,18.314 41.459,22.332 l 3.817,-14.506 c -12.992,-3.419 -25.192,-9.992 -35.281,-19.01 l -9.995,11.184 z m -20.861,-25.98 13.083,-7.338 C 19.449,130.799 15.702,117.463 15.201,103.979 l -14.989,0.559 c 0.589,15.851 4.995,31.53 12.741,45.343 z M 61.936,24.369 C 74.073,18.152 87.179,15 100.888,15 l 0,-15 C 85.005,0 69.171,3.811 55.097,11.019 l 6.839,13.35 z m 139.062,65.03 C 199.227,73.67 193.649,58.367 184.868,45.145 l -12.495,8.299 c 7.469,11.247 12.213,24.261 13.72,37.635 l 14.905,-1.68 z M 108.462,201.21 c 15.8,-1.181 31.303,-6.177 44.832,-14.448 l -7.824,-12.797 c -11.506,7.033 -24.689,11.282 -38.125,12.286 l 1.117,14.959 z" transform="translate(103.3 103.3) scale(1.51782)"/></svg>