<?xml version="1.0" encoding="utf-8"?>
<!DOCTYPE svg PUBLIC "-//W3C//DTD SVG 1.1//EN" "http://www.w3.org/Graphics/SVG/1.1/DTD/svg11.dtd">
<svg width="512" height="512" viewBox="0 0 512 512" xmlns="http://www.w3.org/2000/svg" xmlns:xlink="http://www.w3.org/1999/xlink" fill="#000000">
  <path
     d="m 136.22623,133.88975 0,17.13812 25.01453,0 82.25133,156.88153 -14.41417,28.34367 c -4.80511,9.44799 -9.61035,16.04 -14.41546,19.77525 -5.08776,3.29581 -11.30662,4.94381 -18.65561,4.94381 -8.19694,0 -14.27341,-1.53857 -18.23055,-4.61465 -3.95715,-3.51554 -6.35978,-8.78915 -7.20774,-15.82021 l -19.50311,0 0,32.62917 c 4.8051,1.09861 11.72948,2.30627 20.77438,3.6246 5.93572,0.87888 12.57789,1.31922 19.92687,1.31922 15.54593,0 27.41796,-2.41794 35.61491,-7.25179 8.76225,-5.05359 16.39343,-14.17167 22.89445,-27.35491 l 100.90693,-192.47569 24.59078,0 0,-17.13812 -82.67508,0 0,17.13812 33.06977,0 -61.90069,117.66147 -61.90069,-117.66147 35.18983,0 0,-17.13812 -101.33068,0 z"
      />
</svg>
