<svg xmlns="http://www.w3.org/2000/svg" viewBox="0 0 385 385"><path d="m 191.79212,35.614312 c -9.8567,0.433593 -14.32025,10.865774 -20.12298,17.075365 C 127.73491,107.28996 83.038194,161.31393 39.609906,216.29702 c -4.252697,8.32533 1.666645,17.88585 9.20712,21.81635 46.040896,36.60042 91.346624,74.2143 137.883574,110.131 8.10467,3.68508 16.38489,-2.06122 21.90058,-7.66044 45.04163,-36.5412 90.85528,-72.2143 135.37471,-109.34271 5.59051,-7.28453 1.7945,-17.58497 -4.62708,-22.96495 -46.00495,-56.4575 -91.33977,-113.474175 -137.80745,-169.538807 -2.73584,-2.163059 -6.26431,-3.30082 -9.74924,-3.123151 z" fill="#fff"/><path d="M 182.60639,78.114178 87.104035,195.99731 c 0.01107,-0.005 0.0206,-0.013 0.03088,-0.0185 l 21.57491,-11.76855 c 3.83203,-2.08913 8.63189,-0.67881 10.72338,3.15402 2.09072,3.83125 0.67801,8.63268 -3.15403,10.72339 l -21.574903,11.76855 c -1.202254,0.65527 -2.498805,0.96798 -3.777731,0.96798 -2.798937,0 -5.512556,-1.49143 -6.947198,-4.122 -1.057605,-1.93895 -1.215852,-4.12397 -0.619073,-6.08267 l -8.196148,10.11513 c 0.124098,0.18891 0.245961,0.38121 0.356623,0.58356 2.090703,3.83125 0.678046,8.63268 -3.155572,10.72339 l -2.644564,1.44344 112.885786,90.68254 0,-152.25941 -0.0756,0.0417 c -1.20146,0.65527 -2.49805,0.96643 -3.77619,0.96643 -2.79894,0 -5.51334,-1.49143 -6.9472,-4.12201 -2.0907,-3.83124 -0.67879,-8.63267 3.15403,-10.72338 l 7.64501,-4.16984 0,-65.786872 z m -26.21872,81.174142 c 2.80381,-0.005 5.52273,1.48694 6.95955,4.12201 2.09149,3.83124 0.67879,8.63267 -3.15404,10.72338 l -21.5749,11.76855 c -1.20147,0.65527 -2.49956,0.96798 -3.77928,0.96798 -2.79814,0 -5.51101,-1.49143 -6.94565,-4.12201 -2.09071,-3.83124 -0.67726,-8.63268 3.15557,-10.72338 l 21.57491,-11.7701 c 1.19726,-0.65309 2.48937,-0.96427 3.76384,-0.96643 z" fill="#ffd42a" fill-rule="evenodd"/><path d="m 192.48685,40.341494 c -2.97995,0 -5.80093,1.345212 -7.67743,3.660401 L 45.159945,216.37576 c -1.653593,2.0417 -2.424936,4.65822 -2.145912,7.2714 0.280605,2.61239 1.586888,5.00663 3.6357,6.65232 L 186.30075,342.48129 c 0,0 2.45757,2.17833 6.18764,2.17833 3.73007,0 6.18609,-2.17833 6.18609,-2.17833 L 338.32396,230.29948 c 2.04881,-1.64569 3.35746,-4.03993 3.6357,-6.65232 0.27981,-2.61239 -0.49232,-5.2297 -2.14591,-7.2714 L 200.16427,44.001895 c -1.8765,-2.315189 -4.69748,-3.660401 -7.67742,-3.660401 z m -9.88046,37.772684 0,65.786872 -7.64501,4.16987 c -3.83282,2.0907 -5.24473,6.89213 -3.15403,10.72338 1.43386,2.63057 4.14826,4.12201 6.9472,4.12201 1.27814,0 2.57473,-0.31117 3.77619,-0.96644 l 0.0756,-0.0417 0,152.25941 -112.885786,-90.68254 2.644566,-1.44347 c 3.833618,-2.09071 5.246276,-6.89215 3.155572,-10.72339 -0.110662,-0.20235 -0.232524,-0.39465 -0.356623,-0.58357 l 8.196149,-10.11512 c -0.59678,1.9587 -0.438532,4.14372 0.619072,6.08266 1.434643,2.63058 4.148262,4.122 6.947198,4.122 1.278927,0 2.575477,-0.3127 3.777732,-0.96797 l 21.57491,-11.76855 c 3.83203,-2.09071 5.24473,-6.89214 3.15402,-10.72339 -2.09149,-3.83283 -6.89134,-5.24315 -10.72338,-3.15403 l -21.574908,11.76856 c -0.01028,0.006 -0.01981,0.0138 -0.03088,0.0185 L 182.60639,78.114178 Z m 19.76091,0 95.50236,117.883132 c -0.0111,-0.006 -0.0206,-0.0145 -0.0324,-0.0201 l -21.5749,-11.76855 c -3.8352,-2.08991 -8.63423,-0.67722 -10.72493,3.15403 -2.08992,3.83282 -0.67801,8.63422 3.15402,10.72493 l 21.57491,11.76855 c 1.20304,0.65527 2.50036,0.96643 3.77928,0.96643 2.79893,0 5.51101,-1.49067 6.94565,-4.12046 1.05839,-1.94052 1.21665,-4.12779 0.61908,-6.08729 l 8.19769,10.11821 c -0.12489,0.18813 -0.2483,0.38121 -0.35817,0.58357 -2.08991,3.83282 -0.67801,8.63422 3.15403,10.72493 l 2.64919,1.44347 -112.88578,90.68254 0,-152.25787 0.0741,0.0401 c 3.83441,2.08912 8.63268,0.67722 10.72339,-3.15402 2.0907,-3.83283 0.67875,-8.63269 -3.15249,-10.72339 l -7.64501,-4.17141 0,-65.786872 z m -45.97963,81.174142 c -1.27447,0.002 -2.56658,0.31334 -3.76384,0.96643 l -21.57491,11.7701 c -3.83283,2.0907 -5.24628,6.89214 -3.15557,10.72338 1.43464,2.63058 4.14751,4.12201 6.94565,4.12201 1.27972,0 2.57781,-0.31271 3.77928,-0.96798 l 21.5749,-11.76855 c 3.83283,-2.09071 5.24553,-6.89214 3.15404,-10.72338 -1.43682,-2.63507 -4.15574,-4.12676 -6.95955,-4.12201 z m 72.19681,0 c -2.80437,-0.005 -5.52273,1.48648 -6.95955,4.12046 -2.0907,3.83283 -0.67721,8.63422 3.15404,10.72493 l 21.5749,11.76855 c 1.20305,0.65527 2.50035,0.96798 3.77928,0.96798 2.79814,0 5.51101,-1.49222 6.94565,-4.12201 2.09071,-3.83282 0.67722,-8.63268 -3.15403,-10.72338 l -21.57491,-11.7701 c -1.19825,-0.65334 -2.49066,-0.96431 -3.76538,-0.96643 z"/><path d="m 202.3673,78.114178 0,65.786872 7.64501,4.17141 c 3.83123,2.0907 5.24319,6.89056 3.15249,10.72339 -2.09071,3.83124 -6.88898,5.24314 -10.72339,3.15402 l -0.0741,-0.0401 0,152.25787 112.88578,-90.68254 -2.64919,-1.44347 c -3.83204,-2.09071 -5.24394,-6.89211 -3.15403,-10.72493 0.10987,-0.20236 0.23328,-0.39544 0.35817,-0.58357 l -8.19769,-10.11821 c 0.59757,1.9595 0.43931,4.14677 -0.61908,6.08729 -1.43464,2.62979 -4.14672,4.12046 -6.94565,4.12046 -1.27893,0 -2.57624,-0.31116 -3.77928,-0.96643 l -21.57491,-11.76855 c -3.83203,-2.09071 -5.24394,-6.89211 -3.15402,-10.72493 2.0907,-3.83125 6.88973,-5.24394 10.72493,-3.15403 l 21.5749,11.76855 c 0.0119,0.006 0.0214,0.0138 0.0324,0.0201 L 202.3673,78.114178 Z m 26.21718,81.174142 c 1.27472,0.002 2.56713,0.31309 3.76538,0.96643 l 21.57491,11.7701 c 3.83125,2.0907 5.24474,6.89056 3.15403,10.72338 -1.43464,2.62979 -4.14751,4.12201 -6.94565,4.12201 -1.27893,0 -2.57623,-0.31271 -3.77928,-0.96798 l -21.5749,-11.76855 c -3.83125,-2.09071 -5.24474,-6.8921 -3.15404,-10.72493 1.43682,-2.63398 4.15518,-4.12511 6.95955,-4.12046 z" fill="#ffeb9d" fill-rule="evenodd"/></svg>