<?xml version="1.0" encoding="utf-8"?>
<!DOCTYPE svg PUBLIC "-//W3C//DTD SVG 1.1//EN" "http://www.w3.org/Graphics/SVG/1.1/DTD/svg11.dtd">
<svg width="512" height="512" viewBox="0 0 512 512" xmlns="http://www.w3.org/2000/svg" xmlns:xlink="http://www.w3.org/1999/xlink" fill="#000000">
  <path
     d="M 197.5332 87.080078 L 196.61914 87.486328 L 195.70703 87.894531 L 195.70508 87.894531 C 187.1972 91.68215 178.68987 95.470981 170.18164 99.257812 C 181.27544 124.17286 192.36864 149.08818 203.46094 174.00391 C 212.5778 169.94393 221.69497 165.88464 230.8125 161.82617 C 219.7187 136.91112 208.6255 111.9958 197.5332 87.080078 z M 348.83203 103.30859 L 348.24414 104.11719 L 347.6582 104.92578 C 332.01965 126.45191 316.38016 147.97735 300.74219 169.50391 C 308.81742 175.36774 316.89003 181.2352 324.96484 187.09961 C 340.99322 165.03402 357.02573 142.97142 373.05469 120.90625 C 364.97929 115.04199 356.90701 109.17343 348.83203 103.30859 z M 80.478516 222.17383 L 80.373047 223.16797 L 80.269531 224.16211 C 79.296207 233.42448 78.323025 242.68686 77.349609 251.94922 C 104.47266 254.80012 131.5957 257.65105 158.71875 260.50195 C 159.76216 250.5768 160.8062 240.65171 161.84961 230.72656 L 80.478516 222.17383 z M 353.28125 251.49805 L 353.17578 252.49219 L 353.07227 253.48633 C 352.09834 262.7487 351.12417 272.01105 350.15039 281.27344 L 431.52148 289.82617 C 432.56458 279.90105 433.6073 269.9759 434.65039 260.05078 C 407.52734 257.19988 380.4043 254.34895 353.28125 251.49805 z M 187.03516 324.90039 L 186.44727 325.70898 L 185.86133 326.51758 C 170.22278 348.04306 154.58323 369.56781 138.94531 391.09375 C 147.02071 396.95801 155.09299 402.82657 163.16797 408.69141 C 179.1964 386.6252 195.2288 364.56188 211.25781 342.49609 C 203.18258 336.63226 195.10997 330.7648 187.03516 324.90039 z M 308.53906 337.99609 L 307.625 338.40234 L 306.71289 338.81055 L 306.71094 338.81055 C 298.20306 342.59817 289.69573 346.387 281.1875 350.17383 C 292.2813 375.08888 303.3745 400.0042 314.4668 424.91992 C 323.58366 420.85994 332.70083 416.80066 341.81836 412.74219 C 330.72456 387.82714 319.63136 362.91182 308.53906 337.99609 z " />
</svg>
