<svg xmlns="http://www.w3.org/2000/svg" height="512" width="512"><path d="M 256,35.832768 1.9608885,103.57652 l 0,304.84695 L 256,476.16723 l 254.03911,-67.74376 0,-304.84695 z m 0,25.898279 c -170.365563,300.494413 415.67879,674.404663 0,0 z" style="isolation:auto;mix-blend-mode:normal;filter-blend-mode:normal;filter-gaussianBlur-deviation:0" color="#000" overflow="visible" fill="#fff" fill-opacity=".785"/><path style="isolation:auto;mix-blend-mode:normal;filter-blend-mode:normal;filter-gaussianBlur-deviation:0" d="M 256,35.832768 1.9608885,103.57652 l 0,304.84695 L 256,476.16723 l 254.03911,-67.74376 0,-304.84695 L 256,35.832768 Z M 35.766613,383.51387 35.568145,154.38435 239.06298,208.64976 239.06352,437.72582 35.766613,383.51387 Z m -0.198468,-263.0014 84.814115,-22.616888 220.29745,58.746018 0,0.0715 L 256,179.29452 35.568145,120.51249 Z m 440.665235,263.0014 -203.29691,54.21195 5.1e-4,-229.07606 67.74273,-18.06483 0,82.5627 67.74376,-18.06587 0,-82.56167 68.00838,-18.13574 -0.19847,229.12952 z m -67.80991,-244.86565 0,-0.0661 L 188.11545,79.83345 256,61.731047 476.43185,120.51251 408.42347,138.64827 Z" color="#000" overflow="visible" fill="#004abc"/></svg>