<svg xmlns="http://www.w3.org/2000/svg" height="512" width="512"><path d="M 237.43622,261.12507 86.315945,229.00288 237.43622,135.64032 l 0,125.48475 z M 506.14591,95.374131 c -0.52079,-1.65848 -1.80488,-2.900476 -3.39269,-3.273325 L 308.20119,46.330432 c -1.5774,-0.375335 -3.21717,0.17334 -4.32805,1.434034 L 243.01372,116.83713 173.74183,48.734613 c -1.43653,-1.41158 -3.5405,-1.700879 -5.25994,-0.725747 L 7.6697066,139.30519 c -1.2921784,0.73447 -2.1882742,2.0862 -2.4134531,3.64493 -0.2251789,1.55872 0.2436547,3.14238 1.2702385,4.26714 l 65.929996,72.447 -0.04504,235.22138 c 0,2.37923 1.554311,4.42927 3.712549,4.89439 l 200.445943,43.25769 c 0.30256,0.0636 0.60395,0.0949 0.90649,0.0949 1.05777,0 2.09358,-0.39032 2.92732,-1.12976 1.07163,-0.94771 1.69173,-2.36304 1.69173,-3.85816 l 0,-223.42498 c 0,-2.3842 -1.56355,-4.43547 -3.72873,-4.89561 l -28.83325,-6.12517 0,-131.02383 188.00337,49.07362 -139.60035,85.68116 c -1.44577,0.88661 -2.33493,2.5426 -2.33493,4.33575 l 0,220.42723 c 0,1.76199 0.8603,3.39802 2.2691,4.2921 0.72404,0.46263 1.53583,0.69581 2.34994,0.69581 0.76677,0 1.53237,-0.20699 2.22638,-0.6185 l 145.22521,-86.33837 c 1.47464,-0.87663 2.39035,-2.55006 2.39035,-4.36692 l 0.0716,-235.36977 55.16414,-70.28596 c 1.04391,-1.336769 1.36839,-3.168589 0.84759,-4.827049 z"/></svg>