<?xml version="1.0" encoding="UTF-8" standalone="no"?>
<svg
   xmlns:dc="http://purl.org/dc/elements/1.1/"
   xmlns:cc="http://creativecommons.org/ns#"
   xmlns:rdf="http://www.w3.org/1999/02/22-rdf-syntax-ns#"
   xmlns:svg="http://www.w3.org/2000/svg"
   xmlns="http://www.w3.org/2000/svg"
   xmlns:sodipodi="http://sodipodi.sourceforge.net/DTD/sodipodi-0.dtd"
   xmlns:inkscape="http://www.inkscape.org/namespaces/inkscape"
   height="512"
   width="512"
   id="svg2"
   version="1.1"
   inkscape:version="0.91 r13725"
   sodipodi:docname="package.svg">
  <metadata
     id="metadata12">
    <rdf:RDF>
      <cc:Work
         rdf:about="">
        <dc:format>image/svg+xml</dc:format>
        <dc:type
           rdf:resource="http://purl.org/dc/dcmitype/StillImage" />
      </cc:Work>
    </rdf:RDF>
  </metadata>
  <defs
     id="defs10" />
  <sodipodi:namedview
     pagecolor="#ffffff"
     bordercolor="#666666"
     borderopacity="1"
     objecttolerance="10"
     gridtolerance="10"
     guidetolerance="10"
     inkscape:pageopacity="0"
     inkscape:pageshadow="2"
     inkscape:window-width="1920"
     inkscape:window-height="1032"
     id="namedview8"
     showgrid="false"
     inkscape:zoom="1.0828958"
     inkscape:cx="491.38983"
     inkscape:cy="176.81356"
     inkscape:window-x="-4"
     inkscape:window-y="-4"
     inkscape:window-maximized="1"
     inkscape:current-layer="svg2" />
  <path
     d="M 256,35.832768 1.9608885,103.57652 l 0,304.84695 L 256,476.16723 l 254.03911,-67.74376 0,-304.84695 z m 0,25.898279 z"
     style="color:#000000;overflow:visible;isolation:auto;mix-blend-mode:normal;fill:#ffffff;fill-opacity:0.78500001;stroke:#1a1a1a"
     overflow="visible"
     id="path4"
     inkscape:connector-curvature="0"
     sodipodi:nodetypes="ccccccccc" />
  <path
     style="isolation:auto;mix-blend-mode:normal;filter-blend-mode:normal;filter-gaussianBlur-deviation:0"
     d="M 256,35.832768 1.9608885,103.57652 l 0,304.84695 L 256,476.16723 l 254.03911,-67.74376 0,-304.84695 L 256,35.832768 Z M 35.766613,383.51387 35.568145,154.38435 239.06298,208.64976 239.06352,437.72582 35.766613,383.51387 Z m -0.198468,-263.0014 84.814115,-22.616888 220.29745,58.746018 0,0.0715 L 256,179.29452 35.568145,120.51249 Z m 440.665235,263.0014 -203.29691,54.21195 5.1e-4,-229.07606 67.74273,-18.06483 0,82.5627 67.74376,-18.06587 0,-82.56167 68.00838,-18.13574 -0.19847,229.12952 z m -67.80991,-244.86565 0,-0.0661 L 188.11545,79.83345 256,61.731047 476.43185,120.51251 408.42347,138.64827 Z"
     color="#000"
     overflow="visible"
     fill="#004abc"
     id="path6" />
</svg>
