<?xml version="1.0" encoding="utf-8"?>
<!DOCTYPE svg PUBLIC "-//W3C//DTD SVG 1.1//EN" "http://www.w3.org/Graphics/SVG/1.1/DTD/svg11.dtd">
<svg width="512" height="512" viewBox="0 0 512 512" xmlns="http://www.w3.org/2000/svg" xmlns:xlink="http://www.w3.org/1999/xlink" fill="#000000">
  <path
     d="M 176 0 C 131.817 0 96 35.817 96 80 L 96 134.40039 L 32 144 L 32 480 L 96 480 L 128 512 L 448 464 L 448 128 L 352 96 L 352 80 C 352 35.817 316.183 0 272 0 C 253.989 0 237.371 5.9540469 224 15.998047 C 210.629 5.9540469 194.011 -1.1842379e-015 176 0 z M 176 32 C 185.86 32 195.03302 34.992328 202.66602 40.111328 C 195.89402 51.855328 192 65.469 192 80 L 192 120 L 128 129.59961 L 128 80 C 128 53.533 149.533 32 176 32 z M 272 32 C 298.468 32 320 53.533 320 80 L 320 100.80078 L 256 110.40039 L 256 80 C 256 65.469 252.10598 51.854375 245.33398 40.109375 C 252.96698 34.991375 262.14 32 272 32 z M 416 165.1582 L 416 436.44141 L 412 437.04297 L 412 165.75781 L 416 165.1582 z M 404 166.95703 L 404 438.24219 L 396 439.44141 L 396 410.06836 L 388 411.25391 L 388 440.64258 L 380 441.8418 L 380 412.43945 L 372 413.625 L 372 443.04297 L 364 444.24219 L 364 414.81055 L 356 415.99609 L 356 445.44141 L 348 446.64258 L 348 417.18164 L 340 418.36719 L 340 447.8418 L 332 449.04297 L 332 419.55273 L 329.85938 419.86914 L 324 409.7207 L 324 450.24219 L 316 451.44141 L 316 395.86328 L 308 382.00781 L 308 452.64258 L 300 453.8418 L 300 368.15234 L 296.4043 361.92383 C 296.4043 361.92383 294.44975 358.87168 292 355.59766 L 292 455.04297 L 284 456.24219 L 284 347.49219 C 281.37824 345.84159 279.84386 345.30677 276.84375 345.75 L 276 345.875 L 276 457.44141 L 268 458.64062 L 268 347.05664 L 260 348.23828 L 260 459.8418 L 252 461.04297 L 252 431.33008 L 244 432.51562 L 244 462.24219 L 236 463.44141 L 236 433.70117 L 228 434.88672 L 228 464.64062 L 220 465.8418 L 220 436.07227 L 212 437.25781 L 212 467.04297 L 204 468.24219 L 204 438.44336 L 196.55078 439.54688 L 196.55078 230.32227 L 204 229.22266 L 204 196.95703 L 212 195.75781 L 212 228.03906 L 220 226.85742 L 220 194.55859 L 228 193.35742 L 228 225.67578 L 236 224.49414 L 236 192.1582 L 244 190.95703 L 244 223.3125 L 252 222.13086 L 252 189.75781 L 260 188.55859 L 260 220.94727 L 268 219.76562 L 268 187.35742 L 276 186.1582 L 276 218.58398 L 284 217.40234 L 284 184.95703 L 292 183.75781 L 292 216.2207 L 300 215.03906 L 300 182.55859 L 308 181.35742 L 308 213.85547 L 316 212.67383 L 316 180.1582 L 324 178.95703 L 324 211.50391 C 324.70783 211.42268 327.65117 211.14103 332 211.22266 L 332 177.75781 L 340 176.55859 L 340 211.79492 C 342.5407 212.11667 345.2399 212.60296 348 213.30469 L 348 175.35742 L 356 174.1582 L 356 215.99219 C 358.74048 217.16161 361.44114 218.59545 364 220.375 L 364 172.95703 L 372 171.75781 L 372 227.79492 C 375.53616 232.17541 378.35742 237.68948 380 244.61914 L 380 170.55859 L 388 169.35742 L 388 388.625 L 396 400.94531 L 396 168.1582 L 404 166.95703 z M 64 172 L 96 172 L 96 180 L 64 180 L 64 172 z M 64 188 L 96 188 L 96 196 L 64 196 L 64 188 z M 196 198.1582 L 196 469.44141 L 188 470.64062 L 188 199.35742 L 196 198.1582 z M 180 200.55859 L 180 471.8418 L 172 473.04297 L 172 201.75781 L 180 200.55859 z M 164 202.95703 L 164 474.24219 L 160 474.8418 L 160 203.55859 L 164 202.95703 z M 64 204 L 96 204 L 96 212 L 64 212 L 64 204 z M 64 220 L 96 220 L 96 228 L 64 228 L 64 220 z M 64 236 L 96 236 L 96 244 L 64 244 L 64 236 z M 64 252 L 96 252 L 96 260 L 64 260 L 64 252 z M 300 260.4375 C 299.21988 260.51697 298.7207 260.61133 298.7207 260.61133 L 292 261.59961 L 292 297.14453 L 298.7207 296.15039 C 298.7207 296.15039 299.21978 296.06536 300 295.87109 L 300 260.4375 z M 308 261.25781 L 308 292.27734 C 311.43646 289.90463 314.78908 286.1526 316 280.27734 L 316 270.6543 C 314.78927 265.09103 311.43672 262.45544 308 261.25781 z M 284 262.77539 L 276 263.95312 L 276 299.51367 L 284 298.33008 L 284 262.77539 z M 268 265.12891 L 260.39258 266.24805 L 260.375 301.82812 L 268 300.69922 L 268 265.12891 z M 64 268 L 96 268 L 96 276 L 64 276 L 64 268 z M 380 274.60352 C 378.35365 282.26758 375.52869 288.87058 372 294.53516 L 372 363.98633 L 380 376.30469 L 380 274.60352 z M 64 284 L 96 284 L 96 292 L 64 292 L 64 284 z M 64 300 L 96 300 L 96 308 L 64 308 L 64 300 z M 364 304.82227 C 361.43128 307.51655 358.73015 309.89399 356 312.00391 L 356 339.22461 C 356.75628 340.32264 357.13867 341.09961 357.13867 341.09961 L 364 351.66602 L 364 304.82227 z M 64 316 L 96 316 L 96 324 L 64 324 L 64 316 z M 348 317.43359 C 345.20518 319.09633 342.50399 320.48821 340 321.64453 L 340 329.45703 C 341.42472 329.8406 342.80937 330.24178 344.01367 330.67383 C 345.07289 331.05386 346.49819 331.63936 348 332.41016 L 348 317.43359 z M 332 324.87305 C 328.50096 326.08206 326.26188 326.59871 326.25781 326.59961 C 326.25781 326.59961 328.77344 327.00111 332 327.63086 L 332 324.87305 z M 64 332 L 96 332 L 96 340 L 64 340 L 64 332 z M 64 348 L 96 348 L 96 356 L 64 356 L 64 348 z M 64 364 L 96 364 L 96 372 L 64 372 L 64 364 z M 64 380 L 96 380 L 96 388 L 64 388 L 64 380 z M 64 396 L 96 396 L 96 404 L 64 404 L 64 396 z M 64 412 L 96 412 L 96 420 L 64 420 L 64 412 z M 64 428 L 96 428 L 96 436 L 64 436 L 64 428 z M 64 444 L 96 444 L 96 448 L 64 448 L 64 444 z "
     id="path4" />
</svg>
