<?xml version="1.0" encoding="UTF-8" standalone="no"?>
<svg
   xmlns:dc="http://purl.org/dc/elements/1.1/"
   xmlns:cc="http://creativecommons.org/ns#"
   xmlns:rdf="http://www.w3.org/1999/02/22-rdf-syntax-ns#"
   xmlns:svg="http://www.w3.org/2000/svg"
   xmlns="http://www.w3.org/2000/svg"
   width="512"
   height="512"
   viewBox="0 0 512 512"
   fill="#000000"
   id="svg2"
   version="1.1">
  <path
     d="m 187.9827,193.62372 c -2.45234,-0.057 -4.95063,0.5961 -7.17969,2.02539 l -36.03711,23.10742 -12.95312,-20.19922 c -12.20733,7.82744 -24.41571,15.65499 -36.623048,23.48242 l 0.0352,0.0527 C 72.22089,238.30552 65.54901,270.03761 78.74446,297.01235 40.50015,322.16674 16.4633,352.12681 6.0374305,382.56899 c -10.5831999,30.90159 -6.54103004,62.49962 10.7050795,86.43359 34.49221,47.86798 115.41594,61.77693 216.90625,10.47071 68.03581,-34.39402 155.60915,-7.6545 198.48635,13.26367 l 13.3457,6.51172 13.0234,-26.69336 -13.3476,-6.50977 C 397.35731,442.72612 302.37131,411.45199 220.24833,452.96747 126.20437,500.50935 63.75303,483.44232 40.83817,451.6413 29.38074,435.74079 26.21056,415.33056 34.13505,392.19208 c 7.8205,-22.83487 27.05206,-48.1261 61.113282,-70.48633 19.197578,20.83794 49.109768,26.78482 72.361318,13.27344 l 0.0352,0.0566 c 12.20734,-7.82743 24.41377,-15.65497 36.62109,-23.48242 l -12.95312,-20.20313 36.03906,-23.10742 c 5.94414,-3.81144 7.66104,-11.66328 3.84961,-17.60742 -3.81143,-5.94415 -11.66522,-7.66105 -17.60937,-3.84961 l -36.03711,23.10742 -19.0293,-29.67773 36.03711,-23.10743 c 5.94415,-3.81144 7.66105,-11.66523 3.84961,-17.60937 -2.38215,-3.71509 -6.34245,-5.78005 -10.42969,-5.875 z m 105.68266,-123.269595 58.85546,0.0371 c 0,0 27.26954,-1.47726 27.26954,26.75781 0,27.678605 -27.26954,27.763665 -27.26954,27.763665 l -58.88476,0.0195 0.0293,-54.578115 z m -98.04102,-69.58594026 0,175.65624526 c 10.95221,-1.69581 22.55409,2.99546 28.83008,12.7832 8.4469,13.17338 4.49173,31.26796 -8.68164,39.71484 l 1.75586,2.74024 c 13.17338,-8.44689 31.26991,-4.49177 39.71679,8.68164 8.44688,13.17338 4.4873,31.26759 -8.68359,39.71289 l -22.57031,14.47266 12.95312,20.20117 -10.91601,7 64.8164,-0.0274 -0.0215,-125.65625 26.10547,0 c 5.33933,0 7.64092,1.55795 13.04101,5.92969 6.47354,5.24124 16.99414,23.31641 16.99414,23.31641 l 51.37693,96.47851 109.8672,-0.0488 -67.9766,-114.60937 c 0,0 -2.0713,-4.57501 -6.3222,-9.08984 -4.3394,-4.60968 -10.355,-8.12139 -13.832,-9.88086 -10.0209,-5.07048 -27.2696,-10.27344 -27.2696,-10.27344 l 0,-0.002 c 0,0 84.9688,-6.29638 84.9688,-90.896475 0,-84.6001203 -88.9219,-86.20313026 -88.9219,-86.20313026 l -195.23047,0 z"
      />
</svg>
