<?xml version="1.0" encoding="utf-8"?>
<!DOCTYPE svg PUBLIC "-//W3C//DTD SVG 1.1//EN" "http://www.w3.org/Graphics/SVG/1.1/DTD/svg11.dtd">
<svg 
xmlns="http://www.w3.org/2000/svg" 
xmlns:xlink="http://www.w3.org/1999/xlink" 
width="512" 
height="512" 
viewBox="0 0 512 512" 
fill="#000000">
  <path
     id="path4737"
     d="M 204.84961 -0.38867188 L 204.84961 238.20703 L 205.41992 237.63672 C 218.70143 224.35496 240.99586 224.35534 254.27734 237.63672 C 267.55901 250.91824 267.55879 273.21236 254.27734 286.49414 L 254.27539 286.49609 L 232.47461 308.29688 L 236.44141 312.26367 L 299.54688 312.23828 L 299.52734 189.83594 L 324.95312 189.83594 C 330.15373 189.83594 332.3983 191.35276 337.6582 195.61133 C 343.9637 200.71686 354.21094 218.32422 354.21094 218.32422 L 404.25391 312.30469 L 511.26953 312.25781 L 445.05859 200.61523 C 445.05859 200.61523 443.03894 196.15965 438.89844 191.76172 C 434.67164 187.27139 428.81248 183.85064 425.42578 182.13672 C 415.66498 177.19752 398.86523 172.12695 398.86523 172.12695 C 398.86523 172.12695 481.62891 165.99374 481.62891 83.583984 C 481.62891 1.1742148 395.01563 -0.38867187 395.01562 -0.38867188 L 204.84961 -0.38867188 z M 300.3457 67.396484 L 357.67383 67.433594 C 357.67383 67.433594 384.23633 65.993997 384.23633 93.498047 C 384.23633 120.46006 357.67383 120.54297 357.67383 120.54297 L 300.31641 120.56055 L 300.3457 67.396484 z M 163.52734 190.19531 C 161.08399 190.19531 158.63974 191.12785 156.77539 192.99219 L 117.29492 232.47266 L 93.894531 209.07227 C 90.165831 205.34361 84.121278 205.34361 80.392578 209.07227 C 76.663878 212.80094 76.663878 218.84556 80.392578 222.57422 L 97.222656 239.4043 L 63.771484 272.85352 C 43.358273 293.26666 39.541975 323.9846 52.306641 348.25977 C 42.798845 357.49885 32.966185 367.59045 25.111328 380.625 C 15.300149 396.90592 9.6371522 417.96074 12.589844 442.96484 C 15.104161 464.25669 26.533369 481.55604 41.369141 492.31836 C 56.204912 503.08068 73.778135 508.25441 91.279297 510.55273 C 126.28162 515.14939 160.41974 509.88527 182.41797 497.5 C 264.2766 451.41259 314.56705 437.69396 353.47461 440.41992 C 392.38217 443.14588 423.92687 462.57026 468.95898 490.61914 L 484.74609 500.45312 L 504.41406 468.87695 L 488.625 459.04492 C 443.66342 431.03998 405.76492 406.792 356.07422 403.31055 C 306.38352 399.82909 248.921 417.36785 164.16602 465.08594 C 155.79855 469.79692 122.70305 477.16052 96.123047 473.66992 C 82.833048 471.92462 71.028777 467.87691 63.212891 462.20703 C 55.397004 456.53715 50.901933 450.19425 49.533203 438.60352 C 47.432016 420.81016 50.731836 410.18235 56.972656 399.82617 C 61.967338 391.53787 69.563037 383.53591 78.433594 374.80273 C 102.84516 388.14071 134.07037 384.48566 154.73633 363.82031 L 188.1875 330.36914 L 205.01562 347.19922 C 206.88002 349.06355 209.32388 349.99609 211.76758 349.99609 C 214.21138 349.99609 216.65513 349.06355 218.51953 347.19922 C 222.24863 343.47056 222.24863 337.42593 218.51953 333.69727 L 195.11914 310.29688 L 234.59961 270.81641 C 238.32881 267.08775 238.32831 261.04311 234.59961 257.31445 C 230.87091 253.58579 224.82626 253.58579 221.09766 257.31445 L 181.61719 296.79492 L 130.79688 245.97461 L 170.27734 206.49414 C 174.00654 202.76548 174.00654 196.72086 170.27734 192.99219 C 168.41299 191.12785 165.97069 190.19531 163.52734 190.19531 z "
      />
</svg>
