<?xml version="1.0" encoding="UTF-8" standalone="no"?>
<svg
   xmlns:dc="http://purl.org/dc/elements/1.1/"
   xmlns:cc="http://creativecommons.org/ns#"
   xmlns:rdf="http://www.w3.org/1999/02/22-rdf-syntax-ns#"
   xmlns:svg="http://www.w3.org/2000/svg"
   xmlns="http://www.w3.org/2000/svg"
   xmlns:sodipodi="http://sodipodi.sourceforge.net/DTD/sodipodi-0.dtd"
   xmlns:inkscape="http://www.inkscape.org/namespaces/inkscape"
   version="1.1"
   id="svg2"
   fill="#000000"
   viewBox="0 0 512 512"
   height="512"
   width="512"
   inkscape:version="0.91 r13725"
   sodipodi:docname="R-connect.svg">
  <sodipodi:namedview
     pagecolor="#ffffff"
     bordercolor="#666666"
     borderopacity="1"
     objecttolerance="10"
     gridtolerance="10"
     guidetolerance="10"
     inkscape:pageopacity="0"
     inkscape:pageshadow="2"
     inkscape:window-width="1920"
     inkscape:window-height="1032"
     id="namedview9"
     showgrid="false"
     inkscape:zoom="0.921875"
     inkscape:cx="597.0766"
     inkscape:cy="134.26445"
     inkscape:window-x="-4"
     inkscape:window-y="-4"
     inkscape:window-maximized="1"
     inkscape:current-layer="svg2" />
  <metadata
     id="metadata10">
    <rdf:RDF>
      <cc:Work
         rdf:about="">
        <dc:format>image/svg+xml</dc:format>
        <dc:type
           rdf:resource="http://purl.org/dc/dcmitype/StillImage" />
        <dc:title></dc:title>
      </cc:Work>
    </rdf:RDF>
  </metadata>
  <defs
     id="defs8">
    <linearGradient
       gradientTransform="matrix(1.2454532,0,0,1.2708754,-372.97519,-191.49609)"
       spreadMethod="pad"
       gradientUnits="userSpaceOnUse"
       y2="553.44208"
       y1="151.4006"
       x2="703.0675"
       x1="301.02603"
       id="gradientFill-2">
      <stop
         id="stop12"
         stop-opacity="1"
         stop-color="rgb(39,109,195)"
         offset="0" />
      <stop
         id="stop14"
         stop-opacity="1"
         stop-color="rgb(22,92,170)"
         offset="1" />
    </linearGradient>
  </defs>
  <path
     style="fill:#000000;fill-opacity:1;fill-rule:evenodd;stroke:none;stroke-width:2.5;stroke-miterlimit:4;stroke-dasharray:none;stroke-opacity:1"
     d="m 116.66518,2.5184388 0,146.4906812 c 1.53314,0.72084 2.63946,1.58606 3.7094,2.45856 2.9244,2.38477 5.82046,5.47356 10.70716,10.72359 l 2.48732,2.67011 c 3.35162,-3.12226 9.02236,-8.4185 14.96907,-13.98933 7.90272,-7.40321 12.28432,-11.9297 19.00505,-14.5131 1.68019,-0.64586 3.63892,-1.02271 5.61341,-1.09064 1.97448,-0.0679 3.96386,0.17274 5.69966,0.76611 3.47161,1.18676 5.74841,3.04232 7.83576,4.81853 1.60859,1.36879 3.39022,2.86561 4.86783,5.52304 1.47758,2.65742 1.82548,5.37381 1.98203,7.31816 0.26795,3.32686 0.56792,5.30898 -1.02696,9.71716 -1.0914,3.01645 -1.51793,2.83979 -2.00874,3.46088 -0.49082,0.62108 -0.97736,1.17798 -1.54046,1.80335 -1.12618,1.25071 -2.53463,2.72218 -4.22288,4.43239 -3.3765,3.42044 -7.83995,7.7514 -12.73233,12.32772 -5.70208,5.33367 -7.8279,7.45098 -10.14439,9.74386 3.14963,3.42182 5.94752,6.49521 10.4915,11.29458 2.56226,2.70627 4.7595,4.99638 6.88273,7.20726 2.90743,-2.65852 6.26854,-5.74974 10.20189,-9.42346 4.64152,-4.33517 8.99658,-8.33967 12.31538,-11.33565 1.65941,-1.49799 3.05531,-2.7379 4.14074,-3.6786 0.54272,-0.47036 1.00005,-0.86208 1.43981,-1.22004 0.43974,-0.35795 -0.54877,-0.19029 2.51812,-1.65958 2.43463,-1.16639 3.05678,-1.05687 4.2537,-1.28165 1.19691,-0.22478 2.43738,-0.39386 3.74433,-0.49911 15.8689,-1.27802 26.83493,16.19744 19.25561,30.08192 -1.15774,2.12091 -1.33835,1.953 -1.77664,2.45034 -0.4383,0.49733 -0.9002,0.9898 -1.44186,1.55483 -1.08336,1.13005 -2.46794,2.51709 -4.11814,4.13868 -3.30042,3.24316 -7.64121,7.39038 -12.29896,11.73001 -3.91761,3.65004 -7.20189,6.77181 -10.02114,9.47275 1.10945,1.21651 1.9939,2.21139 3.27397,3.58823 l 0.002,0 c 3.66837,3.94604 6.11656,6.67176 7.96104,9.0599 1.84423,2.38779 4.16193,4.31435 3.95999,9.96568 l 0,0.002 c -0.13026,3.63891 -1.4191,5.27332 -2.35176,6.64653 -0.93288,1.37353 -1.90543,2.49416 -3.11992,3.81005 -2.42901,2.63176 -5.85106,5.94919 -11.01936,10.81807 -12.51494,11.78986 -20.45598,19.00274 -27.39332,24.1789 -6.93733,5.17617 -13.04173,8.19563 -19.96835,10.73592 -13.4133,4.91928 -28.06967,6.22576 -42.13234,4.07911 l 0,78.06798 121.8907,-0.0513 -0.0246,-157.54906 32.72738,0 c 6.69412,0 9.58096,1.95181 16.35137,7.43319 8.11617,6.57157 21.30751,29.2357 21.30751,29.2357 l 64.41343,120.9685 137.74708,-0.0616 -85.22593,-143.69939 c 0,0 -2.59661,-5.7365 -7.92614,-11.39728 -5.44052,-5.77971 -12.98406,-10.18328 -17.34342,-12.38933 -12.56372,-6.35748 -34.18772,-12.88227 -34.18772,-12.88227 0,0 106.52933,-7.89531 106.52933,-113.96869 C 472.92415,4.5292212 361.43866,2.5184388 361.43867,2.5184388 Z m 122.91975,87.2490632 73.79168,0.04724 c 0,0 34.18773,-1.852755 34.18773,33.54895 0,34.70393 -34.18773,34.81009 -34.18773,34.81009 l -73.82866,0.0246 z m -66.11204,55.080348 c -3.87219,0.14537 -8.59364,3.97493 -18.31903,13.08562 -6.85411,6.42087 -14.6257,13.68273 -17.26948,16.13775 l -4.80621,4.46321 -9.07838,-9.75003 c -9.65921,-10.37737 -11.74809,-12.08207 -13.6977,-11.17135 -2.36125,1.10302 -36.000861,33.2382 -39.895612,38.11075 -12.234984,15.30672 -17.536475,32.98543 -15.917988,53.08187 0.771317,9.57717 2.795422,17.30941 6.835492,26.11166 1.214005,2.64502 1.846854,4.08581 2.218248,4.9541 -24.61084,19.2252 -43.686015,43.83224 -53.6158931,71.00243 -10.32885575,28.26189 -10.26991782,59.97034 5.2087761,87.88168 30.957392,55.8227 114.251177,73.11287 273.503107,65.9575 75.41614,-3.38853 127.20538,-11.31789 160.68336,-18.60248 16.739,-3.64229 28.90307,-7.12481 37.12076,-9.78904 4.10883,-1.33213 7.23692,-2.46207 9.41112,-3.28425 1.0871,-0.41108 1.943,-0.74735 2.49964,-0.9674 0.55664,-0.22006 2.29599,-0.68952 -0.48884,0.12734 l -9.55901,-32.59388 c -3.0192,0.88561 -1.92425,0.67312 -2.44007,0.87704 -0.5158,0.2039 -2.02518,0.78459 -2.02518,0.78459 -1.72486,0.66825 -4.3081,1.58838 -7.87273,2.74407 -7.12924,2.31135 -18.18289,5.49919 -33.86732,8.91202 C 410.73111,459.7467 360.85323,467.46683 287.1142,470.78 133.5464,477.67997 65.544601,459.6136 44.841161,422.28094 34.489442,403.61461 34.196742,383.42049 41.830095,362.53404 c 4.326536,-11.83827 11.368641,-23.67455 20.543447,-34.62727 11.62191,-10.87183 21.655335,-20.20734 22.619972,-21.02611 l 1.951245,-1.65548 5.325846,3.11993 c 18.391905,10.76935 42.841475,12.85427 63.195435,5.38952 12.86311,-4.71747 19.15213,-9.41143 44.05895,-32.87527 10.22747,-9.63491 13.40374,-13.07382 13.45737,-14.57881 0.054,-1.50731 -2.13828,-4.34549 -9.33924,-12.09152 -5.17587,-5.56712 -9.43027,-10.35034 -9.45425,-10.62911 -0.0239,-0.27877 7.48641,-7.52348 16.69027,-16.09873 9.20387,-8.57526 17.18558,-16.42017 17.73777,-17.43174 3.85554,-7.06293 -2.07005,-16.44051 -9.98622,-15.80296 -1.84681,0.14872 -3.91452,0.5368 -4.59465,0.86264 -0.68015,0.32584 -8.77653,7.6347 -17.99042,16.24046 -9.21392,8.60576 -16.97129,15.66423 -17.24072,15.6859 -0.39942,0.0322 -25.6753,-26.66285 -29.55405,-31.21364 -0.99262,-1.16461 0.61811,-2.9032 16.15008,-17.43175 9.62334,-9.00161 17.59045,-17.07205 18.01711,-18.25124 0.42065,-1.16266 0.63516,-3.70405 0.47857,-5.64833 -0.24684,-3.06481 -0.70928,-3.89649 -3.47526,-6.25012 -2.60932,-2.22037 -4.62514,-3.45978 -6.94846,-3.37256 z m 0.88935,73.25972 c -0.22864,0.13454 -0.3017,0.20496 -0.35533,0.31836 0.0832,-0.0732 0.26416,-0.23771 0.35533,-0.31836 z"
     id="path18"
     inkscape:connector-curvature="0"
     sodipodi:nodetypes="ccsccsscsssccscsscscsssssssscssscccsccsssssccccsccccccccsccccscccsscccsssscsssssssccsssssssccccsscccssssscsscsssccc" />
</svg>
