<svg xmlns="http://www.w3.org/2000/svg" height="16" width="16"><g fill="#0055d4"><path d="M 8.2531415,1.3501013 A 7.3222755,5.5559205 0 0 0 0.93040603,6.9060935 7.3222755,5.5559205 0 0 0 6.3387424,12.267546 l 0,-1.686609 A 3.9216684,5.632926 89.041177 0 1 3.8525502,7.3505017 3.9216684,5.632926 89.041177 0 1 9.4851804,3.3793858 3.9216684,5.632926 89.041177 0 1 15.117812,7.2541241 3.9216684,5.632926 89.041177 0 1 13.127595,10.256108 c 0.106982,0.162528 0.213855,0.356766 0.319066,0.562204 A 7.3222755,5.5559205 0 0 0 15.574298,6.9060935 7.3222755,5.5559205 0 0 0 8.2531415,1.3501013 Z m 4.4985235,9.1130417 a 3.9216684,5.632926 89.041177 0 1 -1.674311,0.583619 c 0.06889,0.120278 0.138475,0.226882 0.205341,0.371232 l 0.213238,0.462256 a 7.3222755,5.5559205 0 0 0 1.60323,-0.81564 C 12.98125,10.832032 12.865069,10.629871 12.751665,10.463143 Z m -5.9959255,0.290917 0,1.584876 a 7.3222755,5.5559205 0 0 0 1.497402,0.12315 7.3222755,5.5559205 0 0 0 0.4012027,-0.01428 l 0,-1.263618 A 3.9216684,5.632926 89.041177 0 1 6.7557395,10.75406 Z m 3.8809245,0.373016 a 3.9216684,5.632926 89.041177 0 1 -1.1514836,0.09638 3.9216684,5.632926 89.041177 0 1 -0.4138383,-0.01073 l 0,1.21186 A 7.3222755,5.5559205 0 0 0 11.097889,12.024797 L 10.908344,11.6143 c -0.09124,-0.196952 -0.18247,-0.349702 -0.27168,-0.487243 z" overflow="visible" fill-rule="evenodd" color="#000" opacity=".626" transform="translate(-.813 -.199) scale(1.07271)"/><path style="line-height:125%" d="M 6.2109375 5.4785156 L 6.2109375 14.517578 L 8.6953125 14.517578 L 8.6953125 11.097656 L 9.3984375 11.097656 C 9.8028721 11.097656 10.126248 11.180216 10.367188 11.345703 C 10.61243 11.51119 10.853207 11.819422 11.089844 12.271484 L 12.263672 14.517578 L 14.910156 14.517578 L 13.560547 11.951172 C 13.285187 11.430493 13.013245 11.043347 12.742188 10.789062 C 12.475434 10.530741 12.171929 10.365622 11.832031 10.292969 C 12.45159 10.111337 12.913273 9.828758 13.21875 9.4453125 C 13.52853 9.0618667 13.683594 8.5700244 13.683594 7.9726562 C 13.683594 7.1088942 13.386713 6.4777159 12.792969 6.078125 C 12.203527 5.6785341 11.275095 5.4785156 10.005859 5.4785156 L 6.2109375 5.4785156 z M 8.6953125 7.1679688 L 9.7402344 7.1679688 C 10.260836 7.1679687 10.633692 7.2579509 10.857422 7.4355469 C 11.085453 7.6131428 11.199219 7.9066596 11.199219 8.3183594 C 11.199219 8.7340953 11.085453 9.0332116 10.857422 9.2148438 C 10.633692 9.396476 10.260836 9.4863281 9.7402344 9.4863281 L 8.6953125 9.4863281 L 8.6953125 7.1679688 z"/></g></svg>