<svg xmlns="http://www.w3.org/2000/svg" height="16" width="16"><g fill="#0055d4"><path style="isolation:auto;mix-blend-mode:normal" d="M 8.2531415,1.3501013 A 7.3222755,5.5559205 0 0 0 0.93040603,6.9060935 7.3222755,5.5559205 0 0 0 6.3387424,12.267546 l 0,-1.686609 A 3.9216684,5.632926 89.041177 0 1 3.8525502,7.3505017 3.9216684,5.632926 89.041177 0 1 9.4851804,3.3793858 3.9216684,5.632926 89.041177 0 1 15.117812,7.2541241 3.9216684,5.632926 89.041177 0 1 13.127595,10.256108 c 0.106982,0.162528 0.213855,0.356766 0.319066,0.562204 A 7.3222755,5.5559205 0 0 0 15.574298,6.9060935 7.3222755,5.5559205 0 0 0 8.2531415,1.3501013 Z m 4.4985235,9.1130417 a 3.9216684,5.632926 89.041177 0 1 -1.674311,0.583619 c 0.06889,0.120278 0.138475,0.226882 0.205341,0.371232 l 0.213238,0.462256 a 7.3222755,5.5559205 0 0 0 1.60323,-0.81564 C 12.98125,10.832032 12.865069,10.629871 12.751665,10.463143 Z m -5.9959255,0.290917 0,1.584876 a 7.3222755,5.5559205 0 0 0 1.497402,0.12315 7.3222755,5.5559205 0 0 0 0.4012027,-0.01428 l 0,-1.263618 A 3.9216684,5.632926 89.041177 0 1 6.7557395,10.75406 Z m 3.8809245,0.373016 a 3.9216684,5.632926 89.041177 0 1 -1.1514836,0.09638 3.9216684,5.632926 89.041177 0 1 -0.4138383,-0.01073 l 0,1.21186 A 7.3222755,5.5559205 0 0 0 11.097889,12.024797 L 10.908344,11.6143 c -0.09124,-0.196952 -0.18247,-0.349702 -0.27168,-0.487243 z" color="#000" overflow="visible" opacity=".626" fill-rule="evenodd" transform="translate(-.813 -.199) scale(1.07271)"/><text transform="matrix(1.10753 0 0 1.039 -.813 -.199)" y="14.165" x="5.246" style="line-height:125%" font-weight="400" font-size="11.934" font-family="sans-serif" letter-spacing="0" word-spacing="0" stroke-width=".5"><tspan style="-inkscape-font-specification:'sans-serif Bold'" y="14.165" x="5.246" font-weight="700">R</tspan></text></g></svg>