<?xml version="1.0" encoding="UTF-8" standalone="no"?>
<svg
   xmlns:dc="http://purl.org/dc/elements/1.1/"
   xmlns:cc="http://creativecommons.org/ns#"
   xmlns:rdf="http://www.w3.org/1999/02/22-rdf-syntax-ns#"
   xmlns:svg="http://www.w3.org/2000/svg"
   xmlns="http://www.w3.org/2000/svg"
   version="1.1"
   id="svg2"
   fill="#000000"
   viewBox="0 0 512 512"
   height="512"
   width="512">
  
  <defs
     id="defs8">
    <linearGradient
       gradientTransform="matrix(1.2454532,0,0,1.2708754,-372.97519,-191.49609)"
       spreadMethod="pad"
       gradientUnits="userSpaceOnUse"
       y2="553.44208"
       y1="151.4006"
       x2="703.0675"
       x1="301.02603"
       id="gradientFill-2">
      <stop
         id="stop12"
         stop-opacity="1"
         stop-color="rgb(39,109,195)"
         offset="0" />
      <stop
         id="stop14"
         stop-opacity="1"
         stop-color="rgb(22,92,170)"
         offset="1" />
    </linearGradient>
  </defs>
  <path
     id="path7"
     d="m 331.11594,286.61491 c 0,0 27.01679,8.1527 42.71282,16.09492 5.4462,2.75595 14.86901,8.25547 21.66593,15.4759 6.65823,7.07185 9.9044,14.23782 9.9044,14.23782 L 511.87162,511.94389 339.78231,512.02069 259.3089,360.8992 c 0,0 -16.47849,-28.31343 -26.61813,-36.52309 -8.45836,-6.84776 -12.06481,-9.28553 -20.42787,-9.28553 -5.82131,0 -40.88792,0 -40.88792,0 l 0.0321,196.82117 -152.280458,0.0644 0,-502.7659247 305.798978,0 c 0,0 139.2809,2.5120507 139.2809,135.0265347 0,132.51447 -133.09064,142.37819 -133.09064,142.37819 z m -66.23582,-168.34798 -92.1891,-0.0594 -0.0458,85.48884 92.23493,-0.0297 c 0,0 42.71281,-0.13257 42.71281,-43.48727 0,-44.22637 -42.71281,-41.91242 -42.71281,-41.91242 z" />
  <path
     style="opacity:0.8;fill:#2066b9;fill-opacity:1;fill-rule:evenodd;stroke:#044898;stroke-width:2.5;stroke-miterlimit:4;stroke-dasharray:none;stroke-opacity:1"
     id="path18"
     d="m 316.71846,281.73276 c 0,0 27.22636,8.21583 43.04415,16.21954 5.48845,2.7773 14.98435,8.3194 21.834,15.59574 6.70988,7.12661 9.98123,14.34807 9.98123,14.34807 L 498.87632,508.8065 325.45206,508.8838 244.35438,356.59216 c 0,0 -16.60631,-28.53266 -26.82462,-36.8059 -8.52397,-6.90078 -12.15839,-9.35743 -20.58633,-9.35743 -5.86647,0 -41.20511,0 -41.20511,0 l 0.0323,198.34519 -153.4617545,0.0649 0,-506.658906 308.1711745,0 c 0,0 140.36136,2.5315016 140.36136,136.072066 0,133.54055 -134.12308,143.48065 -134.12308,143.48065 z m -66.74964,-169.65153 -92.90424,-0.0599 -0.0462,86.15079 92.95042,-0.0299 c 0,0 43.04416,-0.1336 43.04416,-43.82399 0,-44.56883 -43.04416,-42.23696 -43.04416,-42.23696 z" />
</svg>
