<?xml version="1.0" encoding="UTF-8" standalone="no"?>
<svg
   xmlns:dc="http://purl.org/dc/elements/1.1/"
   xmlns:cc="http://creativecommons.org/ns#"
   xmlns:rdf="http://www.w3.org/1999/02/22-rdf-syntax-ns#"
   xmlns:svg="http://www.w3.org/2000/svg"
   xmlns="http://www.w3.org/2000/svg"
   version="1.1"
   id="svg2"
   fill="#000000"
   viewBox="0 0 512 512"
   height="512"
   width="512">
  <metadata
     id="metadata10">
    <rdf:RDF>
      <cc:Work
         rdf:about="">
        <dc:format>image/svg+xml</dc:format>
        <dc:type
           rdf:resource="http://purl.org/dc/dcmitype/StillImage" />
        <dc:title></dc:title>
      </cc:Work>
    </rdf:RDF>
  </metadata>
  <defs
     id="defs8">
    <linearGradient
       gradientTransform="matrix(1.2454532,0,0,1.2708754,-372.97519,-191.49609)"
       spreadMethod="pad"
       gradientUnits="userSpaceOnUse"
       y2="553.44208"
       y1="151.4006"
       x2="703.0675"
       x1="301.02603"
       id="gradientFill-2">
      <stop
         id="stop12"
         stop-opacity="1"
         stop-color="rgb(39,109,195)"
         offset="0" />
      <stop
         id="stop14"
         stop-opacity="1"
         stop-color="rgb(22,92,170)"
         offset="1" />
    </linearGradient>
  </defs>
  <path
     style="fill:#2066b9;fill-rule:evenodd;stroke:#044898;stroke-opacity:1;stroke-width:2.5000001;stroke-miterlimit:4;stroke-dasharray:none;fill-opacity:1"
     id="path18"
     d="m 318.97985,282.80761 c 0,0 27.45426,8.28459 43.40445,16.35529 5.53439,2.80054 15.10979,8.38903 22.01677,15.72627 6.76605,7.18625 10.06477,14.46815 10.06477,14.46815 l 108.19662,182.4245 -174.87591,0.078 -81.7765,-153.56623 c 0,0 -16.74532,-28.77146 -27.04915,-37.11394 -8.59533,-6.95854 -12.26017,-9.43575 -20.75866,-9.43575 -5.91557,0 -41.55001,0 -41.55001,0 l 0.0326,200.00522 -154.7463078,0.0654 0,-510.89934737 310.7507278,0 c 0,0 141.53625,2.55268917 141.53625,137.21091737 0,134.6582 -135.24575,144.68149 -135.24575,144.68149 z m -67.30836,-171.0714 -93.68191,-0.0604 -0.0465,86.87181 93.72846,-0.0302 c 0,0 43.40446,-0.13471 43.40446,-44.19077 0,-44.94184 -43.40446,-42.59046 -43.40446,-42.59046 z" />
</svg>
