<?xml version="1.0" encoding="UTF-8" standalone="no"?>
<svg
   xmlns:dc="http://purl.org/dc/elements/1.1/"
   xmlns:cc="http://creativecommons.org/ns#"
   xmlns:rdf="http://www.w3.org/1999/02/22-rdf-syntax-ns#"
   xmlns:svg="http://www.w3.org/2000/svg"
   xmlns="http://www.w3.org/2000/svg"
   width="512"
   height="512"
   viewBox="0 0 512 512"
   fill="#000000"
   id="svg2"
   version="1.1">
  <path
     id="path4"
     d="m 488.65173,23.703717 0,461.774333 -448.419268,0 0,26.67255 470.158178,0 0,-488.446883 z" />
  <path
     id="path6"
     d="m 0.43382822,0.22039059 0,438.52506941 446.47653178,0 0,-438.52506941 -446.47653178,0 z M 45.390453,39.151618 l 213.296457,0 c 0,0 97.1474,1.673597 97.1474,89.926652 0,88.25305 -92.83008,94.82094 -92.83008,94.82094 0,0 18.845,5.43079 29.79299,10.72019 3.79875,1.83544 10.36975,5.49721 15.11061,10.30594 4.64411,4.70975 6.91006,9.48304 6.91006,9.48304 l 74.26446,119.55853 -120.03232,0.0505 -56.13096,-100.64498 c 0,0 -11.4932,-18.85579 -18.56561,-24.32336 -5.89973,-4.56052 -8.41706,-6.1858 -14.25028,-6.1858 l -28.51822,0 0.0217,131.08103 -106.216108,0.0431 0,-334.835919 z m 107.111777,72.591402 -0.0314,56.93379 64.33345,-0.0186 c 0,0 29.793,-0.089 29.793,-28.96271 0,-29.45422 -29.793,-27.91299 -29.793,-27.91299 l -64.30203,-0.0393 z" />
</svg>
