<svg width="512" height="512" xmlns="http://www.w3.org/2000/svg"><path d="m 369.6192,0 -354.221387,64 0,352 118.266417,96 354.22139,-64 0,-352 z m -8.73229,26.052734 95.68868,75.603516 -291.60351,52.6875 -95.688684,-75.605469 z m 91.57657,100.822266 0,270.79492 -4.42777,-5.92187 0,-264.07227 z m -13.2833,2.40039 0,250.62891 -8.85554,-11.84375 0,-237.18555 z m -17.71108,3.19922 0,73.99219 c -2.06448,-4.53679 -4.67746,-8.51514 -7.73562,-11.93946 -0.36578,-0.40958 -0.74341,-0.80231 -1.11991,-1.19531 l 0,-59.25781 z m -17.71106,3.20117 0,50.35742 c -2.85115,-1.84819 -5.83119,-3.3923 -8.85554,-4.67968 l 0,-44.07813 z m -17.71107,3.20117 0,39.41993 c -0.29317,-0.0801 -0.58755,-0.16418 -0.87994,-0.24024 -2.69086,-0.69999 -5.35878,-1.22885 -7.97559,-1.64648 l 0,-35.9336 z m -17.71107,3.19727 0,33.33789 c -2.65812,-0.17773 -5.19422,-0.25305 -7.52591,-0.24609 -0.45996,0.001 -0.88498,0.0148 -1.32962,0.0215 l 0,-31.51172 8.85553,-1.60156 z m -17.71108,3.20117 0,30.41016 c -2.95153,0.29328 -4.82557,0.59961 -4.82557,0.59961 l -0.0692,0.0117 -3.96078,0.73632 0,-30.1582 8.85553,-1.59961 z m -17.71106,3.19922 0,30.20508 -8.85554,1.64648 0,-30.25195 z m -17.71107,3.20117 0,30.29883 -8.85553,1.64648 0,-30.3457 z m -17.71107,3.20117 0,30.39063 -8.85553,1.64648 0,-30.4375 z m -17.71106,3.19727 0,30.48633 -8.85555,1.64648 0,-30.53125 z m -17.71108,3.20117 0,30.58008 -8.85554,1.64648 0,-30.62695 z m -17.71107,3.19922 0,30.67383 -8.85553,1.64648 0,-30.7207 z m -17.71107,3.20117 0,30.76563 -8.85553,1.64648 0,-30.8125 z m -17.71106,3.19922 0,30.85938 -8.85554,1.64843 0,-30.9082 z m -17.71107,3.19922 0,30.95508 -8.44692,1.57031 0,247.3125 8.44692,-1.57422 0,24.78711 -8.85554,1.59961 0,-303.04883 z m -17.71108,3.20117 0,303.04883 -4.42776,0.80078 0,-303.05078 z m 187.52071,5.26563 c 1.06654,-0.002 2.18684,0.0192 3.33163,0.0547 0.18988,0.006 0.38331,0.0161 0.57509,0.0234 1.00983,0.0371 2.04295,0.0934 3.10031,0.16602 0.1002,0.007 0.19348,0.008 0.29403,0.0156 l 0,0.006 c 2.83664,0.20371 5.81224,0.54848 8.85554,1.08594 l 0,-0.006 c 0.45874,0.081 0.92053,0.17389 1.38151,0.26367 0.612,0.11954 1.22296,0.24854 1.83769,0.38477 0.62117,0.13702 1.24337,0.28061 1.86581,0.43554 0.35788,0.0895 0.71443,0.17977 1.07234,0.27539 0.90068,0.23981 1.80035,0.49176 2.69818,0.77344 l 0,0.004 c 4.65553,1.46059 9.23584,3.49208 13.426,6.28515 0.001,8.6e-4 0.003,0.001 0.004,0.002 l 0.009,0.006 c 0.70103,0.46762 1.38941,0.9575 2.06687,1.46875 0.0524,0.0395 0.10558,0.0774 0.15783,0.11718 0.67552,0.51471 1.34032,1.05106 1.98904,1.61133 0.0193,0.0167 0.0391,0.0321 0.0584,0.0488 l 0,0.004 c 3.42471,2.96926 6.44709,6.59131 8.85553,10.99414 0.90076,1.64667 1.71424,3.40451 2.43009,5.27734 0.0283,0.074 0.0563,0.14827 0.0843,0.22266 0.6938,1.8442 1.29259,3.79984 1.78582,5.875 0.0262,0.10969 0.0501,0.22167 0.0756,0.33203 0.21623,0.93649 0.41133,1.89584 0.58375,2.88086 0.0232,0.13212 0.049,0.26152 0.0713,0.39453 0.17787,1.05992 0.33315,2.14673 0.45834,3.26367 0.0201,0.17883 0.0331,0.36461 0.0519,0.54492 0.0981,0.9477 0.17674,1.91707 0.23566,2.90625 0.0155,0.26035 0.0305,0.51994 0.0432,0.78321 0.057,1.17805 0.0951,2.3741 0.0951,3.61132 0,1.25988 -0.0387,2.49396 -0.0951,3.7168 -0.0127,0.27536 -0.0277,0.54877 -0.0432,0.82227 -0.0628,1.10805 -0.14336,2.20356 -0.25079,3.28125 -0.0102,0.10214 -0.0175,0.20672 -0.0281,0.30859 -0.12342,1.18888 -0.27849,2.35559 -0.45402,3.50781 -0.0322,0.21082 -0.0677,0.41931 -0.10161,0.62891 -0.17267,1.07032 -0.36373,2.12721 -0.57941,3.16601 -0.0155,0.0745 -0.0297,0.15032 -0.0454,0.22461 -0.24865,1.1785 -0.52454,2.33628 -0.82588,3.47461 -0.003,0.0115 -0.006,0.0236 -0.009,0.0352 -0.006,0.023 -0.0133,0.0454 -0.0194,0.0684 -0.30524,1.14584 -0.63669,2.27129 -0.99236,3.37695 -0.72495,2.25362 -1.5512,4.42326 -2.46683,6.51367 -10e-4,0.003 -0.003,0.005 -0.004,0.008 -2.41273,5.5064 -5.43889,10.45783 -8.85553,14.89453 -10e-4,0.002 -0.003,0.004 -0.004,0.006 -2.74004,3.55739 -5.73386,6.76905 -8.85121,9.6914 -4.93214,4.62361 -10.1734,8.48024 -15.27882,11.66602 -0.1307,0.0817 -0.26083,0.16524 -0.39133,0.24609 -0.68425,0.42303 -1.36364,0.83527 -2.04092,1.23438 -3.07251,1.81056 -6.05671,3.3807 -8.85553,4.72461 -9.79727,4.70434 -17.15181,6.658 -17.71108,6.80273 -0.0223,0.006 -0.15783,0.043 -0.15783,0.043 0,0 0.14968,0.0149 0.15783,0.0156 0.24613,0.0216 4.05084,0.36623 8.85554,1.00781 l 0,-0.002 c 0.0447,0.006 0.0935,0.0135 0.13837,0.0195 1.26327,0.16957 2.55868,0.3609 3.88943,0.57031 0.20749,0.0328 0.40629,0.0638 0.614,0.0976 1.43127,0.23147 2.84272,0.48191 4.21374,0.75782 1.40534,0.28281 2.76421,0.58016 3.97374,0.9082 1.2977,0.35199 3.04266,0.90627 4.88179,1.66016 0.004,0.002 0.008,0.004 0.0129,0.006 0.47854,0.19637 0.96043,0.40789 1.44637,0.63281 0.0594,0.0274 0.11791,0.0523 0.1773,0.0801 0.40627,0.19094 0.80799,0.39613 1.21071,0.60742 0.13781,0.0721 0.27609,0.1384 0.41293,0.21289 0.37236,0.20329 0.73483,0.42128 1.09614,0.64258 0.14057,0.0859 0.28543,0.16521 0.42375,0.2539 0.49008,0.31483 0.9662,0.64431 1.41827,0.99414 0.49858,0.38574 0.94885,0.779 1.37286,1.16993 0.0861,0.0799 0.16353,0.15678 0.24647,0.23632 0.37767,0.35964 0.72317,0.7097 1.03776,1.05274 1.60181,1.7466 2.40846,3.17773 2.40846,3.17773 l 6.44708,8.62305 8.85553,11.84375 8.85553,11.8418 8.85554,11.84375 8.85553,11.84375 8.85554,11.84375 3.72511,4.98242 -3.72511,0.69336 -8.85554,1.65039 -8.85553,1.65039 -8.85554,1.65039 -8.85553,1.65039 -8.85553,1.65039 -8.85554,1.65039 -8.85553,1.65039 -8.85553,1.65039 -8.85554,1.65039 -4.58127,0.85352 -4.27427,-6.45703 -8.85553,-13.37891 -8.85554,-13.37695 -8.85553,-13.37891 -8.85554,-13.3789 -1.45719,-2.20118 c 0,0 -0.88033,-1.19117 -2.17929,-2.83007 -0.0215,-0.0272 -0.0409,-0.0546 -0.0627,-0.082 -0.0138,-0.0174 -0.0336,-0.0411 -0.0476,-0.0586 -0.96149,-1.20828 -2.15866,-2.66296 -3.45702,-4.14258 -0.12764,-0.14567 -0.25537,-0.28972 -0.38484,-0.43554 -0.41582,-0.4677 -0.83786,-0.93667 -1.26693,-1.39649 l 0,-0.002 c -2.13324,-2.2862 -4.37741,-4.39357 -6.21573,-5.39649 -0.99415,-0.54229 -1.84814,-0.99143 -2.6398,-1.36718 -0.22736,-0.10792 -0.4423,-0.20062 -0.65941,-0.29493 -0.15336,-0.0666 -0.30682,-0.13166 -0.45618,-0.1914 -0.19919,-0.0798 -0.39596,-0.15304 -0.59023,-0.22071 -0.16552,-0.0576 -0.32948,-0.10753 -0.49294,-0.15624 -0.17676,-0.0528 -0.3535,-0.10786 -0.52968,-0.1504 -0.30916,-0.0744 -0.61896,-0.13527 -0.93399,-0.17773 -0.004,-4.8e-4 -0.007,-10e-4 -0.0108,-0.002 -0.13694,-0.0185 -0.28001,-0.0227 -0.41944,-0.0352 -0.22769,-0.0201 -0.45679,-0.037 -0.69399,-0.041 -0.14718,-0.003 -0.29993,4e-4 -0.45186,0.004 -0.26139,0.006 -0.53178,0.0202 -0.81074,0.0449 -0.13627,0.0119 -0.2696,0.0228 -0.4108,0.0391 -0.42557,0.0495 -0.86702,0.11193 -1.34691,0.20117 -0.14931,0.0278 -0.82817,0.15433 -1.04857,0.19531 -1.86119,0.34611 -4.71918,0.8773 -8.85553,1.64648 -4.13604,0.76925 -7.44142,1.38348 -8.85554,1.64649 -0.34322,0.0638 -2.14903,0.40039 -2.14903,0.40039 l 0.0152,90.9375 -6.72166,1.25195 -8.85553,1.65039 -8.85553,1.65039 -8.85554,1.65039 -8.85553,1.6504 -8.85554,1.65039 -8.85553,1.65039 -8.85553,1.65039 -8.85554,1.65039 -0.30917,0.0566 0,-232.30274 0.30917,-0.0566 8.85554,-1.64843 8.85553,-1.64649 8.85553,-1.64648 8.85554,-1.64649 8.85553,-1.64648 2.25712,-0.41992 6.59842,-1.22657 8.85553,-1.64648 8.85553,-1.64648 8.85554,-1.64649 8.85554,-1.64844 8.85553,-1.64648 8.85554,-1.64649 8.85553,-1.64648 8.85553,-1.64648 8.85554,-1.64649 8.85553,-1.64648 8.85553,-1.64649 5.53256,-1.02929 c 0,0 5.6337,-0.95677 13.733,-0.96875 z m -39.37427,56.50195 c -2.93308,0.0654 -5.06555,0.56641 -5.06555,0.56641 l -1.39233,0.25781 -8.85553,1.64062 -8.85554,1.64258 -4.44506,0.82422 -4.41047,0.81641 -8.85553,1.64257 -8.85555,1.64063 -1.47664,0.27344 -0.0238,39.50586 1.50042,-0.2793 8.85555,-1.65039 8.85553,-1.64844 1.26692,-0.23633 7.58861,-1.41211 8.85554,-1.65039 4.07536,-0.75781 4.78017,-0.89063 1.39232,-0.25976 c 0,0 3.37455,-0.65558 7.46321,-2.63867 0.0161,-0.008 0.0336,-0.0176 0.0497,-0.0254 0.65248,-0.31773 1.32306,-0.67615 1.99985,-1.06446 0.27792,-0.15963 0.55485,-0.32572 0.83453,-0.49804 1.68104,-1.03498 3.37907,-2.29391 4.938,-3.8418 0.34978,-0.34731 0.6929,-0.70793 1.02694,-1.08398 0.002,-0.003 0.004,-0.005 0.006,-0.008 3.16363,-3.56436 5.5239,-8.41846 5.5239,-14.99609 0,-6.70978 -2.36035,-10.65183 -5.5239,-12.93555 l 0,0.0137 c -2.3302,-1.68379 -5.08953,-2.47102 -7.67725,-2.77929 -1.25621,-0.14788 -2.47469,-0.19252 -3.57593,-0.16797 z m 2.39765,7.45312 c 0.48784,0.047 0.97056,0.11249 1.42691,0.21875 1.45538,0.33889 2.34019,0.79102 3.10248,1.68164 0.76228,0.89063 1.71448,2.58991 1.71446,6.51563 0,6.77125 -2.81553,10.23047 -6.24385,12.72851 z m -8.85553,0.87305 0,24.4375 c -0.077,0.0172 -0.2724,0.0664 -0.2724,0.0664 l -8.58313,1.59765 0,-24.45898 8.85553,-1.64258 z m -17.71107,3.2832 0,24.46875 -8.85553,1.64844 0,-24.47461 z m -17.71106,3.28321 0,24.48437 -2.21389,0.41211 0.0152,-24.48828 2.19876,-0.4082 z m 141.68854,7.22656 0,95.05469 -8.85553,-11.84375 0,-66.61524 c 3.47408,-4.98268 6.50478,-10.50759 8.85553,-16.5957 z m -17.71106,27.31836 0,44.04883 -8.37341,-11.19922 c 0.18772,0.30493 0.35024,0.58203 0.35024,0.58203 l -0.53617,-0.83008 0.18593,0.24805 c -0.10859,-0.17639 -0.31283,-0.47281 -0.48213,-0.72656 l 0,-24.06836 c 3.01976,-2.43304 6.00074,-5.10284 8.85554,-8.05469 z m -17.71107,14.4707 0,9.21485 c -3.16304,-1.9513 -6.24541,-3.07471 -8.85553,-3.88282 l 0,-0.13476 c 2.87458,-1.53591 5.84802,-3.25396 8.85553,-5.19727 z m -93.58199,39.6211 c 0.14402,-0.007 0.13448,0.0255 0.21836,0.0469 0.16779,0.0427 1.17713,0.4473 3.243,1.57422 0.0309,0.0169 0.70695,0.61518 1.56528,1.4043 l 0,112.32812 -8.85553,1.59961 0,-116.27148 c 0.67809,-0.12606 2.30661,-0.4288 2.68952,-0.5 0.69777,-0.12976 0.99536,-0.17505 1.13937,-0.18164 z m -12.68442,2.32812 0,116.22461 -8.85555,1.59961 0,-25.23633 6.00388,-1.11914 -0.0173,-90.93555 c 1.09328,-0.2033 1.71549,-0.31875 2.86898,-0.5332 z m 26.5666,10.59766 c 0.162,0.21638 0.53794,0.70741 0.54913,0.72265 l 8.3064,12.54883 0,85.95508 -8.85553,1.59961 z m 17.71106,26.65039 8.85554,13.37695 0,56 -8.85554,1.59961 z m 128.40526,21.59179 0,26.1836 -4.42777,0.80078 0,-26.1582 z m -13.2833,2.47657 0,26.10742 -8.85554,1.60156 0,-26.05859 z m -97.41089,2.6875 8.85553,13.3789 0,26.04102 -8.85553,1.60156 z m 79.69981,0.61328 0,26.00781 -8.85553,1.59961 0,-25.95703 z m -17.71106,3.30078 0,25.90625 -8.85554,1.59961 0,-25.85547 z m -17.71107,3.30078 0,25.80664 -8.85553,1.59961 0,-25.75586 z m -17.71107,3.30078 0,25.70508 -8.85553,1.59961 0,-25.6543 z m -106.26642,19.71875 0,25.18555 -8.85554,1.60156 0,-25.13867 z m -17.71107,3.29883 0,25.08594 -8.85553,1.60156 0,-25.03711 z m -17.71107,3.30078 0,24.98633 -8.85553,1.59961 0,-24.93555 z m -17.71106,3.30078 0,24.88477 -8.85554,1.59961 0,-24.83594 z"/></svg>