<?xml version="1.0" encoding="UTF-8" standalone="no"?>
<!-- Generator: IcoMoon.io -->

<svg
   xmlns:dc="http://purl.org/dc/elements/1.1/"
   xmlns:cc="http://creativecommons.org/ns#"
   xmlns:rdf="http://www.w3.org/1999/02/22-rdf-syntax-ns#"
   xmlns:svg="http://www.w3.org/2000/svg"
   xmlns="http://www.w3.org/2000/svg"
   xmlns:sodipodi="http://sodipodi.sourceforge.net/DTD/sodipodi-0.dtd"
   xmlns:inkscape="http://www.inkscape.org/namespaces/inkscape"
   sodipodi:docname="R_disabled.svg"
   inkscape:version="0.91 r13725"
   version="1.1"
   id="svg2"
   fill="#000000"
   viewBox="0 0 512 512"
   height="512"
   width="512">
  <metadata
     id="metadata10">
    <rdf:RDF>
      <cc:Work
         rdf:about="">
        <dc:format>image/svg+xml</dc:format>
        <dc:type
           rdf:resource="http://purl.org/dc/dcmitype/StillImage" />
        <dc:title></dc:title>
      </cc:Work>
    </rdf:RDF>
  </metadata>
  <defs
     id="defs8">
    <linearGradient
       id="gradientFill-2"
       x1="301.02603"
       x2="703.0675"
       y1="151.4006"
       y2="553.44208"
       gradientUnits="userSpaceOnUse"
       spreadMethod="pad"
       gradientTransform="matrix(1.2454532,0,0,1.2708754,-372.97519,-191.49609)">
      <stop
         offset="0"
         stop-color="rgb(39,109,195)"
         stop-opacity="1"
         id="stop12"
         style="stop-color:#494949;stop-opacity:1" />
      <stop
         offset="1"
         stop-color="rgb(22,92,170)"
         stop-opacity="1"
         id="stop14"
         style="stop-color:#b9b9b9;stop-opacity:1" />
    </linearGradient>
  </defs>
  <sodipodi:namedview
     inkscape:current-layer="svg2"
     inkscape:window-maximized="1"
     inkscape:window-y="-4"
     inkscape:window-x="-4"
     inkscape:cy="253.83184"
     inkscape:cx="158.08276"
     inkscape:zoom="0.921875"
     showgrid="false"
     id="namedview6"
     inkscape:window-height="1032"
     inkscape:window-width="1920"
     inkscape:pageshadow="2"
     inkscape:pageopacity="0"
     guidetolerance="10"
     gridtolerance="10"
     objecttolerance="10"
     borderopacity="1"
     bordercolor="#666666"
     pagecolor="#ffffff" />
  <path
     d="m 318.97985,282.80761 c 0,0 27.45426,8.28459 43.40445,16.35529 5.53439,2.80054 15.10979,8.38903 22.01677,15.72627 6.76605,7.18625 10.06477,14.46815 10.06477,14.46815 l 108.19662,182.4245 -174.87591,0.078 -81.7765,-153.56623 c 0,0 -16.74532,-28.77146 -27.04915,-37.11394 -8.59533,-6.95854 -12.26017,-9.43575 -20.75866,-9.43575 -5.91557,0 -41.55001,0 -41.55001,0 l 0.0326,200.00522 -154.7463078,0.0654 0,-510.89934737 310.7507278,0 c 0,0 141.53625,2.55268917 141.53625,137.21091737 0,134.6582 -135.24575,144.68149 -135.24575,144.68149 z m -67.30836,-171.0714 -93.68191,-0.0604 -0.0465,86.87181 93.72846,-0.0302 c 0,0 43.40446,-0.13471 43.40446,-44.19077 0,-44.94184 -43.40446,-42.59046 -43.40446,-42.59046 z"
     id="path18"
     style="fill:url(#gradientFill-2);fill-rule:evenodd"
     inkscape:connector-curvature="0" />
</svg>
