<svg xmlns="http://www.w3.org/2000/svg" height="1024" width="896"><g><path d="m 431.379,0.222 -394.7,0 C 16.458,0.222 0,16.671 0,36.895 l 0,394.268 c 0,20.221 16.458,36.677 36.679,36.677 l 394.7,0 c 20.228,0 36.683,-16.456 36.683,-36.677 l 0,-394.268 C 468.056,16.665 451.594,0.222 431.379,0.222 Z m -24.866,41.744 c 8.683,0 15.717,7.04 15.717,15.72 0,8.683 -7.034,15.717 -15.717,15.717 -8.683,0 -15.717,-7.04 -15.717,-15.717 0,-8.68 7.034,-15.72 15.717,-15.72 z m -56.324,0 c 8.683,0 15.716,7.04 15.716,15.72 0,8.683 -7.033,15.717 -15.716,15.717 -8.689,0 -15.723,-7.04 -15.723,-15.717 0.013,-8.68 7.04,-15.72 15.723,-15.72 z m 75.954,383.955 -384.23,0 0,-313.495 384.229,0 0,313.495 z" transform="matrix(1.9141 0 0 1.64198 -1.092 126.776)"/></g></svg>