<svg xmlns="http://www.w3.org/2000/svg" height="512" width="512"><path d="m 37.851143,96.67796 c -20.273231,0 -36.766423,16.49317 -36.766423,36.7664 l 0,245.11128 c 0,20.27423 16.493192,36.7664 36.766423,36.7664 l 436.297737,0 c 20.27423,0 36.7664,-16.49217 36.7664,-36.7664 l 0,-245.11128 c 0,-20.27323 -16.49217,-36.7664 -36.7664,-36.7664 l -436.297737,0 z m 313.742097,63.72881 63.72881,0 0,95.59323 47.79662,0 -80.1132,111.46319 L 303.79663,256 l 47.79661,0 0,-95.59323 z m -280.164274,0.0632 121.337194,0 2.06835,0 c 3.33217,0.44858 6.09023,0.62844 8.27338,0.53872 l 8.27242,1.07648 1.3789,0.53775 2.06835,0 1.3789,0.53872 10.34076,2.69167 c 21.14209,8.70248 35.16029,20.72382 42.05445,36.06528 13.55852,37.86024 -2.29741,64.95469 -47.56907,81.28303 0.4021,0.5703 0.75722,0.36825 1.16205,0.93839 20.02258,28.19934 43.32901,56.95759 60.88544,82.49759 l -4.82614,0 -68.86419,0 c -22.07502,-28.74961 -40.69847,-53.888 -59.97915,-80.20557 l -13.77926,0 0,80.20558 -64.202384,0 0,-2.15295 0,-197.55486 0,-6.45982 z m 64.228644,46.21351 0,35.29025 2.42426,0 48.10584,0 5.81802,-1.17565 c 9.61643,-4.83616 13.81866,-11.37149 12.60651,-19.60603 -2.34351,-5.88181 -6.54574,-10.19521 -12.60651,-12.94005 l -1.45378,0 -0.97048,-0.39286 -6.30326,-1.17566 -47.6206,0 z"/></svg>