<?xml version="1.0" encoding="utf-8"?>
<!DOCTYPE svg PUBLIC "-//W3C//DTD SVG 1.1//EN" "http://www.w3.org/Graphics/SVG/1.1/DTD/svg11.dtd">
<svg width="512" height="512" viewBox="0 0 512 512" xmlns="http://www.w3.org/2000/svg" xmlns:xlink="http://www.w3.org/1999/xlink" fill="#000000">
  <path
     id="path4151"
     d="M 157.83008 0 C 135.00789 0 113.95911 5.3472688 94.683594 16.042969 C 75.408094 26.738669 60.141656 41.244034 48.884766 59.558594 C 37.627867 77.87315 32 97.872201 32 119.55664 C 32 141.24107 37.627867 161.24207 48.884766 179.55664 C 60.141656 197.87119 75.408094 212.37657 94.683594 223.07227 C 113.95911 233.76797 135.00789 239.11523 157.83008 239.11523 C 180.65228 239.11523 201.70106 233.76797 220.97656 223.07227 C 240.25207 212.37657 255.5185 197.87119 266.77539 179.55664 C 278.03229 161.24207 283.66016 141.24107 283.66016 119.55664 C 283.66016 97.872201 278.03229 77.87315 266.77539 59.558594 C 255.5185 41.244034 240.25207 26.738669 220.97656 16.042969 C 201.70106 5.3472688 180.65228 0 157.83008 0 z M 259.2207 0 C 255.28368 -0.156403 255.7692 1.4468351 256.33594 2.0332031 C 265.9199 7.8780731 280.70541 20.081937 286.91992 32 L 298.99414 32 L 312 32 C 314.416 32 317.127 32.304564 320 32.851562 L 320 131.16797 L 320 160 L 347.84375 160 L 447.14844 160 C 447.22144 160.38129 447.2779 160.75171 447.3418 161.12695 C 447.75944 163.57915 448 165.90377 448 168 L 448 439.00586 L 448 472 C 448 476.336 444.336 480 440 480 L 72 480 C 67.664 480 64 476.336 64 472 L 64 314.10547 L 64 250.31055 C 51.999879 241.74445 41.232672 231.57133 32 220.07617 L 32 314.10547 L 32 472 C 32 494 50 512 72 512 L 440 512 C 459.9375 512 476.59003 497.21661 479.53711 478.07031 C 479.84198 476.08966 480 474.0625 480 472 L 480 434.87695 L 480 168 C 480 151.38878 472.74306 129.80457 462.49219 113.5293 C 462.43369 113.4364 462.37314 113.34645 462.31445 113.25391 C 461.9175 112.6281 461.51689 112.0096 461.11133 111.40039 C 461.00564 111.24157 460.89922 111.08538 460.79297 110.92773 C 460.44632 110.41362 460.09659 109.9054 459.74414 109.4043 C 459.58022 109.17112 459.41513 108.94118 459.25 108.71094 C 458.93964 108.27841 458.62697 107.8515 458.3125 107.42969 C 458.1374 107.1947 457.96344 106.96007 457.78711 106.72852 C 457.46451 106.3051 457.13904 105.89002 456.8125 105.47852 C 456.64405 105.26613 456.47609 105.05286 456.30664 104.84375 C 455.97933 104.44004 455.64926 104.0454 455.31836 103.6543 C 455.14018 103.44361 454.96238 103.23035 454.7832 103.02344 C 454.41559 102.59907 454.04542 102.1873 453.67383 101.7793 C 453.53863 101.63082 453.40523 101.47633 453.26953 101.33008 C 452.75521 100.77589 452.23784 100.23588 451.7168 99.714844 L 380.2832 28.283203 C 364.7272 12.727203 334 0 312 0 L 283.66602 0 L 259.2207 0 z M 165.23242 42.197266 C 167.08287 42.197266 168.93276 42.929371 170.7832 44.394531 L 244.57031 114.50195 C 245.95815 115.8206 246.65234 117.50541 246.65234 119.55664 C 246.65234 121.60787 245.95815 123.29268 244.57031 124.61133 L 170.55273 194.93945 C 169.1649 196.25811 167.39128 196.91797 165.23242 196.91797 C 163.22776 196.91797 161.49228 196.22199 160.02734 194.83008 C 158.5624 193.43817 157.83008 191.78947 157.83008 189.88477 L 157.83008 147.68945 L 76.410156 147.68945 C 74.405496 147.68945 72.671971 146.99347 71.207031 145.60156 C 69.742101 144.20966 69.009766 142.56097 69.009766 140.65625 L 69.009766 98.458984 C 69.009766 96.554274 69.742101 94.905572 71.207031 93.513672 C 72.671971 92.121762 74.405496 91.425781 76.410156 91.425781 L 157.83008 91.425781 L 157.83008 49.230469 C 157.83008 47.179239 158.52427 45.492478 159.91211 44.173828 C 161.29995 42.855178 163.07356 42.197266 165.23242 42.197266 z M 352 46.271484 C 354.17 47.786484 356.09125 49.347109 357.65625 50.912109 L 429.08984 122.34375 C 430.65484 123.90875 432.21352 125.83 433.72852 128 L 352 128 L 352 46.271484 z M 292.30859 206.41602 C 290.17989 206.41602 288.19367 206.80588 286.35156 207.58398 C 284.50945 208.36207 282.81145 209.52839 281.25586 211.08398 C 279.70027 212.63957 278.53396 214.33758 277.75586 216.17969 C 276.97777 218.0218 276.58789 220.00801 276.58789 222.13672 L 276.58789 332.17383 L 276.58789 442.21094 C 276.58789 444.33965 276.97777 446.32586 277.75586 448.16797 C 278.53396 450.01008 279.70027 451.70808 281.25586 453.26367 C 282.81146 454.81926 284.50945 455.98558 286.35156 456.76367 C 288.19366 457.54177 290.17989 457.93164 292.30859 457.93164 C 294.43729 457.93164 296.42352 457.54176 298.26562 456.76367 C 300.10773 455.98557 301.80573 454.81927 303.36133 453.26367 L 358.37891 398.24414 L 413.39844 343.22656 C 414.95403 341.67097 416.12034 339.97297 416.89844 338.13086 C 417.67653 336.28875 418.06641 334.30254 418.06641 332.17383 C 418.06641 330.04513 417.67653 328.05891 416.89844 326.2168 C 416.12034 324.37468 414.95403 322.67668 413.39844 321.12109 L 358.37891 266.10156 L 303.36133 211.08398 C 301.80574 209.52839 300.10773 208.36207 298.26562 207.58398 C 296.42352 206.80588 294.43729 206.41602 292.30859 206.41602 z " />
</svg>
