<svg width="512" height="512" xmlns="http://www.w3.org/2000/svg"><path d="M 146.44531 -0.1875 C 105.15865 -0.1875 77.027301 2.3086013 62.050781 7.3007812 C 45.725011 12.832651 31.625233 23.559479 19.751953 39.480469 C 7.8786636 55.671309 1.9414063 74.965951 1.9414062 97.363281 C 1.9414062 116.52244 6.259412 133.99322 14.894531 149.7793 C 23.799481 166.10506 36.751563 178.18224 53.751953 186.00781 C 66.974473 192.34923 83.502145 196.32818 103.33594 197.94727 L 103.33594 298.33203 C 103.33594 301.7051 104.51775 304.60454 106.87891 307.0332 C 109.24008 309.4618 112.17362 310.67578 115.68164 310.67578 L 137.53906 310.67578 C 141.04708 310.67578 143.98259 309.4618 146.34375 307.0332 C 148.70491 304.60454 149.88477 301.7051 149.88477 298.33203 L 149.88477 51.826172 L 178.82617 51.826172 L 178.82617 298.33203 C 178.82617 301.7051 180.04013 304.60454 182.46875 307.0332 C 184.89738 309.4618 187.79878 310.67578 191.17188 310.67578 L 213.0293 310.67578 C 216.40239 310.67578 219.30379 309.4618 221.73242 307.0332 C 224.16104 304.60454 225.375 301.7051 225.375 298.33203 L 225.375 65.183594 C 225.375 58.032644 225.57764 53.714629 225.98242 52.230469 C 226.79196 48.857379 228.95096 46.766571 232.45898 45.957031 C 232.99868 45.822111 236.64054 45.753906 243.38672 45.753906 C 246.6249 45.753906 249.49219 43.594904 251.98828 39.277344 C 254.48436 34.959794 255.73242 30.844431 255.73242 26.931641 L 255.73242 12.158203 C 255.73242 8.7851135 254.51846 5.8836981 252.08984 3.4550781 C 249.66121 1.0264481 246.75982 -0.1875 243.38672 -0.1875 L 146.44531 -0.1875 z M 285.66602 0 L 285.66602 32 L 312 32 C 314.416 32 317.127 32.304564 320 32.851562 L 320 160 L 447.14844 160 C 447.69544 162.873 448 165.583 448 168 L 448 439.00586 L 448 472 C 448 476.336 444.336 480 440 480 L 72 480 C 67.664 480 64 476.336 64 472 L 64 314.10547 L 64 230.91602 C 52.00131 224.64207 41.17858 226.37189 32 216.53711 L 32 314.10547 L 32 472 C 32 494 50 512 72 512 L 440 512 C 462 512 480 494 480 472 L 480 434.87695 L 480 168 C 480 146 467.2728 115.27084 451.7168 99.714844 L 380.2832 28.283203 C 364.7272 12.727203 334 0 312 0 L 285.66602 0 z M 352 46.271484 C 354.17 47.786484 356.09125 49.347109 357.65625 50.912109 L 429.08984 122.34375 C 430.65484 123.90875 432.21352 125.83 433.72852 128 L 352 128 L 352 46.271484 z M 292.30859 206.41602 C 290.17989 206.41602 288.19367 206.80588 286.35156 207.58398 C 284.50945 208.36207 282.81145 209.52839 281.25586 211.08398 C 279.70027 212.63957 278.53396 214.33758 277.75586 216.17969 C 276.97777 218.0218 276.58789 220.00801 276.58789 222.13672 L 276.58789 332.17383 L 276.58789 442.21094 C 276.58789 444.33965 276.97777 446.32586 277.75586 448.16797 C 278.53396 450.01008 279.70027 451.70808 281.25586 453.26367 C 282.81146 454.81926 284.50945 455.98558 286.35156 456.76367 C 288.19366 457.54177 290.17989 457.93164 292.30859 457.93164 C 294.43729 457.93164 296.42352 457.54176 298.26562 456.76367 C 300.10773 455.98557 301.80573 454.81927 303.36133 453.26367 L 358.37891 398.24414 L 413.39844 343.22656 C 414.95403 341.67097 416.12034 339.97297 416.89844 338.13086 C 417.67653 336.28875 418.06641 334.30254 418.06641 332.17383 C 418.06641 330.04513 417.67653 328.05891 416.89844 326.2168 C 416.12034 324.37468 414.95403 322.67668 413.39844 321.12109 L 358.37891 266.10156 L 303.36133 211.08398 C 301.80574 209.52839 300.10773 208.36207 298.26562 207.58398 C 296.42352 206.80588 294.43729 206.41602 292.30859 206.41602 z"/></svg>