<svg width="512" height="512" xmlns="http://www.w3.org/2000/svg"><path d="m 22.189453,-0.81054688 c -2.807227,0 -5.493521,0.54799771 -8.056641,1.64648438 C 10.105054,2.4226308 6.9015244,4.9262567 4.5214844,8.34375 2.1414444,11.761244 0.95117188,15.543546 0.95117188,19.693359 l 0,235.990231 c -2e-8,4.14982 1.19027252,7.93408 3.57031252,11.35157 2.38004,3.41751 5.5835696,5.91918 9.6113276,7.50586 2.56312,1.09848 5.249414,1.64843 8.056641,1.64843 5.736507,0 10.801386,-2.01523 15.195313,-6.04297 l 80.738284,-77.625 80.73828,77.625 c 4.27186,3.90567 9.33675,5.85938 15.19531,5.85938 3.05133,0 5.73567,-0.48844 8.05469,-1.46484 4.02776,-1.58668 7.23324,-4.08835 9.61328,-7.50586 2.38004,-3.41749 3.57031,-7.20175 3.57031,-11.35157 l 0,-235.990231 c 0,-4.149813 -1.19027,-7.932115 -3.57031,-11.349609 -2.38004,-3.4174933 -5.58552,-5.9211192 -9.61328,-7.5078125 -2.56312,-1.09848667 -5.24746,-1.64648438 -8.05469,-1.64648438 z M 277.66602,0 l 0,32 L 312,32 c 2.416,0 5.127,0.304564 8,0.851562 L 320,160 l 127.14844,0 c 0.547,2.873 0.85156,5.583 0.85156,8 l 0,304 c 0,4.336 -3.664,8 -8,8 l -368,0 c -4.336,0 -8,-3.664 -8,-8 l 0,-157.89453 -32,0 L 32,472 c 0,22 18,40 40,40 l 368,0 c 22,0 40,-18 40,-40 l 0,-304 c 0,-22 -12.7272,-52.72916 -28.2832,-68.285156 L 380.2832,28.283203 C 364.7272,12.727203 334,0 312,0 Z M 352,46.271484 c 2.17,1.515 4.09125,3.075625 5.65625,4.640625 l 71.43359,71.431641 c 1.565,1.565 3.12368,3.48625 4.63868,5.65625 L 352,128 Z M 292.30859,206.41602 c -2.1287,0 -4.11409,0.38919 -5.9562,1.16729 -1.84211,0.77809 -3.54094,1.94508 -5.09653,3.50067 -1.55559,1.55559 -2.72258,3.25442 -3.50068,5.09653 -0.77809,1.84211 -1.16729,3.8275 -1.16729,5.95621 l 0,110.03711 0,110.03711 c 0,2.12871 0.3892,4.1141 1.16729,5.95621 0.7781,1.84211 1.94509,3.54093 3.50068,5.09652 1.5556,1.55559 3.25443,2.72259 5.09654,3.50068 1.8421,0.7781 3.82749,1.16729 5.95619,1.16729 2.1287,0 4.11408,-0.38919 5.95619,-1.16728 1.84211,-0.7781 3.54095,-1.94509 5.09655,-3.50069 l 55.01855,-55.01856 55.01856,-55.01855 c 1.55559,-1.55559 2.72258,-3.25442 3.50068,-5.09653 0.77809,-1.84211 1.16729,-3.82749 1.16729,-5.9562 0,-2.1287 -0.3892,-4.11409 -1.16729,-5.9562 -0.7781,-1.84212 -1.94509,-3.54095 -3.50068,-5.09654 l -55.01856,-55.01856 -55.01855,-55.01855 c -1.55559,-1.55559 -3.25443,-2.72258 -5.09654,-3.50067 -1.84211,-0.7781 -3.8275,-1.16729 -5.9562,-1.16729 z"/></svg>