<?xml version="1.0" encoding="utf-8"?>
<!DOCTYPE svg PUBLIC "-//W3C//DTD SVG 1.1//EN" "http://www.w3.org/Graphics/SVG/1.1/DTD/svg11.dtd">
<svg width="512" height="512" viewBox="0 0 512 512" xmlns="http://www.w3.org/2000/svg" xmlns:xlink="http://www.w3.org/1999/xlink" fill="#000000">
  <path
     id="path4"
     d="m 40.616126,64.732791 c -4.536923,0 -8.463107,1.657723 -11.778553,4.973168 -3.315444,3.315446 -4.973166,7.241628 -4.973166,11.778548 l 0,33.503443 c 0,4.53692 1.657722,8.46311 4.973166,11.77855 3.315446,3.31544 7.24163,4.97317 11.778553,4.97317 l 153.212684,0 c 2.81333,-4.79004 6.1119,-9.14857 9.75104,-12.7877 11.56797,-11.56796 30.39827,-19.703521 47.28445,-19.703521 16.88619,0 35.71705,8.135541 47.28495,19.703521 l 12.78771,12.7877 31.21011,0 c 4.53691,0 8.46309,-1.65773 11.77855,-4.97317 3.31544,-3.31544 4.97316,-7.24163 4.97316,-11.77855 l 0,-33.503443 c 0,-4.53692 -1.65772,-8.463102 -4.97316,-11.778548 -3.31546,-3.315445 -7.24164,-4.973168 -11.77855,-4.973168 l -301.530944,0 z M 250.8643,145.36834 c -5.65193,0 -10.54283,2.06473 -14.67309,6.19498 -4.13025,4.13026 -6.1955,9.02166 -6.1955,14.6736 l 0,292.16128 c 0,5.65192 2.06525,10.54282 6.1955,14.67309 4.13026,4.13026 9.02116,6.19549 14.67309,6.19549 5.65195,0 10.54335,-2.06523 14.67361,-6.19549 L 411.61853,326.99064 c 4.13027,-4.13024 6.195,-9.02116 6.195,-14.6731 0,-5.65192 -2.06473,-10.54282 -6.195,-14.67308 L 265.53791,151.56332 c -4.13026,-4.13025 -9.02166,-6.19498 -14.67361,-6.19498 z M 40.616126,165.24311 c -4.536923,0 -8.463107,1.65771 -11.778553,4.97316 -3.315444,3.31544 -4.973166,7.24164 -4.973166,11.77855 l 0,33.50344 c 0,4.53693 1.657722,8.46311 4.973166,11.77855 3.315446,3.31545 7.24163,4.97317 11.778553,4.97317 l 143.260214,0 0,-66.01306 c 0,-0.33017 0.009,-0.66223 0.0148,-0.99381 l -143.275043,0 z m 303.824264,0 67.00639,67.00687 31.2106,0 c 4.53692,0 8.4631,-1.65772 11.77855,-4.97317 3.31545,-3.31544 4.97317,-7.24162 4.97317,-11.77855 l 0,-33.50344 c 0,-4.53691 -1.65772,-8.46311 -4.97317,-11.77855 -3.31545,-3.31545 -7.24163,-4.97316 -11.77855,-4.97316 l -98.21699,0 z M 40.616126,265.75342 c -4.536923,0 -8.463107,1.65771 -11.778553,4.97317 -3.315444,3.31544 -4.973166,7.24164 -4.973166,11.77855 l 0,33.50344 c 0,4.53691 1.657722,8.4631 4.973166,11.77855 3.315446,3.31545 7.24163,4.97316 11.778553,4.97316 l 143.260214,0 0,-67.00687 -143.260214,0 z m 0,100.51032 c -4.536923,0 -8.463107,1.65771 -11.778553,4.97316 -3.315444,3.31545 -4.973166,7.24165 -4.973166,11.77856 l 0,33.50343 c 0,4.53692 1.657722,8.4631 4.973166,11.77856 3.315446,3.31545 7.24163,4.97316 11.778553,4.97316 l 143.260214,0 0,-67.00687 -143.260214,0 z m 396.952544,0 -67.00687,67.00687 105.59902,0 c 4.53691,0 8.46309,-1.65771 11.77854,-4.97316 3.31546,-3.31546 4.97318,-7.24164 4.97318,-11.77856 l 0,-33.50343 c 0,-4.53691 -1.65772,-8.46311 -4.97318,-11.77856 -3.31545,-3.31545 -7.24163,-4.97316 -11.77854,-4.97316 l -38.59215,0 z"
	 />
</svg>
