<?xml version="1.0" encoding="utf-8"?>
<!DOCTYPE svg PUBLIC "-//W3C//DTD SVG 1.1//EN" "http://www.w3.org/Graphics/SVG/1.1/DTD/svg11.dtd">
<svg
width="512" height="512"
viewBox="0 0 512 512" 
xmlns="http://www.w3.org/2000/svg" 
xmlns:xlink="http://www.w3.org/1999/xlink" 
fill="#000000">
  <path
     d="M 127.83008 0 C 105.00789 0 83.9591 5.3472668 64.683594 16.042969 C 45.408088 26.738671 30.141661 41.244034 18.884766 59.558594 C 7.627871 77.87315 2 97.8722 2 119.55664 C 2 141.24107 7.627871 161.24207 18.884766 179.55664 C 30.141661 197.87119 45.408088 212.37657 64.683594 223.07227 C 83.9591 233.76797 105.00789 239.11523 127.83008 239.11523 C 150.65228 239.11523 171.70106 233.76797 190.97656 223.07227 C 210.25207 212.37657 225.5185 197.87119 236.77539 179.55664 C 248.03229 161.24207 253.66016 141.24107 253.66016 119.55664 C 253.66016 97.8722 248.03229 77.87315 236.77539 59.558594 C 225.5185 41.244034 210.25207 26.738671 190.97656 16.042969 C 171.70106 5.3472668 150.65228 -2.3684758e-015 127.83008 0 z M 235.50781 0 A 161.07652 161.07652 0 0 1 262.99414 32 L 282 32 C 284.416 32 287.127 32.304564 290 32.851562 L 290 131.16797 L 317.84375 160 L 417.14844 160 C 417.22103 160.38129 417.27787 160.75171 417.3418 161.12695 C 423.48791 149.10284 428.18772 137.35237 431.27148 126.28516 C 432.28531 122.64668 433.14104 119.14061 433.85352 115.75195 C 430.17018 109.57279 426.05459 104.05264 421.7168 99.714844 L 350.2832 28.283203 C 334.7272 12.727203 304 4.7369516e-015 282 0 L 235.50781 0 z M 447.55273 18.730469 L 438.81055 26.386719 C 498.15094 75.656682 462.96493 186.4464 376.15625 266.73047 L 310.8457 199.10547 L 274.73633 425.01953 L 500.85352 395.84961 L 444.33008 337.32227 C 523.64715 252.37386 531.98809 59.680524 447.55273 18.730469 z M 135.23242 42.197266 C 137.08287 42.197266 138.93276 42.929366 140.7832 44.394531 L 214.57031 114.50195 C 215.95815 115.8206 216.65234 117.50541 216.65234 119.55664 C 216.65234 121.60787 215.95815 123.29268 214.57031 124.61133 L 140.55273 194.93945 C 139.1649 196.25811 137.39128 196.91797 135.23242 196.91797 C 133.22776 196.91797 131.49228 196.22199 130.02734 194.83008 C 128.5624 193.43817 127.83008 191.78947 127.83008 189.88477 L 127.83008 147.68945 L 46.410156 147.68945 C 44.405502 147.68945 42.671969 146.99347 41.207031 145.60156 C 39.742096 144.20966 39.009766 142.56097 39.009766 140.65625 L 39.009766 98.458984 C 39.009766 96.554268 39.742096 94.905573 41.207031 93.513672 C 42.671969 92.121763 44.405502 91.425781 46.410156 91.425781 L 127.83008 91.425781 L 127.83008 49.230469 C 127.83008 47.179237 128.52427 45.492477 129.91211 44.173828 C 131.29995 42.855179 133.07356 42.197266 135.23242 42.197266 z M 322 46.271484 C 324.17 47.786484 326.09125 49.347109 327.65625 50.912109 L 399.08984 122.34375 C 400.65484 123.90875 402.21352 125.83 403.72852 128 L 322 128 L 322 46.271484 z M 2 220.07617 L 2 472 C 2 494 20 512 42 512 L 410 512 C 432 512 450 494 450 472 L 450 434.87695 L 418 439.00586 L 418 472 C 418 476.336 414.336 480 410 480 L 42 480 C 37.664 480 34 476.336 34 472 L 34 250.31055 A 161.07652 161.07652 0 0 1 2 220.07617 z "
     id="path4151" />
</svg>
