<?xml version="1.0" encoding="utf-8"?>
<!DOCTYPE svg PUBLIC "-//W3C//DTD SVG 1.1//EN" "http://www.w3.org/Graphics/SVG/1.1/DTD/svg11.dtd">
<svg
width="512" height="512"
viewBox="0 0 512 512" 
xmlns="http://www.w3.org/2000/svg" 
xmlns:xlink="http://www.w3.org/1999/xlink" 
fill="#000000">
  <path
     d="M 146.50391 0 C 105.21725 -5.9211895e-016 77.085902 2.496101 62.109375 7.4882812 C 45.783608 13.020154 31.683834 23.746977 19.810547 39.667969 C 7.9372602 55.858815 2 75.153447 2 97.550781 C 2 116.70994 6.318005 134.18072 14.953125 149.9668 C 23.858085 166.29256 36.81016 178.36974 53.810547 186.19531 C 67.033067 192.53673 83.560738 196.51568 103.39453 198.13477 L 103.39453 298.51953 C 103.39453 301.8926 104.57634 304.79204 106.9375 307.2207 C 109.29867 309.6493 112.23221 310.86328 115.74023 310.86328 L 137.59766 310.86328 C 141.10568 310.86328 144.04118 309.6493 146.40234 307.2207 C 148.7635 304.79204 149.94336 301.8926 149.94336 298.51953 L 149.94336 52.013672 L 178.88477 52.013672 L 178.88477 298.51953 C 178.88477 301.8926 180.09872 304.79204 182.52734 307.2207 C 184.95597 309.6493 187.85738 310.86328 191.23047 310.86328 L 213.08789 310.86328 C 216.46098 310.86328 219.36239 309.6493 221.79102 307.2207 C 224.21964 304.79204 225.43359 301.8926 225.43359 298.51953 L 225.43359 65.371094 C 225.43359 58.22014 225.63624 53.902129 226.04102 52.417969 C 226.85056 49.044875 229.00956 46.954071 232.51758 46.144531 C 233.05728 46.009605 236.69913 45.941406 243.44531 45.941406 C 246.68349 45.941406 249.55079 43.782397 252.04688 39.464844 C 254.54296 35.147286 255.79102 31.031927 255.79102 27.119141 L 255.79102 12.345703 C 255.79102 8.9726101 254.57706 6.0712048 252.14844 3.6425781 C 249.71981 1.2139512 246.81841 0 243.44531 0 L 146.50391 0 z M 288.55078 0.34570312 C 289.69598 4.3638323 290.3418 8.4495365 290.3418 12.345703 C 289.95697 51.888019 290 91.349513 290 131.16797 L 317.84375 160 L 417.14844 160 C 417.22104 160.38129 417.27787 160.75171 417.3418 161.12695 C 423.48791 149.10284 428.18772 137.35237 431.27148 126.28516 C 432.28531 122.64668 433.14104 119.14061 433.85352 115.75195 C 430.17018 109.57279 426.05459 104.05264 421.7168 99.714844 L 350.2832 28.283203 C 336.21902 14.219025 309.75562 2.4703791 288.55078 0.34570312 z M 447.55273 18.730469 L 438.81055 26.386719 C 498.15094 75.656682 462.96493 186.4464 376.15625 266.73047 L 310.8457 199.10547 L 274.73633 425.01953 L 500.85352 395.84961 L 444.33008 337.32227 C 523.64715 252.37386 531.98809 59.680524 447.55273 18.730469 z M 322 46.271484 C 324.17 47.786484 326.09125 49.347109 327.65625 50.912109 L 399.08984 122.34375 C 400.65484 123.90875 402.21352 125.83 403.72852 128 L 322 128 L 322 46.271484 z M 2 190.53711 L 2 472 C 2 494 20 512 42 512 L 410 512 C 432 512 450 494 450 472 L 450 434.87695 L 418 439.00586 L 418 472 C 418 476.336 414.336 480 410 480 L 42 480 C 37.664 480 34 476.336 34 472 L 34 214.91602 C 22.001314 208.64207 11.17858 200.37189 2 190.53711 z "
     id="path4151" />
</svg>
