<?xml version="1.0" encoding="utf-8"?>
<!DOCTYPE svg PUBLIC "-//W3C//DTD SVG 1.1//EN" "http://www.w3.org/Graphics/SVG/1.1/DTD/svg11.dtd">
<svg
width="512" height="512"
viewBox="0 0 512 512" 
xmlns="http://www.w3.org/2000/svg" 
xmlns:xlink="http://www.w3.org/1999/xlink" 
fill="#000000">
  <path
     d="M 289.2793 0.42773438 C 289.84021 43.889338 290 87.009982 290 131.16797 L 317.84375 160 L 417.14844 160 C 417.22104 160.38129 417.27787 160.75171 417.3418 161.12695 C 423.48791 149.10284 428.18772 137.35237 431.27148 126.28516 C 432.28531 122.64668 433.14104 119.14061 433.85352 115.75195 C 430.17018 109.57279 426.05459 104.05264 421.7168 99.714844 L 350.2832 28.283203 C 336.37892 14.378918 310.35905 2.7437332 289.2793 0.42773438 z M 24.658203 2.8945312 C 21.850976 2.8945312 19.166636 3.442529 16.603516 4.5410156 C 12.575756 6.1277076 9.3722278 8.6313348 6.9921875 12.048828 C 4.6121476 15.466321 3.421875 19.248624 3.421875 23.398438 L 3.421875 259.38867 C 3.421875 263.53849 4.6121476 267.32275 6.9921875 270.74023 C 9.3722278 274.15775 12.575756 276.65941 16.603516 278.24609 C 19.166636 279.34457 21.850976 279.89453 24.658203 279.89453 C 30.39471 279.89453 35.461542 277.8793 39.855469 273.85156 L 120.59375 196.22656 L 201.33203 273.85156 C 205.6039 277.75723 210.66878 279.71094 216.52734 279.71094 C 219.57868 279.71094 222.26302 279.2225 224.58203 278.24609 C 228.6098 276.65941 231.81332 274.15775 234.19336 270.74023 C 236.5734 267.32275 237.76367 263.53849 237.76367 259.38867 L 237.76367 23.398438 C 237.76367 19.248624 236.5734 15.466321 234.19336 12.048828 C 231.81332 8.6313348 228.6098 6.1277076 224.58203 4.5410156 C 222.01891 3.442529 219.33457 2.8945312 216.52734 2.8945312 L 24.658203 2.8945312 z M 447.55273 18.730469 L 438.81055 26.386719 C 498.15094 75.656682 462.96493 186.4464 376.15625 266.73047 L 310.8457 199.10547 L 274.73633 425.01953 L 500.85352 395.84961 L 444.33008 337.32227 C 523.64715 252.37386 531.98809 59.680524 447.55273 18.730469 z M 322 46.271484 C 324.17 47.786484 326.09125 49.347109 327.65625 50.912109 L 399.08984 122.34375 C 400.65484 123.90875 402.21352 125.83 403.72852 128 L 322 128 L 322 46.271484 z M 2 318.97461 L 2 472 C 2 494 20 512 42 512 L 410 512 C 432 512 450 494 450 472 L 450 434.87695 L 418 439.00586 L 418 472 C 418 476.336 414.336 480 410 480 L 42 480 C 37.664 480 34 476.336 34 472 L 34 318.97461 L 2 318.97461 z "
     id="path4151" />
</svg>
