<svg xmlns="http://www.w3.org/2000/svg" height="612" width="612"><defs><filter id="b" color-interpolation-filters="sRGB"><feColorMatrix values="0.807292 0 0 -0.305884 0.0963542 0 0.807292 0 -0.305884 0.0963542 0 0 0.807292 -0.305884 0.0963542 0 0 0 1 0"/></filter><filter id="a" color-interpolation-filters="sRGB"><feColorMatrix values="0.807292 0 0 -0.305884 0.0963542 0 0.807292 0 -0.305884 0.0963542 0 0 0.807292 -0.305884 0.0963542 0 0 0 1 0"/></filter></defs><path d="m 1046.8587,31.678328 c -4.9997,-3.72217 -11.4649,-4.85775 -17.4333,-3.06632 L 906.33447,65.539418 782.36951,-8.8582216 c -0.0946,-0.0565 -0.19452,-0.0972 -0.28915,-0.15246 -0.40088,-0.23265 -0.81226,-0.44688 -1.23022,-0.6506 -0.19321,-0.0946 -0.3851,-0.19189 -0.57963,-0.27996 -0.44949,-0.1997704 -0.91083,-0.3785204 -1.37741,-0.5467504 -0.17349,-0.0618 -0.34304,-0.13143 -0.51785,-0.19058 -0.49944,-0.16298 -1.0094,-0.29836 -1.52594,-0.42322 -0.14851,-0.0355 -0.2944,-0.0828 -0.44423,-0.11308 -0.53231,-0.11568 -1.07512,-0.19846 -1.62189,-0.26943 -0.13669,-0.0183 -0.27075,-0.0474 -0.40876,-0.0631 -0.55201,-0.0605 -1.11455,-0.0841 -1.67839,-0.0985 -0.1275,-0.002 -0.25367,-0.0183 -0.38116,-0.0183 -0.0315,0 -0.0605,-0.005 -0.0907,-0.005 -2.11213,0 -4.14277,0.3404 -6.05117,0.95551 -0.004,0.002 -0.008,0.002 -0.0131,0.004 l -131.03343,39.3024 c -8.33942,2.49986 -14.05018,10.17686 -14.05018,18.88298 l 0,315.439182 c 0,6.23123 2.94673,12.09709 7.94644,15.81664 4.99971,3.72219 11.46489,4.85777 17.43327,3.06633 l 123.09221,-36.92767 123.96628,74.37925 c 0.14194,0.0854 0.28915,0.15903 0.43373,0.24052 0.17875,0.10254 0.3575,0.2024 0.54018,0.30099 0.44162,0.23131 0.88718,0.44949 1.34194,0.64532 0.17218,0.075 0.34961,0.14065 0.52441,0.20899 0.37196,0.14852 0.74523,0.28783 1.12376,0.41269 0.20766,0.0683 0.41532,0.13538 0.62694,0.19584 0.43241,0.12617 0.86746,0.23921 1.30775,0.33647 0.14983,0.0315 0.29835,0.067 0.44819,0.0959 0.50864,0.0985 1.01992,0.1748 1.53382,0.23526 0.16561,0.0184 0.3299,0.0342 0.49682,0.0487 0.58619,0.0539 1.17501,0.0894 1.76383,0.0894 0,0 0,0 0,0 l 10e-4,0 c 0,0 0,0 0,0 0.59145,0 1.18158,-0.0355 1.77303,-0.0894 0.19189,-0.0171 0.37985,-0.0394 0.56911,-0.0618 0.40744,-0.0487 0.81226,-0.11178 1.21575,-0.18663 0.19715,-0.0355 0.39431,-0.0657 0.59014,-0.10775 0.50865,-0.10906 1.01466,-0.23528 1.51674,-0.38642 l 0.0881,-0.0263 c 0.0605,-0.0198 0.12092,-0.0355 0.18138,-0.0552 L 1040.756,381.79628 c 8.3381,-2.49985 14.0489,-10.17554 14.0489,-18.88166 l 0,-315.418152 c 0,-6.23256 -2.9468,-12.09709 -7.9465,-15.81797 z m -31.4835,254.098092 -92.00307,-88.93413 0,-95.24818 92.00307,-27.600922 0,211.783232 z M 791.93914,42.869848 l 85.22378,51.14847 -85.22378,153.388872 0,-204.537342 z m 92.0031,120.132402 0,204.52024 -85.22247,-51.13269 85.22247,-153.38755 z m -131.433,-128.452102 0,127.426912 -92.00309,-92.004412 0,-7.82814 92.00309,-27.59436 z m -92.00309,91.184262 92.00309,92.00442 0,91.0778 -92.00309,27.60093 0,-210.68315 z m 262.86598,250.11305 0,-124.16475 92.00307,88.93414 0,7.62968 -92.00307,27.60093 z" transform="translate(-537.127 81.356)"/><path d="m 478.24808,367.13235 -92.00307,-88.93413 0,-95.24818 92.00307,-27.60092 0,211.78323 z" fill="#5fbcd3" opacity=".673"/><path d="m 254.81202,124.22578 85.22378,51.14847 -85.22378,153.38887 0,-204.53734 z" fill="#5fbcd3" filter="url(#a)" opacity=".673"/><path d="m 346.81512,244.35818 0,204.52024 -85.22247,-51.13269 85.22247,-153.38755 z" fill="#0f0" filter="url(#b)" opacity=".673"/><path d="m 215.38212,115.90608 0,127.42691 -92.00309,-92.00441 0,-7.82814 92.00309,-27.59436 z" fill="#c87137" opacity=".673"/><path d="m 123.37903,207.09034 92.00309,92.00442 0,91.0778 -92.00309,27.60093 0,-210.68315 z" fill="#0f0" opacity=".673"/><path d="m 386.24501,457.20339 0,-124.16475 92.00307,88.93414 0,7.62968 -92.00307,27.60093 z" fill="#c87137" opacity=".673"/></svg>