<svg xmlns="http://www.w3.org/2000/svg" height="612" width="612"><path d="m 164.5253,216.54477 36.29933,-15.71816 15.71948,-36.30065 -43.48806,-17.20695 c -7.35136,-2.90881 -15.72874,-1.17278 -21.32027,4.41743 -5.59153,5.59153 -7.32756,13.96891 -4.41743,21.32027 l 17.20695,43.48806 z m 282.94808,178.90913 -36.30197,15.71949 -15.71817,36.30065 43.48939,17.20695 c 2.36671,0.9361 4.8392,1.39226 7.29318,1.39226 5.16447,0 10.23638,-2.01898 14.02709,-5.80969 5.59021,-5.59153 7.32756,-13.96759 4.41875,-21.32027 L 447.47338,395.4539 Z m -282.94808,0.001 -17.20695,43.48674 c -2.91013,7.35268 -1.1741,15.72874 4.41743,21.32027 3.79071,3.79203 8.8613,5.80969 14.02708,5.80969 2.45134,0 4.92647,-0.45484 7.29319,-1.39227 L 216.54411,447.47404 200.82463,411.17339 164.5253,395.45523 Z M 512.20767,287.80009 432.87379,253.44834 381.00702,230.98967 324.19925,99.791668 c -2.74883,-6.347821 -8.56645,-10.738805 -15.27656,-11.737056 -0.95858,-0.141475 -1.93436,-0.215517 -2.92335,-0.215517 -6.91636,0 -13.25757,3.596349 -16.83938,9.355797 -0.51169,0.823723 -0.96784,1.689756 -1.35921,2.596776 l -34.35307,79.335202 -22.45735,51.8628 -51.8628,22.45735 -15.71155,6.80398 -63.624973,27.54909 c -5.895633,2.55314 -10.101511,7.75331 -11.472619,13.85388 -0.314681,1.40681 -0.479954,2.86386 -0.479954,4.34603 0,1.48217 0.165273,2.93922 0.479954,4.34603 1.371108,6.10057 5.576986,11.30073 11.472619,13.85388 l 63.623653,27.54909 15.71155,6.80398 51.8628,22.45735 22.45735,51.8628 34.35307,79.3352 c 3.14152,7.25616 10.29323,11.95257 18.19991,11.95257 0.98899,0 1.96477,-0.074 2.92335,-0.21551 6.70878,-0.99825 12.52773,-5.38792 15.27656,-11.73706 l 56.8091,-131.198 51.86544,-22.45735 79.3352,-34.35175 c 7.25617,-3.14152 11.95258,-10.29323 11.95258,-18.19991 0,-7.90668 -4.69774,-15.05971 -11.9539,-18.20123 z m -206.20833,51.25459 c -18.25809,0 -33.05468,-14.79924 -33.05468,-33.05468 0,-18.25544 14.79659,-33.05468 33.05468,-33.05468 18.25544,0 33.05468,14.79924 33.05468,33.05468 0,18.25544 -14.79924,33.05468 -33.05468,33.05468 z M 447.4747,216.5461 464.68165,173.05803 c 2.90881,-7.35136 1.17278,-15.72874 -4.41875,-21.32027 -5.59153,-5.59153 -13.96891,-7.32756 -21.32027,-4.41742 l -43.48939,17.20562 15.71817,36.30065 36.30329,15.71949 z"/></svg>