<svg xmlns="http://www.w3.org/2000/svg" height="612" width="612"><path d="m 209.3259,245.43964 -11.76478,5.46988 -3.60654,12.46318 c -3.98647,13.77617 -9.68449,28.75175 -15.34804,42.28301 -5.6291,-13.4428 -11.32805,-28.41837 -15.33594,-42.28115 l -3.60468,-12.46597 -11.76664,-5.47174 c -26.00284,-12.09256 -42.80541,-38.46509 -42.80541,-67.18703 0,-40.83313 32.98311,-74.05277 73.52385,-74.05277 40.54073,0 73.52291,33.21964 73.52291,74.05277 -0.002,28.72567 -16.80723,55.09912 -42.81473,67.18982 z m 253.48729,158.83475 -11.76478,5.46988 -3.60654,12.46318 c -3.98647,13.77617 -9.68449,28.75175 -15.34804,42.28301 -5.6291,-13.4428 -11.32805,-28.41837 -15.33594,-42.28115 l -3.60468,-12.46597 -11.76664,-5.47174 c -26.00284,-12.09256 -42.80541,-38.46509 -42.80541,-67.18703 0,-40.83313 32.98311,-74.05277 73.52385,-74.05277 40.54073,0 73.52291,33.21964 73.52291,74.05277 -0.002,28.72567 -16.80723,55.09912 -42.81473,67.18982 z" fill="#f60"/><path d="m 212.52366,178.2489 c 0,18.82448 -15.18146,34.08474 -33.90874,34.08473 -18.72728,0 -33.90873,-15.26025 -33.90873,-34.08473 0,-18.82447 15.18146,-34.08472 33.90873,-34.08472 18.72728,-10e-6 33.90874,15.26024 33.90874,34.08472 z M 178.61586,75.678114 c -56.35625,0 -102.041868,45.923066 -102.041868,102.570776 0,41.28663 24.320158,76.78026 59.298838,93.04646 l 1.59887,5.26315 10.13053,28.51801 c 10.71253,27.21526 22.69149,51.19739 25.03253,55.78913 l 5.9811,11.85046 6.01834,-11.85046 c 3.26479,-6.50256 25.64897,-51.33148 36.7135,-89.56563 34.98426,-16.26341 59.30908,-51.76077 59.30908,-93.05112 0,-56.64771 -45.68469,-102.570776 -102.04092,-102.570776 z m 30.71004,169.761526 -11.76478,5.46988 -3.60654,12.46318 c -3.98647,13.77617 -9.68449,28.75175 -15.34804,42.28301 -5.6291,-13.4428 -11.32805,-28.41837 -15.33594,-42.28115 l -3.60468,-12.46597 -11.76664,-5.47174 c -26.00284,-12.09256 -42.80541,-38.46509 -42.80541,-67.18703 0,-40.83313 32.98311,-74.05277 73.52385,-74.05277 40.54073,0 73.52291,33.21964 73.52291,74.05277 -0.002,28.72567 -16.80723,55.09912 -42.81473,67.18982 z m 256.68505,91.64401 c 0,18.82448 -15.18146,34.08474 -33.90874,34.08473 -18.72728,0 -33.90873,-15.26025 -33.90873,-34.08473 0,-18.82447 15.18146,-34.08472 33.90873,-34.08472 18.72728,-10e-6 33.90874,15.26024 33.90874,34.08472 z m -33.9078,-102.57079 c -56.35625,0 -102.04187,45.92307 -102.04187,102.57078 0,41.28663 24.32016,76.78026 59.29884,93.04646 l 1.59887,5.26315 10.13053,28.51801 c 10.71253,27.21526 22.69149,51.19739 25.03253,55.78913 l 5.9811,11.85046 6.01834,-11.85046 c 3.26479,-6.50256 25.64897,-51.33148 36.7135,-89.56563 34.98426,-16.26341 59.30908,-51.76077 59.30908,-93.05112 0,-56.64771 -45.68469,-102.57078 -102.04092,-102.57078 z m 30.71004,169.76153 -11.76478,5.46988 -3.60654,12.46318 c -3.98647,13.77617 -9.68449,28.75175 -15.34804,42.28301 -5.6291,-13.4428 -11.32805,-28.41837 -15.33594,-42.28115 l -3.60468,-12.46597 -11.76664,-5.47174 c -26.00284,-12.09256 -42.80541,-38.46509 -42.80541,-67.18703 0,-40.83313 32.98311,-74.05277 73.52385,-74.05277 40.54073,0 73.52291,33.21964 73.52291,74.05277 -0.002,28.72567 -16.80723,55.09912 -42.81473,67.18982 z"/></svg>