<svg xmlns="http://www.w3.org/2000/svg" height="612" width="612"><path d="m 361.02061,340.66259 -18.54362,8.62161 -5.68462,19.64443 c -6.28346,21.71396 -15.26467,45.31844 -24.19154,66.64637 -8.87258,-21.1885 -17.85525,-44.79296 -24.17247,-66.64344 l -5.68169,-19.64883 -18.54655,-8.62454 c -40.98561,-19.06026 -67.46978,-60.62858 -67.46978,-105.90003 0,-64.36108 51.9879,-116.72179 115.88811,-116.72179 63.9002,0 115.88663,52.36071 115.88663,116.72179 -0.003,45.27733 -26.49152,86.84709 -67.48447,105.90443 z" fill="#f60" transform="translate(-6.615 -1.18)"/><path d="m 366.06091,234.75671 c 0,29.6711 -23.92898,53.72428 -53.44687,53.72427 -29.5179,0 -53.44686,-24.05317 -53.44686,-53.72427 0,-29.67108 23.92898,-53.72425 53.44686,-53.72425 29.51789,-2e-5 53.44687,24.05315 53.44687,53.72425 z M 312.61552,73.084894 c -88.82858,0 -160.83814,72.383826 -160.83814,161.671796 0,65.07589 38.33337,121.02086 93.46668,146.6596 l 2.52014,8.29576 15.96771,44.95002 c 16.88507,42.89662 35.76627,80.6972 39.45621,87.93469 l 9.4274,18.67866 9.48609,-18.67866 c 5.14595,-10.24932 40.42784,-80.90855 57.86773,-141.17312 55.1421,-25.63435 93.48282,-81.5852 93.48282,-146.66695 0,-89.28797 -72.00809,-161.671796 -160.83664,-161.671796 z m 48.40509,267.577696 -18.54362,8.62161 -5.68462,19.64443 c -6.28346,21.71396 -15.26467,45.31844 -24.19154,66.64637 -8.87258,-21.1885 -17.85525,-44.79296 -24.17247,-66.64344 l -5.68169,-19.64883 -18.54655,-8.62454 c -40.98561,-19.06026 -67.46978,-60.62858 -67.46978,-105.90003 0,-64.36108 51.9879,-116.72179 115.88811,-116.72179 63.9002,0 115.88663,52.36071 115.88663,116.72179 -0.003,45.27733 -26.49152,86.84709 -67.48447,105.90443 z" transform="translate(-6.615 -1.18)"/></svg>