<?xml version="1.0" encoding="utf-8"?>
<!DOCTYPE svg PUBLIC "-//W3C//DTD SVG 1.1//EN" "http://www.w3.org/Graphics/SVG/1.1/DTD/svg11.dtd">
<svg width="512" height="512" viewBox="0 0 512 512" xmlns="http://www.w3.org/2000/svg" xmlns:xlink="http://www.w3.org/1999/xlink" fill="#000000">
  <path
     id="path4"
     d="M 64.00,64.00L 448.00,64.00L 448.00,448.00L 64.00,448.00z" />
  <path
     style="fill:#ff0000"
     d="M 84.900391 64 L 448 273.63672 L 448 243.52148 L 137.05859 64 L 84.900391 64 z M 190.63281 64 L 448 212.5918 L 448 182.47656 L 242.79102 64 L 190.63281 64 z M 296.36523 64 L 448 151.54688 L 448 121.43359 L 348.52344 64 L 296.36523 64 z M 402.09766 64 L 448 90.501953 L 448 64 L 402.09766 64 z M 64 82.863281 L 64 112.97852 L 448 334.67969 L 448 304.56641 L 64 82.863281 z M 64 143.9082 L 64 174.02148 L 448 395.72461 L 448 365.61133 L 64 143.9082 z M 64 204.95312 L 64 235.06641 L 432.8125 448 L 448 448 L 448 426.6543 L 64 204.95312 z M 64 265.99805 L 64 296.11133 L 327.08008 448 L 379.23828 448 L 64 265.99805 z M 64 327.04297 L 64 357.15625 L 221.34766 448 L 273.50391 448 L 64 327.04297 z M 64 388.08789 L 64 418.20117 L 115.61523 448 L 167.77148 448 L 64 388.08789 z "
     id="path4138" />
</svg>
