<?xml version="1.0" encoding="UTF-8" standalone="no"?>
<svg
   xmlns:dc="http://purl.org/dc/elements/1.1/"
   xmlns:cc="http://creativecommons.org/ns#"
   xmlns:rdf="http://www.w3.org/1999/02/22-rdf-syntax-ns#"
   xmlns:svg="http://www.w3.org/2000/svg"
   xmlns="http://www.w3.org/2000/svg"
   version="1.1"
   fill="#000000"
   viewBox="0 0 512 512"
   height="512"
   width="512">
  <path
     id="path4"
     d="M 0 32 L 0 480 L 190.73828 480 L 190.73828 222.42773 L 512 222.42773 L 512 32 L 0 32 z M 32 96 L 160 96 L 160 192 L 32 192 L 32 96 z M 192 96 L 320 96 L 320 192 L 192 192 L 192 96 z M 352 96 L 480 96 L 480 192 L 352 192 L 352 96 z M 32 224 L 160 224 L 160 320 L 32 320 L 32 224 z M 255.05078 245.15234 C 250.49335 245.15234 246.61989 246.74729 243.42969 249.9375 C 240.23948 253.12771 238.64453 257.00115 238.64453 261.55859 L 238.64453 491.25391 C 238.64453 495.81137 240.23948 499.6848 243.42969 502.875 C 246.61989 506.0652 250.49335 507.66016 255.05078 507.66016 L 484.74609 507.66016 C 489.30356 507.66016 493.17699 506.0652 496.36719 502.875 C 499.55739 499.6848 501.15234 495.81137 501.15234 491.25391 L 501.15234 332.65625 C 501.15234 328.09882 500.01311 323.08416 497.73438 317.61523 C 495.45564 312.14631 492.72145 307.81716 489.53125 304.62695 L 441.67773 256.77344 C 438.48753 253.58323 434.15838 250.84903 428.68945 248.57031 C 423.22053 246.29159 418.20783 245.15234 413.65039 245.15234 L 255.05078 245.15234 z M 260.51953 267.02734 L 282.39453 267.02734 L 282.39453 338.125 C 282.39453 342.68244 283.99143 346.55589 287.18164 349.74609 C 290.37185 352.9363 294.24529 354.53125 298.80273 354.53125 L 397.24219 354.53125 C 401.79963 354.53125 405.67503 352.9363 408.86523 349.74609 C 412.05544 346.55589 413.65039 342.68244 413.65039 338.125 L 413.65039 267.02734 C 415.35943 267.02734 417.57999 267.59892 420.31445 268.73828 C 423.04892 269.87764 424.98564 271.01689 426.125 272.15625 L 474.15039 320.17969 C 475.28975 321.31905 476.429 323.28475 477.56836 326.07617 C 478.70772 328.86761 479.27734 331.06115 479.27734 332.65625 L 479.27734 485.78516 L 457.40039 485.78516 L 457.40039 414.68945 C 457.40039 410.13201 455.80544 406.25857 452.61523 403.06836 C 449.42503 399.87815 445.55158 398.2832 440.99414 398.2832 L 298.80273 398.2832 C 294.24529 398.2832 290.37185 399.87815 287.18164 403.06836 C 283.99143 406.25857 282.39453 410.13201 282.39453 414.68945 L 282.39453 485.78516 L 260.51953 485.78516 L 260.51953 267.02734 z M 353.49219 267.02734 L 386.30469 267.02734 C 387.78585 267.02734 389.068 267.56995 390.15039 268.65234 C 391.23278 269.73473 391.77344 271.01688 391.77344 272.49805 L 391.77344 327.18555 C 391.77344 328.66671 391.23278 329.94886 390.15039 331.03125 C 389.068 332.11364 387.78585 332.65625 386.30469 332.65625 L 353.49219 332.65625 C 352.01102 332.65625 350.72888 332.11364 349.64648 331.03125 C 348.56409 329.94886 348.02344 328.66671 348.02344 327.18555 L 348.02344 272.49805 C 348.02344 271.01688 348.56409 269.73473 349.64648 268.65234 C 350.72888 267.56995 352.01102 267.02734 353.49219 267.02734 z M 32 352 L 160 352 L 160 448 L 32 448 L 32 352 z M 304.27148 420.1582 L 435.52539 420.1582 L 435.52539 485.78516 L 304.27148 485.78516 L 304.27148 420.1582 z " />
</svg>
