<svg xmlns="http://www.w3.org/2000/svg" width="512" height="512"><path d="m 461.21637,332.95614 q 0,19.979 -10.97612,33.29833 -10.97612,13.31933 -30.46181,13.31933 -10.11282,0 -19.1157,-4.31645 -9.00288,-4.31646 -14.5526,-9.37286 -5.54972,-5.05642 -13.93597,-9.37287 -8.38624,-4.31645 -17.51246,-4.31645 -27.13196,0 -27.13196,30.58513 0,9.61952 3.94646,28.36525 3.94647,18.74573 3.69982,28.36525 l 0,1.23327 q -5.4264,0 -8.1396,0.24665 -8.38625,0.73996 -24.04879,2.83653 -15.66255,2.09655 -28.48858,3.32983 -12.82601,1.23327 -24.17212,1.23327 -15.0459,0 -25.40539,-6.53634 -10.35947,-6.53634 -10.35947,-20.59564 0,-9.1262 4.31645,-17.51245 4.31645,-8.38625 9.37285,-13.93597 5.05642,-5.54972 9.37287,-14.5526 4.31645,-9.00288 4.31645,-19.11571 0,-19.48569 -13.31933,-30.46181 -13.31933,-10.97611 -33.29833,-10.97611 -20.71896,0 -35.27157,11.22277 -14.5526,11.22277 -14.5526,31.44842 0,10.60614 3.69981,20.47231 3.69982,9.86616 8.26293,15.9092 4.5631,6.04302 8.26291,13.07268 3.69982,7.02964 3.69982,12.45604 0,11.09944 -11.34609,21.95223 -9.12622,8.6329 -28.85856,8.6329 -23.43216,0 -60.430293,-5.9197 -2.2199,-0.49331 -6.783003,-0.98662 -4.563103,-0.49331 -6.782991,-0.98661 l -3.206507,-0.49332 q -0.246652,0 -0.739955,-0.24665 -0.493315,0 -0.493315,-0.24665 l 0,-252.57399 q 0.493315,0.24665 4.316451,0.86329 3.823148,0.61663 8.38625,1.23327 4.563103,0.61663 5.30307,0.86328 36.998133,5.91971 60.430293,5.91971 19.73234,0 28.85856,-8.6329 11.34609,-10.85279 11.34609,-21.95223 0,-5.4264 -3.69982,-12.45604 -3.69981,-7.02965 -8.26291,-13.07268 -4.56311,-6.04304 -8.26293,-15.90921 -3.69981,-9.86617 -3.69981,-20.4723 0,-20.225655 14.5526,-31.44842 14.55261,-11.22277 35.51823,-11.22277 19.73234,0 33.05167,10.976116 13.31933,10.976115 13.31933,30.461804 0,10.11283 -4.31645,19.11571 -4.31645,9.00288 -9.37287,14.5526 -5.0564,5.54972 -9.37285,13.93597 -4.31645,8.38625 -4.31645,17.51245 0,14.0593 10.35947,20.59564 10.35949,6.53634 25.40539,6.53634 15.78588,0 44.39778,-3.69982 28.6119,-3.69981 40.20465,-4.19313 l 0,0.49332 q -0.24666,0.4933 -0.86329,4.31645 -0.61664,3.82314 -1.23328,8.38624 -0.61663,4.5631 -0.86328,5.30307 -5.91971,36.99813 -5.91971,60.4303 0,19.73234 8.6329,28.85855 10.85279,11.34609 21.95224,11.34609 5.42639,0 12.45603,-3.69981 7.02966,-3.69982 13.07268,-8.26292 6.04304,-4.5631 15.90921,-8.26291 9.86617,-3.69983 20.4723,-3.69983 20.22566,0 31.44843,14.55262 11.22277,14.5526 11.22277,35.27156 z"/></svg>