<svg xmlns="http://www.w3.org/2000/svg" width="16" height="16"><path d="M 11.99975,2 4.00025,2 C 2.9,2 2,2.9 2,4.00025 l 0,7.9995 C 2,13.10075 2.9,14 4.00025,14 l 7.9995,0 C 13.1,14 14,13.10075 14,11.99975 l 0,-7.9995 C 14,2.9 13.1,2 11.99975,2 z" fill="#06f"/><g><path d="m 8.5912108,7.979423 q -1.1471713,0 -1.5895782,0.2623575 -0.4424068,0.2623576 -0.4424068,0.8951023 0,0.5041381 0.329233,0.8025055 0.3343773,0.2932227 0.9053908,0.2932227 0.7870727,0 1.2603452,-0.5555803 0.4784167,-0.560725 0.4784167,-1.4866928 l 0,-0.2109149 -0.9414007,0 z m 1.8879452,-0.3909643 0,3.2871863 -0.9465445,0 0,-0.874526 q -0.3240888,0.524716 -0.8076498,0.776785 -0.483561,0.246924 -1.1831811,0.246924 -0.8848138,0 -1.4095289,-0.493849 -0.5195709,-0.498994 -0.5195709,-1.332365 0,-0.9722663 0.6481775,-1.4661158 0.6533218,-0.4938495 1.9445326,-0.4938495 l 1.3272206,0 0,-0.092597 q 0,-0.6533218 -0.4321184,-1.0082762 -0.426974,-0.3600986 -1.2037582,-0.3600986 -0.4938495,0 -0.9619777,0.1183181 Q 6.466629,6.0143134 6.0345106,6.2509496 l 0,-0.8745252 Q 6.5540815,5.175798 7.0427868,5.078057 7.531492,4.9751716 7.994476,4.9751716 q 1.2500566,0 1.8673685,0.6481776 0.6173115,0.6481775 0.6173115,1.9651095 z" fill="#fff"/></g></svg>