<svg xmlns="http://www.w3.org/2000/svg" width="16" height="16"><path style="isolation:auto;mix-blend-mode:normal" d="m 3.1828349,1.9895916 9.6343301,0 c 0.636573,0 1.149049,0.5124757 1.149049,1.1490486 l 0,9.7227198 c 0,0.636573 -0.512476,1.149048 -1.149049,1.149048 l -9.6343301,0 c -0.6365729,0 -1.1490486,-0.512475 -1.1490486,-1.149048 l 0,-9.7227198 c 0,-0.6365729 0.5124757,-1.1490486 1.1490486,-1.1490486 z" color="#000" overflow="visible" fill="#214478"/><path style="line-height:125%" d="m 9.62816,7.040594 0,-3.1174252 0.946545,0 0,8.0044782 -0.946545,0 0,-0.864237 q -0.2983674,0.514427 -0.7562071,0.766496 -0.4526954,0.246924 -1.0905843,0.246924 -1.044286,0 -1.7027521,-0.833371 -0.6533217,-0.833371 -0.6533217,-2.191457 0,-1.3580862 0.6533217,-2.1914573 0.6584661,-0.8333711 1.7027521,-0.8333711 0.6378889,0 1.0905843,0.252069 Q 9.3297926,6.5261674 9.62816,7.040594 Z M 6.4027053,9.052002 q 0,1.044286 0.4269741,1.641021 0.4321183,0.59159 1.1831811,0.59159 0.7510629,0 1.1831812,-0.59159 Q 9.62816,10.096288 9.62816,9.052002 9.62816,8.007716 9.1960417,7.4161254 8.7639234,6.8193906 8.0128605,6.8193906 q -0.7510628,0 -1.1831811,0.5967348 Q 6.4027053,8.007716 6.4027053,9.052002 Z" font-weight="400" font-family="sans-serif" letter-spacing="0" word-spacing="0" fill="#fff"/></svg>