<svg xmlns="http://www.w3.org/2000/svg" width="16" height="16"><path stroke="#449fdb" d="M0 0L0 0"/><path style="isolation:auto;mix-blend-mode:normal" d="M 1.4882812 0.40625 C 0.85170755 0.40625 0.33984375 0.92006693 0.33984375 1.5566406 L 0.33984375 14.648438 C 0.33984375 15.285011 0.85170755 15.796875 1.4882812 15.796875 L 14.783203 15.796875 C 15.419777 15.796875 15.931641 15.285011 15.931641 14.648438 L 15.931641 6.2363281 L 10.378906 0.40625 L 1.4882812 0.40625 z" color="#000" overflow="visible" fill="#214478"/><path style="isolation:auto;mix-blend-mode:normal" d="M 9.9179688 0.921875 A 0.20002 0.20002 0 0 0 9.734375 1.1230469 C 9.734375 2.5702283 9.6806151 3.6141371 9.6894531 4.3828125 C 9.6982931 5.1514879 9.7601977 5.6692454 10.072266 6.0195312 C 10.384333 6.3698172 10.882905 6.4704234 11.628906 6.5019531 C 12.374908 6.5334831 13.401236 6.4921875 14.841797 6.4921875 A 0.20002 0.20002 0 0 0 14.986328 6.1542969 L 10.080078 0.984375 A 0.20002 0.20002 0 0 0 9.9375 0.921875 A 0.20002 0.20002 0 0 0 9.9179688 0.921875 z" color="#000" overflow="visible" fill="#fff"/></svg>