<svg xmlns="http://www.w3.org/2000/svg" height="512" width="512"><path d="m 423.05086,276.88136 0,-41.76271 q 0,-8.48305 -6.19916,-14.6822 -6.19915,-6.19916 -14.68219,-6.19916 l -163.78815,0 61.66526,-61.66525 q 6.19915,-6.19915 6.19915,-14.68221 0,-8.48305 -6.19915,-14.6822 L 270.35593,93.51695 q -5.87288,-5.87289 -14.6822,-5.87289 -8.80933,0 -14.6822,5.87289 L 122.88136,211.62713 93.19067,241.3178 q -5.87289,5.87288 -5.87289,14.68221 0,8.80931 5.87289,14.68219 l 29.69069,29.69069 118.11017,118.11017 q 5.87287,5.87288 14.6822,5.87288 8.80932,0 14.6822,-5.87288 l 29.69069,-29.69068 q 5.87288,-5.87287 5.87288,-14.6822 0,-8.80932 -5.87288,-14.6822 l -61.66526,-61.66526 163.78815,0 q 8.48304,0 14.68219,-6.19916 6.19916,-6.19915 6.19916,-14.6822 z m 83.52542,-20.88135 q 0,68.19067 -33.60593,125.77754 -33.60593,57.58687 -91.19281,91.1928 Q 324.19067,506.57628 256,506.57628 q -68.19068,0 -125.77754,-33.60593 Q 72.63558,439.36442 39.02966,381.77755 5.42372,324.19068 5.42372,256.00001 q 0,-68.19068 33.60594,-125.77755 33.60592,-57.58687 91.1928,-91.1928 Q 187.80932,5.42372 256,5.42372 q 68.19067,0 125.77754,33.60594 57.58688,33.60593 91.19281,91.1928 33.60593,57.58687 33.60593,125.77755 z"/></svg>