<svg xmlns="http://www.w3.org/2000/svg" width="459" height="459"><path d="m 84.114269,1.1167297 c -33.11751,0 -60.069125,24.5406453 -60.069125,54.7505193 l 0,357.874931 c 0,24.32146 21.718411,44.14109 48.42033,44.14109 l 362.392796,0 0.0949,-386.508052 -350.839011,0 c -9.386498,0 -17.026748,-6.949506 -17.026748,-15.510573 0,-8.567909 7.64025,-15.51368 17.026748,-15.51368 l 350.840701,0 0,-39.2342353 -350.840701,0 z M 245.6848,133.403 c 19.2569,0 36.9521,3.21845 53.08623,9.65548 16.13413,6.19859 28.88541,15.01968 38.25361,26.46326 9.3682,11.20517 14.05228,23.72156 14.05228,37.54921 0,9.29791 -1.95171,17.64217 -5.85511,25.0328 -3.9034,7.15224 -8.58748,13.23167 -14.05228,18.23825 -5.20456,4.76817 -12.3606,10.60946 -21.4686,17.52328 -9.36814,6.91381 -16.39431,12.63523 -21.0784,17.16502 -4.68412,4.52972 -7.93731,9.7749 -9.75892,15.73507 -1.82158,6.43701 -5.33463,9.65546 -10.53919,9.65546 l -47.62183,0 c -2.86249,0 -5.33445,-0.95365 -7.41628,-2.8609 -2.08183,-1.90726 -3.12292,-4.17207 -3.12292,-6.79456 0,-8.34424 1.95169,-15.85418 5.85512,-22.52964 4.16365,-6.67542 8.97822,-12.39684 14.44299,-17.165 5.4648,-5.00657 12.75075,-10.84788 21.85872,-17.52327 9.62844,-6.91384 16.78505,-12.63578 21.46917,-17.16555 4.68411,-4.76815 7.02613,-9.89394 7.02613,-15.37734 0,-6.91381 -2.99278,-12.27775 -8.97805,-16.09228 -5.725,-4.05292 -14.44243,-6.07958 -26.15267,-6.07958 -8.84774,0 -15.87385,1.07298 -21.07841,3.21865 -4.94433,1.90727 -8.58788,4.17209 -10.92993,6.79457 -2.34205,2.6225 -4.68409,5.96029 -7.02615,10.01323 -1.56136,3.57612 -3.25265,6.31777 -5.07424,8.22503 -1.8216,1.66885 -4.55397,2.50316 -8.19716,2.50316 l -47.62182,0 c -2.34204,0 -4.42367,-0.71498 -6.24527,-2.14543 -1.56136,-1.43044 -2.34204,-3.33777 -2.34204,-5.72184 0.26023,-11.68198 4.81438,-23.6022 13.66212,-35.76101 9.10798,-12.15879 21.72878,-22.29155 37.86291,-30.39741 16.39435,-8.10587 35.39108,-12.15866 56.98999,-12.15866 z m -25.7625,198.47476 49.18297,0 c 2.86251,0 5.33446,0.95364 7.41631,2.86093 2.08182,1.90727 3.12292,4.17206 3.12292,6.79458 l 0,36.11873 c 0,2.62252 -1.0411,4.88732 -3.12292,6.7946 -2.08185,1.90718 -4.5538,2.86091 -7.41631,2.86091 l -49.18297,0 c -2.86251,0 -5.33504,-0.95373 -7.41686,-2.86091 -2.08183,-1.90728 -3.12236,-4.17208 -3.12236,-6.7946 l 0,-36.11873 c 0,-2.62252 1.04053,-4.88731 3.12236,-6.79458 2.08182,-1.90729 4.55435,-2.86093 7.41686,-2.86093 z"/></svg>