<svg xmlns="http://www.w3.org/2000/svg" height="512" width="512"><path d="m 266.327,336.996 0,18.512 -229.49,0 0,-325.508 229.488,0 0,100.552 c 10.769,3.958 20.879,9.608 30,16.819 l 0,-2.947 0,-133.703 C 296.326,4.799 291.527,0 285.604,0 L 17.559,0 C 11.636,0 6.837,4.799 6.837,10.721 l 0,364.066 c 0,5.922 4.799,10.721 10.721,10.721 l 268.046,0 c 5.923,0 10.722,-4.799 10.722,-10.721 l 0,-10.729 0,-0.575 -27.46,-27.461 c -0.843,0.335 -1.69,0.66 -2.539,0.974 z" transform="matrix(-1.33005 0 0 1.2905 512.373 7.253)"/><path d="m 375.912,348.191 -69.646,-69.644 c 20.11,-34.966 14.566,-79.408 -14.434,-108.409 -35.096,-35.096 -92.199,-35.096 -127.295,0 -35.096,35.096 -35.096,92.199 0,127.297 29,28.998 73.442,34.543 108.408,14.434 l 69.644,69.645 c 3.681,3.682 9.647,3.68 13.329,0 l 19.992,-19.992 c 3.68,-3.682 3.68,-9.651 0.002,-13.331 z M 262.51,268.111 c -18.927,18.926 -49.724,18.928 -68.649,0 -18.927,-18.928 -18.927,-49.725 0,-68.65 18.927,-18.928 49.724,-18.928 68.649,0 18.926,18.928 18.926,49.725 0,68.65 z" transform="matrix(-1.33005 0 0 1.2905 512.373 7.253)"/></svg>