<svg xmlns="http://www.w3.org/2000/svg" height="512" width="512"><path d="m 424.68221,256.00001 q 0,-8.80932 -5.87288,-14.68221 L 389.11866,211.62713 271.00848,93.516946 q -5.87288,-5.87289 -14.6822,-5.87289 -8.80933,0 -14.68222,5.87289 l -29.69067,29.690694 q -5.87287,5.87287 -5.87287,14.68219 0,8.80933 5.87287,14.68221 l 61.66526,61.66526 -163.78814,0 q -8.48305,0 -14.682207,6.19915 -6.199153,6.19915 -6.199153,14.6822 l 0,41.76272 q 0,8.48305 6.199153,14.68219 6.199157,6.19916 14.682207,6.19916 l 163.78814,0 -61.66526,61.66525 q -6.19915,6.19915 -6.19915,14.6822 0,8.48306 6.19915,14.6822 l 29.69067,29.69068 q 5.87289,5.87288 14.68222,5.87288 8.80932,0 14.6822,-5.87288 L 389.11866,300.37289 418.80933,270.6822 q 5.87288,-5.87287 5.87288,-14.68219 z m 81.89407,0 q 0,68.19067 -33.60593,125.77753 -33.60593,57.58687 -91.1928,91.19281 Q 324.19067,506.57628 256,506.57628 q -68.19068,0 -125.77754,-33.60593 Q 72.635578,439.36441 39.029656,381.77754 5.4237208,324.19068 5.4237208,256.00001 q 0,-68.19068 33.6059352,-125.77755 Q 72.635578,72.635584 130.22246,39.02966 187.80932,5.4237248 256,5.4237248 q 68.19067,0 125.77755,33.6059352 57.58687,33.605924 91.1928,91.1928 33.60593,57.58687 33.60593,125.77755 z"/></svg>