<svg xmlns="http://www.w3.org/2000/svg" height="512" width="512"><path d="m 494.96386,256 q 0,17.53267 -12.01313,29.5458 L 271.5846,496.91193 q -12.66249,12.01313 -29.5458,12.01313 -16.55864,0 -29.22113,-12.01313 L 188.46674,472.561 q -12.33781,-12.33781 -12.33781,-29.54581 0,-17.20799 12.33781,-29.5458 l 95.13099,-95.13099 -228.574128,0 q -16.883316,0 -27.435389,-12.17547 Q 17.03614,293.98746 17.03614,276.77947 l 0,-41.55894 q 0,-17.20799 10.552073,-29.38346 10.552073,-12.17547 27.435389,-12.17547 l 228.574128,0 -95.13099,-95.455668 q -12.33781,-11.68845 -12.33781,-29.221124 0,-17.532674 12.33781,-29.221124 L 212.81767,15.412748 Q 225.15548,3.0749397 242.0388,3.0749397 q 17.20799,0 29.5458,12.3378083 L 482.95073,226.77888 Q 494.96386,238.14265 494.96386,256 Z"/></svg>