<svg xmlns="http://www.w3.org/2000/svg" height="512" width="512"><path d="m 495.98701,307.67959 q 0,1.61497 -0.323,2.26098 -20.67182,86.56327 -86.56328,140.34233 -65.89146,53.77905 -154.39271,53.77905 -47.15761,0 -91.24674,-17.76485 -44.08913,-17.76486 -78.649863,-50.71058 l -41.666652,41.66665 q -6.136941,6.13694 -14.534873,6.13694 -8.397932,0 -14.534883,-6.13694 -6.1369524,-6.13695 -6.1369524,-14.53488 l 0,-144.7028 q 0,-8.39792 6.1369524,-14.53487 6.136951,-6.13696 14.534883,-6.13696 l 144.702798,0 q 8.39792,0 14.53489,6.13696 6.13694,6.13695 6.13694,14.53487 0,8.39793 -6.13694,14.53489 L 143.59693,376.801 q 22.93282,21.31783 52.00258,32.94573 29.06974,11.62791 60.4005,11.62791 43.28164,0 80.74933,-20.99484 37.46768,-20.99481 60.07749,-57.81652 3.55297,-5.49095 17.11887,-37.79068 2.58398,-7.42894 9.68991,-7.42894 l 62.0155,0 q 4.19896,0 7.26742,3.06848 3.06848,3.06848 3.06848,7.26745 z m 8.07494,-258.39787 0,144.7028 q 0,8.39793 -6.13696,14.53488 -6.13694,6.13696 -14.53487,6.13696 l -144.70281,0 q -8.39793,0 -14.53487,-6.13696 -6.13695,-6.13695 -6.13695,-14.53488 0,-8.39793 6.13695,-14.53488 l 44.57362,-44.57362 Q 320.92247,90.625373 256.00001,90.625373 q -43.28166,0 -80.74934,20.994837 -37.46769,20.99482 -60.07749,57.81652 -3.55297,5.49094 -17.118864,37.79069 -2.583984,7.42894 -9.689922,7.42894 l -64.276462,0 q -4.198966,0 -7.267447,-3.06849 -3.068471,-3.06847 -3.068471,-7.26743 l 0,-2.26099 Q 34.746844,115.49618 100.96129,61.717115 167.17574,7.9380595 256.00001,7.9380595 q 47.15761,0 91.73124,17.9263485 44.57362,17.926358 79.13434,50.549081 l 41.98964,-41.666652 q 6.13696,-6.136953 14.53489,-6.136953 8.39793,0 14.53487,6.136953 6.13696,6.136951 6.13696,14.534883 z"/></svg>