<?xml version="1.0" encoding="UTF-8" standalone="no"?>
<svg
   xmlns:dc="http://purl.org/dc/elements/1.1/"
   xmlns:cc="http://creativecommons.org/ns#"
   xmlns:rdf="http://www.w3.org/1999/02/22-rdf-syntax-ns#"
   xmlns:svg="http://www.w3.org/2000/svg"
   xmlns="http://www.w3.org/2000/svg"
   xmlns:sodipodi="http://sodipodi.sourceforge.net/DTD/sodipodi-0.dtd"
   xmlns:inkscape="http://www.inkscape.org/namespaces/inkscape"
   height="512"
   width="512"
   id="svg2"
   version="1.1"
   inkscape:version="0.91 r13725"
   sodipodi:docname="search.svg">
  <metadata
     id="metadata10">
    <rdf:RDF>
      <cc:Work
         rdf:about="">
        <dc:format>image/svg+xml</dc:format>
        <dc:type
           rdf:resource="http://purl.org/dc/dcmitype/StillImage" />
        <dc:title></dc:title>
      </cc:Work>
    </rdf:RDF>
  </metadata>
  <defs
     id="defs8" />
  <sodipodi:namedview
     pagecolor="#ffffff"
     bordercolor="#666666"
     borderopacity="1"
     objecttolerance="10"
     gridtolerance="10"
     guidetolerance="10"
     inkscape:pageopacity="0"
     inkscape:pageshadow="2"
     inkscape:window-width="1920"
     inkscape:window-height="1032"
     id="namedview6"
     showgrid="false"
     inkscape:zoom="0.65186406"
     inkscape:cx="755.26191"
     inkscape:cy="550.25498"
     inkscape:window-x="-4"
     inkscape:window-y="-4"
     inkscape:window-maximized="1"
     inkscape:current-layer="svg2" />
  <path
     id="path4151"
     d="m 161.08475,218.0339 q 0,-54.87288 39.00423,-93.87712 39.00425,-39.004242 93.87713,-39.004242 54.87288,0 93.87712,39.004242 39.00424,39.00424 39.00424,93.87712 0,54.87288 -39.00424,93.87715 -39.00424,39.00419 -93.87712,39.00419 -54.87288,0 -93.87713,-39.00419 -39.00423,-39.00427 -39.00423,-93.87715 z M 9.220328,464.81354 q 0,15.42375 11.271184,26.69494 11.271184,11.27119 26.694918,11.27119 16.016942,0 26.694922,-11.27119 L 175.61864,390.06783 q 53.09322,36.77968 118.34747,36.77968 42.41526,0 81.12288,-16.4619 38.70762,-16.4619 66.7373,-44.49151 28.02965,-28.02968 44.49152,-66.73729 16.46186,-38.70766 16.46186,-81.12291 0,-42.41526 -16.46186,-81.12288 Q 469.85594,98.203387 441.82629,70.173727 413.79661,42.144058 375.08899,25.682201 336.38137,9.2203346 293.96611,9.2203346 q -42.41525,0 -81.12288,16.4618664 -38.70764,16.461857 -66.7373,44.491526 -28.02968,28.02966 -44.49154,66.737293 -16.461858,38.70762 -16.461858,81.12288 0,65.25424 36.779658,118.34747 L 20.194903,438.1187 Q 9.220328,449.09321 9.220328,464.81354 Z"
     inkscape:connector-curvature="0" />
</svg>
