<svg xmlns="http://www.w3.org/2000/svg" height="512" width="512"><path d="m 465.92249,377.94765 q 0,12.98717 -9.09102,22.07818 l -44.15636,44.15637 q -9.09102,9.09101 -22.07819,9.09101 -12.98716,0 -22.07818,-9.09101 L 273.06307,348.72653 177.6074,444.1822 q -9.09102,9.09101 -22.07818,9.09101 -12.98717,0 -22.07819,-9.09101 L 89.294661,400.02583 q -9.091016,-9.09101 -9.091016,-22.07818 0,-12.98717 9.091016,-22.07818 L 184.75034,260.4138 89.294661,164.95813 q -9.091016,-9.09101 -9.091016,-22.07818 0,-12.98717 9.091016,-22.07818 L 133.45103,76.645409 q 9.09102,-9.091016 22.07819,-9.091016 12.98716,0 22.07818,9.091016 l 95.45567,95.455661 95.45567,-95.455661 q 9.09102,-9.091016 22.07818,-9.091016 12.98717,0 22.07819,9.091016 l 44.15636,44.156361 q 9.09102,9.09101 9.09102,22.07818 0,12.98717 -9.09102,22.07818 l -95.45567,95.45567 95.45567,95.45567 q 9.09102,9.09101 9.09102,22.07818 z"/></svg>