<svg xmlns="http://www.w3.org/2000/svg" height="512" width="512"><path d="m 256,11.182273 q 66.62356,0 122.88702,32.833622 56.26345,32.833632 89.09707,89.097085 32.83363,56.26345 32.83363,122.88702 0,66.62357 -32.83363,122.88703 -32.83362,56.26344 -89.09707,89.09707 Q 322.62356,500.81773 256,500.81773 q -66.62358,0 -122.88703,-32.83363 Q 76.849531,435.15047 44.015901,378.88703 11.182278,322.62357 11.182278,256 q 0,-66.62357 32.833623,-122.88702 Q 76.849531,76.849527 133.11297,44.015895 189.37642,11.182273 256,11.182273 Z m 87.34383,166.080777 q -0.63755,0.31878 -3.02836,3.02834 -2.39079,2.70958 -4.30344,3.02835 0.63755,0 1.43448,-1.59387 0.79694,-1.59386 1.59387,-3.5065 0.79693,-1.91264 1.1157,-2.23141 1.91265,-2.23141 7.01302,-4.7816 4.46282,-1.91264 16.5762,-3.82527 10.83827,-2.55019 16.25742,3.5065 -0.63754,-0.63754 3.02835,-4.14405 3.66588,-3.50651 4.62221,-3.82528 0.95632,-0.63754 4.7816,-1.43447 3.82526,-0.79694 4.78159,-2.39081 l 0.63755,-7.013 q -3.82528,0.31876 -5.57854,-2.23141 -1.75325,-2.55019 -2.07202,-6.69424 0,0.63755 -1.91263,2.55019 0,-2.23141 -1.4345,-2.55019 -1.43447,-0.31876 -3.66587,0.31878 -2.23142,0.63754 -2.86896,0.31877 -3.18773,-0.95631 -4.7816,-2.39081 -1.59387,-1.43447 -2.55019,-5.25974 -0.95631,-3.82529 -1.2751,-4.78161 -0.63753,-1.59386 -3.02833,-3.3471 -2.39081,-1.75327 -3.02835,-3.34713 -0.31877,-0.63754 -0.79693,-1.75324 -0.47816,-1.11572 -0.95631,-2.07204 -0.47817,-0.95631 -1.27509,-1.75325 -0.79694,-0.79694 -1.75327,-0.79694 -0.95631,0 -2.2314,1.59388 -1.27509,1.59386 -2.39081,3.18773 -1.1157,1.59386 -1.43447,1.59386 -0.95632,-0.63754 -1.91263,-0.47816 -0.95633,0.15939 -1.43448,0.31878 -0.47817,0.15938 -1.43449,0.95632 -0.95631,0.79692 -1.59386,1.1157 -0.95632,0.63754 -2.70958,0.95632 -1.75324,0.31876 -2.70956,0.63755 4.7816,-1.59387 -0.31877,-3.50651 -3.18774,-1.2751 -5.10038,-0.95632 2.86895,-1.27508 2.3908,-3.82527 -0.47816,-2.55018 -2.70958,-4.46283 l 1.59387,0 q -0.31877,-1.27509 -2.70957,-2.70957 -2.3908,-1.43448 -5.57853,-2.70957 -3.18772,-1.27508 -4.14405,-1.91264 -2.55018,-1.59386 -10.83828,-3.02834 -8.2881,-1.43447 -10.51951,-0.15938 -1.59387,1.91263 -1.43448,3.3471 0.15938,1.43449 1.27509,4.46283 1.1157,3.02835 1.1157,3.98466 0.31877,1.91265 -1.75324,4.14405 -2.07204,2.23142 -2.07204,3.82528 0,2.23141 4.46283,4.94099 4.46283,2.70956 3.18774,6.85362 -0.95633,2.55019 -5.10038,5.10037 -4.14405,2.55018 -5.10036,3.82527 -1.59388,2.55019 -0.47816,5.8973 1.1157,3.34712 3.34711,5.25977 0.63754,0.63754 0.47816,1.27508 -0.15938,0.63755 -1.11571,1.43449 -0.95632,0.79692 -1.75324,1.27508 -0.79694,0.47816 -2.07204,1.11571 l -0.95631,0.63755 q -3.50651,1.59386 -6.53484,-1.91265 -3.02835,-3.5065 -4.30344,-8.28809 -2.23141,-7.96933 -5.10037,-9.56319 -7.33178,-2.55019 -9.24443,0.31878 -1.59386,-4.14406 -13.06969,-8.28812 -7.96932,-2.86895 -18.48883,-1.27509 1.91263,-0.31878 0,-4.7816 -2.23142,-4.78159 -6.05669,-3.82527 0.95631,-1.91264 1.27509,-5.57853 0.31877,-3.66589 0.31877,-4.30343 0.95631,-4.14405 3.82529,-7.33178 0.31877,-0.31878 2.2314,-2.70957 1.91265,-2.3908 3.02833,-4.30345 1.11572,-1.912634 0.15941,-1.912634 11.15705,1.27509 15.93864,-3.5065 1.59387,-1.593875 3.6659,-5.419144 2.07201,-3.825279 3.3471,-5.419151 2.86896,-1.912625 4.46283,-1.753248 1.59387,0.159386 4.62221,1.753248 3.02835,1.593872 4.62221,1.593872 4.46283,0.318773 4.94098,-3.506497 0.47816,-3.825289 -2.39079,-6.375468 3.82528,0.318776 0.95632,-5.419145 -1.59386,-2.231409 -2.55019,-2.868954 -3.82528,-1.275094 -8.60687,1.593865 -2.55019,1.275088 0.63754,2.550184 -0.31876,-0.318776 -3.02834,3.347116 -2.70958,3.665895 -5.25976,5.57853 -2.55019,1.912635 -5.10037,-1.593872 -0.31877,-0.318763 -1.75324,-4.303433 -1.43449,-3.984661 -3.02835,-4.303437 -2.55018,0 -5.10037,4.781601 0.95632,-2.550184 -3.5065,-4.781601 -4.46283,-2.231409 -7.65055,-2.550184 6.05668,-3.825273 -2.5502,-8.606874 -2.2314,-1.275089 -6.53484,-1.593864 -4.30344,-0.318769 -6.21607,1.275096 -1.59386,2.231409 -1.75325,3.665885 -0.1594,1.434484 1.59387,2.550185 1.75324,1.115708 3.3471,1.753252 1.59387,0.637551 3.6659,1.275095 2.07201,0.637546 2.70956,0.956321 4.46283,3.187729 2.55019,4.462825 -0.63755,0.318768 -2.70956,1.1157 -2.07204,0.796933 -3.6659,1.434485 -1.59386,0.637543 -1.91264,1.275088 -0.95632,1.275097 0,4.462821 0.95632,3.187735 -0.63755,4.462825 -1.59386,-1.593862 -2.86896,-5.578528 -1.27508,-3.984663 -2.23141,-5.259758 2.23141,2.868955 -7.96932,1.91264 l -3.18773,-0.318776 q -1.2751,0 -5.10036,0.637546 -3.82529,0.637545 -6.53485,0.318772 -2.70958,-0.318772 -4.30344,-2.550182 -1.2751,-2.550185 0,-6.375458 0.31877,-1.275096 1.27509,-0.637546 -1.27509,-0.956319 -3.50651,-3.028346 -2.23141,-2.072022 -3.18772,-2.709573 -14.66356,4.7816 -29.96468,13.069698 1.91264,0.318777 3.82527,-0.318775 1.59387,-0.637545 4.14405,-2.072021 2.5502,-1.434483 3.18775,-1.753253 10.83828,-4.462825 13.38846,-2.231416 l 1.59387,-1.593864 q 4.46282,5.100369 6.37545,7.969329 -2.2314,-1.275095 -9.56319,-0.318775 -6.37546,1.91264 -7.01301,3.825282 2.23142,3.82527 1.59387,5.737914 -1.27508,-0.956327 -3.66589,-3.187735 -2.3908,-2.231406 -4.62221,-3.506506 -2.23141,-1.275091 -4.78159,-1.59386 -5.10037,0 -7.01301,0.318769 -46.54087,25.501864 -74.91167,70.767634 2.231416,2.23141 3.82528,2.55018 1.275089,0.31877 1.593865,2.86896 0.318775,2.55018 0.796932,3.5065 0.478164,0.95632 3.665892,-0.95632 2.868954,2.55019 0.956321,6.05668 0.318769,-0.31876 14.026,8.60689 6.05669,5.41914 6.69424,6.69423 0.95632,3.5065 -3.18773,5.73792 -0.31877,-0.63756 -2.86895,-2.86896 -2.55018,-2.23141 -2.86896,-1.27509 -0.95632,1.59387 0.15938,5.89729 1.1157,4.30344 3.34712,3.98467 -2.23142,0 -3.02835,5.10037 -0.79692,5.10037 -0.79692,11.31644 0,6.21608 -0.31877,7.49118 l 0.63754,0.31877 q -0.95632,3.82528 1.75324,10.99767 2.70958,7.17238 6.85363,6.21608 -4.14405,0.9563 6.37545,13.70724 1.91264,2.55018 2.55018,2.86896 0.95633,0.63754 3.82529,2.39078 2.86895,1.75327 4.78159,3.18774 1.91264,1.43448 3.18773,3.34712 1.2751,1.59386 3.18774,7.17239 1.91264,5.57853 4.46283,7.49117 -0.63756,1.91263 3.02833,6.37547 3.66589,4.46282 3.34712,7.33178 -0.31877,0 -0.79693,0.31876 -0.47816,0.31879 -0.79693,0.31879 0.95632,2.2314 4.94098,4.46282 3.98467,2.2314 4.94098,4.14405 0.31878,0.95632 0.63755,3.18772 0.31877,2.23141 0.95631,3.50651 0.63755,1.27509 2.55019,0.63754 0.63755,-6.37545 -7.65055,-19.76392 -4.7816,-7.96934 -5.41914,-9.24443 -0.95632,-1.59386 -1.75327,-4.94098 -0.79692,-3.34712 -1.43447,-4.62221 0.63755,0 1.91264,0.47816 1.2751,0.47816 2.70957,1.1157 1.43449,0.63756 2.3908,1.2751 0.95632,0.63755 0.63755,0.95632 -0.95632,2.2314 0.63754,5.57853 1.59387,3.34711 3.82528,5.8973 2.23141,2.55018 5.41914,6.05669 3.18773,3.5065 3.82528,4.14405 1.91263,1.91263 4.46283,6.21607 2.55018,4.30343 0,4.30343 2.86895,0 6.37546,3.18774 3.50651,3.18773 5.41914,6.37546 1.59386,2.55019 2.55019,8.2881 0.95632,5.73792 1.59386,7.65055 0.63754,2.23142 2.70958,4.30344 2.07202,2.07203 3.98465,3.02834 l 5.10037,2.55019 4.14405,2.23141 q 1.59387,0.63754 5.89731,3.34712 4.30343,2.70957 6.85361,3.6659 3.18774,1.27508 5.10038,1.27508 1.91263,0 4.62221,-0.79694 2.70956,-0.79692 4.30343,-1.11569 4.78159,-0.63755 9.24442,4.78159 4.46282,5.41915 6.69424,6.69424 11.47582,6.05668 17.53251,3.5065 -0.63754,0.31878 0.1594,2.3908 0.79693,2.07202 2.55018,4.94098 1.75325,2.86895 2.86895,4.62221 1.11571,1.75325 1.75325,2.70956 1.59386,1.91265 5.73792,4.78161 4.14406,2.86896 5.73792,4.78159 1.91264,-1.27509 2.23141,-2.86895 -0.95632,2.55018 2.23141,6.37546 3.18773,3.82528 5.73791,3.18773 4.46282,-0.95632 4.46282,-10.20073 -9.88196,4.78158 -15.61987,-5.73792 0,-0.31879 -0.79694,-1.75326 -0.79692,-1.43448 -1.2751,-2.70957 -0.47814,-1.2751 -0.79692,-2.70957 -0.31876,-1.43448 0,-2.39079 0.31878,-0.95633 1.59386,-0.95633 2.86896,0 3.18774,-1.1157 0.31877,-1.11571 -0.63755,-3.98467 -0.95632,-2.86895 -1.27509,-4.14404 -0.31877,-2.55019 -3.50651,-6.37547 -3.18772,-3.82527 -3.82527,-4.7816 -1.59388,2.86896 -5.10038,2.5502 -3.5065,-0.31879 -5.10037,-2.86897 0,0.31877 -0.47815,1.75325 -0.47816,1.43448 -0.47816,2.07203 -4.14406,0 -4.7816,-0.31877 0.31877,-0.95633 0.79693,-5.57853 0.47817,-4.62221 1.11571,-7.1724 0.31877,-1.27509 1.75326,-3.82528 1.43447,-2.55018 2.39078,-4.6222 0.95633,-2.07203 1.2751,-3.98466 0.31878,-1.91265 -1.43448,-3.02835 -1.75325,-1.1157 -5.57853,-0.79693 -6.05668,0.31877 -8.2881,6.37546 -0.31876,0.95631 -0.95631,3.34712 -0.63755,2.39079 -1.59387,3.66588 -0.95632,1.2751 -2.86895,2.23141 -2.23142,0.95633 -7.65057,0.63755 -5.41913,-0.31877 -7.65054,-1.59386 -4.14405,-2.55019 -7.17239,-9.24442 -3.02835,-6.69424 -3.02835,-11.79461 0,-3.18773 0.79693,-8.44748 0.79694,-5.25977 0.95632,-7.96933 0.15939,-2.70957 -1.75325,-7.80993 0.95632,-0.63755 2.86896,-3.02836 1.91263,-2.39079 3.18773,-3.34711 0.63754,-0.31876 1.43448,-0.47817 0.79692,-0.15938 1.43447,0 0.63755,0.15941 1.2751,-0.47815 0.63754,-0.63754 0.95632,-1.91263 -0.31878,-0.31877 -1.2751,-0.95632 -0.95632,-0.95633 -1.27509,-0.95633 2.23141,0.95633 9.08503,-0.47816 6.85362,-1.43448 8.76627,0.47816 4.78159,3.50651 7.013,-0.63755 0,-0.31877 -0.79694,-3.02833 -0.79692,-2.70958 -0.15938,-4.30344 1.59386,8.60687 9.24442,2.86895 0.95632,0.95632 4.94099,1.59387 3.98465,0.63754 5.57852,1.59386 0.95631,0.63754 2.23142,1.75325 1.27508,1.11572 1.75325,1.43448 0.47816,0.31879 1.59386,-0.15938 1.11572,-0.47816 2.70958,-2.07203 3.18772,4.46283 3.82527,7.65056 3.5065,12.75092 6.05669,14.02602 2.23141,0.9563 3.5065,0.63754 1.2751,-0.31878 1.43448,-3.02834 0.15939,-2.70957 0,-4.46284 -0.15938,-1.75324 -0.47816,-3.98465 l -0.31878,-2.55018 0,-5.73791 -0.31876,-2.5502 q -4.78161,-0.95632 -5.8973,-3.82528 -1.11571,-2.86895 0.47815,-5.8973 1.59387,-3.02834 4.78159,-5.8973 0.31878,-0.31877 2.55019,-1.1157 2.23141,-0.79694 4.94099,-2.07203 2.70957,-1.27509 3.98466,-2.55018 6.69424,-6.05668 4.78159,-11.15705 2.23142,0 3.50651,-2.86897 -0.31877,0 -1.59386,-0.95633 -1.27509,-0.95631 -2.3908,-1.59386 -1.11571,-0.63755 -1.43448,-0.63755 2.86896,-1.59386 0.63754,-5.10036 1.59388,-0.95632 2.3908,-3.50651 0.79694,-2.55018 2.3908,-3.18772 2.86896,3.82526 6.69424,0.63754 2.2314,-2.55019 0.31877,-5.10037 1.59386,-2.2314 6.53485,-3.34712 4.94097,-1.1157 5.8973,-3.02834 2.23141,0.63755 2.55018,-0.63755 0.31877,-1.27509 0.31877,-3.82527 0,-2.55019 0.95632,-3.82528 1.2751,-1.59386 4.78159,-2.86895 3.50652,-1.2751 4.14406,-1.59388 l 5.41914,-3.5065 q 0.95632,-1.27509 0,-1.27509 5.73792,0.63754 9.88197,-3.50651 3.18773,-3.5065 -1.91264,-6.37545 0.95632,-1.91264 -0.95632,-3.02836 -1.91264,-1.11569 -4.78159,-1.75324 0.95632,-0.31877 3.66588,-0.15939 2.70958,0.15939 3.34712,-0.47815 4.7816,-3.18774 -2.23141,-5.10037 -5.41914,-1.59386 -13.70723,3.82527 z M 291.3838,456.82704 q 65.66726,-11.47582 111.88935,-60.2481 -0.95631,-0.95633 -3.98465,-1.43449 -3.02836,-0.47816 -3.98467,-1.1157 -5.73792,-2.23141 -7.65055,-2.55018 0.31877,-2.23142 -0.79695,-4.14405 -1.11568,-1.91265 -2.55017,-2.86896 -1.43447,-0.95632 -3.98466,-2.55019 -2.55018,-1.59386 -3.50651,-2.23141 -0.63754,-0.63754 -2.23142,-1.91263 -1.59386,-1.2751 -2.23141,-1.75327 -0.63755,-0.47816 -2.39079,-1.43448 -1.75325,-0.95631 -2.70958,-0.63754 -0.95632,0.31877 -3.18772,0.31877 l -0.95632,0.31877 q -0.95633,0.31878 -1.75325,0.79694 -0.79694,0.47816 -1.75326,0.95633 -0.95631,0.47815 -1.27508,0.9563 -0.31878,0.47818 0,0.79695 -6.69424,-5.41915 -11.47584,-7.01302 -1.59386,-0.31877 -3.50649,-1.75324 -1.91265,-1.4345 -3.34713,-2.23142 -1.43448,-0.79694 -3.18773,-0.47816 -1.75326,0.31878 -3.66589,2.23141 -1.59387,1.59386 -1.91264,4.7816 -0.31878,3.18773 -0.63755,4.14406 -2.2314,-1.59387 0,-5.57854 2.23141,-3.98466 0.63755,-5.89731 -0.95632,-1.91263 -3.34712,-1.43447 -2.3908,0.47816 -3.82528,1.43447 -1.43448,0.95632 -3.66588,2.70958 -2.23141,1.75325 -2.86896,2.07202 -0.63755,0.31877 -2.70957,1.75326 -2.07203,1.43447 -2.70957,2.39079 -0.95632,1.2751 -1.91264,3.82529 -0.95631,2.55018 -1.59386,3.50649 -0.63754,-1.27509 -3.6659,-2.07202 -3.02835,-0.79693 -3.02835,-1.75325 0.63755,3.18773 1.27509,11.15706 0.63755,7.96931 1.59387,12.11338 2.23142,9.88197 -3.82528,15.30111 -8.60687,7.96932 -9.24441,12.75091 -1.27509,7.01301 3.82527,8.2881 0,2.23141 -2.55018,6.53485 -2.55018,4.30344 -2.23141,6.85362 0,1.91264 0.63754,5.10037 z"/></svg>