<svg xmlns="http://www.w3.org/2000/svg" height="512" width="512"><path d="M249.338 44.71a7.5 7.5 0 0 0-3.826.839l-175.68 91.357a7.5 7.5 0 0 0-.27.158 7.5 7.5 0 0 0-.177.104 7.5 7.5 0 0 0-.451.3 7.5 7.5 0 0 0-.16.118 7.5 7.5 0 0 0-.446.365 7.5 7.5 0 0 0-.121.108 7.5 7.5 0 0 0-.416.418 7.5 7.5 0 0 0-.105.115 7.5 7.5 0 0 0-.383.47 7.5 7.5 0 0 0-.084.112 7.5 7.5 0 0 0-.319.482 7.5 7.5 0 0 0-.097.162 7.5 7.5 0 0 0-.272.52 7.5 7.5 0 0 0-.062.13 7.5 7.5 0 0 0-.221.546 7.5 7.5 0 0 0-.059.17 7.5 7.5 0 0 0-.162.556 7.5 7.5 0 0 0-.037.15 7.5 7.5 0 0 0-.11.59 7.5 7.5 0 0 0-.02.147 7.5 7.5 0 0 0-.053.643 7.5 7.5 0 0 0-.004.095 7.5 7.5 0 0 0-.01.196v224.88a7.5 7.5 0 0 0 2.84 5.875 7.5 7.5 0 0 0 .002 0 7.5 7.5 0 0 0 .607.436 7.5 7.5 0 0 0 .002.002 7.5 7.5 0 0 0 .649.371 7.5 7.5 0 0 0 .002.002 7.5 7.5 0 0 0 .043.021 7.5 7.5 0 0 0 .005.004L252.65 466.51a7.5 7.5 0 0 0 1.397.527 7.5 7.5 0 0 0 .25.055 7.5 7.5 0 0 0 .437.096 7.5 7.5 0 0 0 .012.001 7.5 7.5 0 0 0 .596.07 7.5 7.5 0 0 0 .013.003 7.5 7.5 0 0 0 .125.015 7.5 7.5 0 0 0 .01 0 7.5 7.5 0 0 0 .006 0 7.5 7.5 0 0 0 .281.006 7.5 7.5 0 0 0 .319.008 7.5 7.5 0 0 0 .14.002 7.5 7.5 0 0 0 .043-.004 7.5 7.5 0 0 0 .46-.037 7.5 7.5 0 0 0 .257-.023 7.5 7.5 0 0 0 .012-.002 7.5 7.5 0 0 0 .213-.04 7.5 7.5 0 0 0 .205-.037 7.5 7.5 0 0 0 .306-.056 7.5 7.5 0 0 0 .032-.01 7.5 7.5 0 0 0 .408-.117 7.5 7.5 0 0 0 .28-.082 7.5 7.5 0 0 0 .03-.014 7.5 7.5 0 0 0 .313-.125 7.5 7.5 0 0 0 .377-.152 7.5 7.5 0 0 0 .178-.084l182.707-91.358a7.5 7.5 0 0 0 .005-.004 7.5 7.5 0 0 0 .647-.365 7.5 7.5 0 0 0 .006-.004 7.5 7.5 0 0 0 .607-.427 7.5 7.5 0 0 0 .006-.004 7.5 7.5 0 0 0 .56-.487 7.5 7.5 0 0 0 2.319-5.42v-224.88a7.5 7.5 0 0 0-4.246-6.758L252.227 45.445a7.5 7.5 0 0 0-2.89-.734zm-.236 15.878l172.578 83.098L256 226.529 89.803 143.428l159.299-82.84zm3.771 8.764l-8 .035.068 16 8-.035-.068-16zm.135 32l-8 .035.068 15.998 8-.033-.068-16zm.135 32l-8 .033.068 16 8-.033-.068-16zm-172.35 22.345l164.791 82.399.031 7.289 2.89-.012v16l-2.823.012.054 12.795-4.066 2.115 3.691 7.098 3.145-1.635v165.906L85.857 366.338l3.356-1.746-3.692-7.098-4.728 2.46V155.696zm350.414 0v204.735l-13.047-6.282-3.47 7.207 10.908 5.252-162.104 81.055V239.557l167.713-83.86zm-177.93 9.655l-8 .033.069 16 8-.033-.069-16zm.135 32l-8 .033.068 16 8-.033-.068-16zm-25.937 86.324l-14.196 7.383 3.692 7.097 14.195-7.383-3.691-7.097zM274 284.738l-3.47 7.207 14.415 6.942 3.471-7.207L274 284.738zm-74.916 13.701l-14.195 7.383 3.691 7.098 14.195-7.383-3.691-7.098zm103.748.18l-3.47 7.21 14.415 6.94 3.471-7.208-14.416-6.942zm28.832 13.883l-3.47 7.209 14.415 6.941 3.471-7.209-14.416-6.941zm-160.97.701l-14.196 7.383 3.691 7.098 14.196-7.383-3.692-7.098zm189.802 13.182l-3.47 7.209 14.415 6.941 3.471-7.209-14.416-6.941zm-218.193 1.582l-14.196 7.383 3.692 7.097 14.195-7.383-3.691-7.097zm247.025 12.3l-3.47 7.21 14.415 6.941 3.471-7.209-14.416-6.941zm-275.416 2.463l-14.195 7.383 3.691 7.098 14.196-7.383-3.692-7.098z" color="#000" overflow="visible"/></svg>