<svg xmlns="http://www.w3.org/2000/svg" width="512" height="512"><path d="M268.882 118.603c-49.856.479-101.796 20.638-133.053 60.773-7.63 9.793-16.513 23.017-10.515 35.558 2.55 6.07 4.842 13.05 7.918 18.403 28.554 3.39 56.025-8.702 82.72-17.707 8.672-4.503 14.357-14.502 12.948-24.273 2.953-12.552 23.658-14.069 28.24-1.947 2.252 9.28 1.636 18.984 1.344 28.453-36.728 6.35-75.277 13.077-105.83 35.979-28.497 20.619-42.933 60.612-30 94.004 10.67 29.02 42.075 48.523 72.826 45.28 24.74-.929 48.29-12.101 68.665-25.931 5.655 18.345 27.383 31.371 45.899 23.827 30.317-9.597 58.071-25.838 84.078-43.887-4.518-14.337-8.08-29.048-13.227-43.119-9.646-.033-17.725 5.778-26.92 7.899-.817-34.218-.2-68.443-.033-102.66-.528-16.307-1.32-33.216-6.979-48.743-12.977-27.716-44.521-43.411-74.27-41.889-1.27-.025-2.54-.025-3.81-.02zM258.56 274.057c-1.132 8.985 2.11 19.152-1.174 27.97-9.267 7.926-20.398 16.632-33.308 15.61-7.502-1.935-8.62-11.194-7.129-17.597 3.41-14.771 18.308-23.226 32.205-26.071 3.13-.74 6.301-1.293 9.468-1.857l-.062 1.945z" style="line-height:125%;-inkscape-font-specification:'Gentium Book Basic, Bold';text-align:start" font-weight="700" font-size="541.54" letter-spacing="0" word-spacing="0" font-family="Gentium Book Basic"/><path d="M265.796 130.855c-43.456.704-88.301 16.992-117.113 50.52-4.698 6.126-9.866 12.93-11.675 20.281 1.54 3.674 2.863 7.438 4.553 11.048 22.61-2.782 44.872-9.044 65.65-18.289 2.783-2.72-.048-6.881 1.641-10.094 3.323-16.522 21.062-27.72 37.565-24.543 12.067 1.626 23.325 11.022 24.57 23.643 2.693 14.165 1.703 28.855.607 43.018-4.607 3.742-11.103 1.692-16.39 3.87-31.668 5.914-64.963 11.294-92.142 29.792-18.313 13.13-32.552 34.513-31.146 57.768.212 21.584 13.777 43.291 34.78 50.097 24.077 8.419 50.66.874 71.87-11.646 12.443-7.376 23.534-16.849 33.544-27.248 1.087 14.063 2.474 30.471 14.285 40.012 8.452 5.503 18.61.004 26.893-2.925 20.394-8.088 39.848-18.496 58.025-30.771-2.644-4.746-1.552-11.49-6.223-15.046-7.67 3.274-17.544 8.033-25.314 2.565-7.964-7.268-5.904-19.11-6.277-28.726-.522-39.381 1.317-78.854-1.103-118.175-3.272-18.9-17.552-35.586-36.162-40.796-9.763-3.333-20.16-4.475-30.438-4.355zm6.676 173.716c-15.07 12.555-32.066 26.79-52.808 25.863-11.186-.816-20.32-10.08-22.17-20.941-5.51-22.307 10.435-45.706 31.828-52.727 14.006-4.912 28.645-6.872 43.15-9.558v57.363z" style="line-height:125%" font-weight="400" font-size="518.438" letter-spacing="0" word-spacing="0" font-family="sans-serif" fill="#34bc6a"/></svg>