<svg xmlns="http://www.w3.org/2000/svg" width="512" height="512"><path d="m 4375.0814,-609.45157 -175.6794,91.35771 0,224.88112 182.7074,91.35771 182.7075,-91.35771 0,-224.88112 -189.7355,-91.35771 z" fill="#fff" transform="translate(-4126.11 661.654)"/><path transform="matrix(7.0272 0 0 7.0275 52.211 52.203)" d="M 29,26 29,58 3,45 3,13 Z" fill="#e5e5e5"/><path transform="matrix(7.0272 0 0 7.0275 52.211 52.203)" d="M 29,26 29,58 55,45 55,13 Z" fill="#ccc"/><path transform="matrix(7.0272 0 0 7.0275 52.211 52.203)" d="M 29,26 3,13 28,0 55,13 Z" fill="#fff"/><path d="m 4375.0814,-609.45157 -175.6794,91.35771 0,224.88112 182.7074,91.35771 182.7075,-91.35771 0,-224.88112 -189.7355,-91.35771 z" fill="none" stroke="#000" stroke-width="7" transform="translate(-4126.11 661.654)"/></svg>