<?xml version="1.0" encoding="UTF-8" standalone="no"?>
<svg
   xmlns:dc="http://purl.org/dc/elements/1.1/"
   xmlns:cc="http://creativecommons.org/ns#"
   xmlns:rdf="http://www.w3.org/1999/02/22-rdf-syntax-ns#"
   xmlns:svg="http://www.w3.org/2000/svg"
   xmlns="http://www.w3.org/2000/svg"
   xmlns:sodipodi="http://sodipodi.sourceforge.net/DTD/sodipodi-0.dtd"
   xmlns:inkscape="http://www.inkscape.org/namespaces/inkscape"
   height="512"
   width="512"
   id="svg2"
   version="1.1"
   inkscape:version="0.91 r13725"
   sodipodi:docname="environment.svg">
  <metadata
     id="metadata16">
    <rdf:RDF>
      <cc:Work
         rdf:about="">
        <dc:format>image/svg+xml</dc:format>
        <dc:type
           rdf:resource="http://purl.org/dc/dcmitype/StillImage" />
      </cc:Work>
    </rdf:RDF>
  </metadata>
  <defs
     id="defs14" />
  <sodipodi:namedview
     pagecolor="#ffffff"
     bordercolor="#666666"
     borderopacity="1"
     objecttolerance="10"
     gridtolerance="10"
     guidetolerance="10"
     inkscape:pageopacity="0"
     inkscape:pageshadow="2"
     inkscape:window-width="1920"
     inkscape:window-height="1032"
     id="namedview12"
     showgrid="false"
     inkscape:zoom="0.921875"
     inkscape:cx="674.53987"
     inkscape:cy="306.94399"
     inkscape:window-x="-4"
     inkscape:window-y="-4"
     inkscape:window-maximized="1"
     inkscape:current-layer="svg2" />
  <g
     fill="#004abc"
     id="g4">
    <path
       d="m 349.43731,30.56269 -98.87462,0 -122.63434,0 -97.36566,0 0,98.87462 0,121.12538 0,98.87462 97.36566,0 122.63434,0 98.87462,0 0,-98.87462 0,-121.12538 z M 340,100 l -20,0 0,180 20,0 0,40 -20,0 0,20 -40,0 0,-20 -180,0 0,20 -40,0 0,-20 -20,0 0,-40 20,0 0,-180 -20,0 0,-40 20,0 0,-20 40,0 0,20 180,0 0,-20 40,0 0,20 20,0 z"
       transform="matrix(1.32542,0,0,1.32542,4.17,4.17)"
       id="path6"
       inkscape:connector-curvature="0"
       sodipodi:nodetypes="cccccccccccccccccccccccccccccccccccccccccc" />
    <path
       d="m 100,280 180,0 0,-180 -180,0 z m 25.2685,-154.7315 129.463,0 0,129.463 -129.463,0 z"
       transform="translate(4.17 4.17) scale(1.32542)"
       id="path8" />
  </g>
  <path
     d="m 136.71221,375.2878 238.57558,0 0,-238.5756 -238.57558,0 0,238.5756 z m 318.10078,-238.5756 -26.5084,0 0,238.5756 26.5084,0 0,53.0168 -26.5084,0 0,26.5084 -53.0168,0 0,-26.5084 -238.57558,0 0,26.5084 -53.016797,0 0,-26.5084 -26.5084,0 0,-53.0168 26.5084,0 0,-238.5756 -26.5084,0 0,-53.016801 26.5084,0 0,-26.5084 53.016797,0 0,26.5084 238.57558,0 0,-26.5084 53.0168,0 0,26.5084 26.5084,0 0,53.016801 z"
     fill="#fff"
     fill-opacity=".784"
     id="path10" />
</svg>
