<svg xmlns="http://www.w3.org/2000/svg" viewBox="-128 -128 2048 2048" height="2048" width="2048"><defs><linearGradient id="a"><stop offset="0" stop-color="#8ea9ff"/><stop offset="1" stop-color="#fff" stop-opacity="0"/></linearGradient></defs><path d="m 885.29105,311.0515 c -9.65379,0.24402 -18.8368,1.32968 -27.59201,3.19191 l 0,1032.30949 27.59201,0 0,-1035.5014 z m 38.5837,1.16569 0,1034.33571 27.59199,0 0,-1028.02106 c -8.72333,-2.97031 -17.90539,-5.0962 -27.59199,-6.31465 z m -104.75734,16.64716 c -9.82784,5.57578 -19.00134,12.37554 -27.59406,20.30088 l 0,997.38767 27.59406,0 0,-1017.68855 z m 170.93304,10.26945 0,1007.4191 27.59195,0 0,-981.0782 C 1009.1,355.41413 999.93308,346.59246 990.05045,339.1338 Z M 752.9417,397.77626 c -10.08896,16.68458 -19.20164,35.40798 -27.59405,55.79436 l 0,892.98228 27.59405,0 0,-948.77664 z m 303.2844,28.88792 0,919.88872 27.592,0 0,-855.96507 c -3.2353,-7.76251 -6.5337,-15.36718 -9.9195,-22.75431 -5.5454,-14.52141 -11.4152,-28.26968 -17.6725,-41.16934 z M 686.76601,551.79359 c -9.6815,28.35741 -18.79042,58.27853 -27.59406,89.24331 l 0,705.516 27.59406,0 0,-794.75931 z m 435.63579,48.4198 0,746.33951 27.592,0 0,-648.69633 c -8.9431,-33.52842 -18.0331,-66.29737 -27.592,-97.64318 z M 620.59032,785.83857 c -8.96405,34.60301 -18.06407,69.44494 -27.59203,103.93956 l 0,456.77477 27.59203,0 0,-560.71433 z m 567.98718,59.58844 0,501.12589 27.592,0 0,-402.18887 c -9.6687,-32.52101 -18.7656,-65.68365 -27.592,-98.93702 z M 554.41461,1016.7039 c -8.27243,24.2017 -17.0215,47.7511 -26.35513,70.4295 -0.41141,1.139 -0.82324,2.278 -1.23689,3.4136 l 0,256.0059 27.59202,0 0,-329.849 z m 700.33859,43.2911 0,286.5579 27.592,0 0,-212.2407 c -9.2931,-22.7122 -18.0293,-46.2685 -26.3103,-70.462 l 0.1567,-0.1201 c -0.4792,-1.2458 -0.9624,-2.4847 -1.4384,-3.7351 z m -766.51428,123.4125 c -3.69154,7.7135 -7.45947,15.3069 -11.32732,22.74 l -6.93513,1.1332 0.008,0 -6.94328,1.0822 c -0.79666,0.9487 -1.59145,1.8997 -2.39443,2.8421 l 0,135.3479 27.59202,0 0,-163.1454 z m 832.68998,33.2068 0,129.9386 27.592,0 0,-87.4083 c -3.8152,-4.63 -7.5597,-9.3342 -11.2236,-14.1184 -5.6337,-9.1814 -11.0824,-18.6647 -16.3684,-28.4119 z m -898.86568,67.083 c -8.70026,9.1713 -17.76052,17.9659 -27.20956,26.345 l -0.38247,-3.5032 0,40.0138 27.59203,0 0,-62.8556 z m -66.1757,15.8233 c -3.89537,2.2515 -7.85544,4.4315 -11.86235,6.5608 l 3.26515,29.9051 -4.62003,0.4719 -0.11392,0.01 -0.14038,0.014 -14.12049,1.3367 0,8.7334 27.59202,0 0,-47.0323 z m 1031.21708,1.0863 0,45.946 27.592,0 0,-21.9874 c -9.5636,-7.5926 -18.7542,-15.588 -27.592,-23.9586 z m -1103.41448,31.201 c -7.04341,2.3301 -14.23008,4.5009 -21.57031,6.4957 l 0,8.2493 27.59202,0 0,-5.4419 -1.7821,0.1445 -0.0265,0 -3.56216,0.2624 -0.651,-9.71 z" color="#000" overflow="visible" fill="#009c48"/><path d="M 1755.6406 155.54688 C 1755.4134 158.62144 1755.1862 161.69692 1754.959 164.77148 C 1752.4467 197.86631 1749.1078 230.90054 1744.7832 263.80859 L 1855.8477 278.24023 C 1860.8469 240.17271 1864.6334 201.94772 1867.3477 163.65039 L 1755.6406 155.54688 z M 1013.8887 285.44336 C 903.43898 285.76278 838.7484 357.45235 791.52734 465.60938 C 673.05976 691.68376 628.26712 1076.7993 469.26562 1300.334 C 451.22093 1320.6597 431.74017 1339.7315 410.64258 1357.3281 L 424.74023 1356.1914 L 443.48633 1354.5488 L 443.45312 1354.5488 L 459.28516 1353.0488 L 459.35156 1353.0391 L 476.64648 1351.2793 L 512.94727 1347.2891 L 512.94727 1347.2988 L 522.85352 1438.0469 C 542.52037 1420.6071 560.52434 1401.3881 577.03711 1380.6504 L 570.65039 1339.5488 L 597.98438 1335.2852 L 597.97656 1335.2852 L 604.91211 1334.1523 C 713.90361 1124.6929 750.69721 799.52752 839.19922 603.75781 C 876.74294 504.08041 928.17583 438.00726 1015.9902 437.71289 L 1015.9902 437.71484 C 1018.6738 437.70414 1021.3905 437.75765 1024.1426 437.87109 C 1116.9548 434.00173 1170.4005 501.03512 1209.0918 603.76172 C 1272.9867 745.10335 1309.9303 953.88623 1366.5469 1137.8828 L 1398.9316 1180.5078 L 1384.0352 1191.8496 C 1406.8918 1258.6264 1433.1555 1320.6445 1465.2969 1373.0254 C 1495.8856 1412.9671 1531.6701 1447.6568 1574.043 1475.0938 L 1894.7227 1475.0938 C 1898.3101 1475.1336 1901.9137 1475.1408 1905.5566 1475.0938 C 1760.5394 1451.8769 1656.5332 1387.6505 1579.0098 1300.3223 C 1539.9471 1245.4025 1507.7866 1180.7175 1479.7246 1111.0469 L 1477.709 1112.9375 L 1477.543 1113.0918 L 1477.3301 1113.291 L 1452.5996 1136.1094 L 1342.6641 1016.9805 L 1366.9336 994.5918 L 1366.9688 994.56055 L 1373.1621 988.75586 L 1378.9785 983.22266 L 1379.0293 983.17383 L 1384.5137 977.875 L 1390.2988 972.20703 L 1390.3477 972.1582 L 1396.4199 966.10547 L 1396.4434 966.08594 L 1402.0469 960.41406 L 1402.1074 960.35352 L 1409.7578 952.49805 L 1409.6836 952.54297 L 1413.3145 948.75586 L 1413.3359 948.73633 L 1418.8535 942.89062 L 1418.9141 942.82617 L 1420.2852 941.35156 C 1366.7827 770.5033 1323.4421 592.86629 1256.7617 465.61523 C 1208.0974 354.14963 1140.8783 281.41476 1024.1426 285.61328 C 1020.681 285.49009 1017.264 285.43219 1013.8887 285.44336 z M 1727.2344 370.61328 L 1726.4219 374.69336 C 1719.577 408.57947 1711.5857 442.23878 1702.3535 475.55469 C 1738.3148 484.85305 1775.2076 496.64895 1810.3965 505.05859 C 1820.6833 467.86325 1829.5655 430.2804 1837.0879 392.42969 L 1727.2344 370.61328 z M 1669.3711 578.35742 C 1657.1377 611.66602 1643.5123 644.46973 1628.4121 676.58203 C 1662.1852 692.49276 1695.9574 708.40372 1729.7305 724.31445 C 1746.3641 688.97608 1761.3422 652.86246 1774.7852 616.19336 C 1739.7263 603.74134 1704.0509 590.01091 1669.3711 578.35742 z M 1578.6172 770.89648 L 1576.4023 774.63672 L 1575.4102 776.3125 C 1558.2401 805.01931 1539.7772 832.95709 1520.0273 859.95508 L 1610.4844 926 C 1633.5752 894.4235 1655.0863 861.69254 1674.9648 828.00195 C 1642.849 808.96644 1610.733 789.93199 1578.6172 770.89648 z M 1453.1777 942.49023 L 1450.2695 945.72266 L 1448.5234 947.66406 C 1426.1439 972.31331 1402.6149 995.91455 1378.0664 1018.4043 C 1403.3854 1045.8404 1428.7044 1073.2768 1454.0234 1100.7129 C 1482.8133 1074.324 1510.3297 1046.5432 1536.3906 1017.4551 L 1453.1777 942.49023 z M 1295.6855 1086.8691 C 1267.3494 1108.2265 1238.0354 1128.2824 1207.9121 1147.0332 C 1227.7342 1178.6689 1247.5568 1210.3039 1267.3789 1241.9395 C 1300.4938 1221.3143 1332.7132 1199.2463 1363.8477 1175.7363 C 1341.1003 1146.3588 1318.5921 1115.0379 1295.6855 1086.8691 z M 1113.8691 1200.1816 C 1082.0888 1216.4553 1049.6495 1231.4295 1016.7383 1245.2695 L 1060.5508 1348.3457 C 1096.2443 1333.3447 1131.4039 1317.0613 1165.8555 1299.3906 C 1148.4311 1266.6576 1131.8178 1231.2708 1113.8691 1200.1816 z M 916.00586 1283.4453 C 912.07344 1284.7743 908.1414 1286.1026 904.20898 1287.4316 C 873.76021 1297.5119 843.04288 1306.7875 812.08594 1315.1797 L 841.59375 1423.2227 C 878.69279 1413.1555 915.48667 1401.9551 951.87109 1389.5488 C 939.91583 1354.1808 927.96112 1318.8133 916.00586 1283.4453 z M 704.68359 1341.041 C 669.70851 1348.3874 634.54773 1354.8505 599.24805 1360.4316 C 606.64689 1396.1124 607.9499 1440.1376 619.09375 1470.6934 C 656.14636 1464.7801 693.058 1457.9824 729.76562 1450.207 C 721.03835 1414.4735 715.36737 1373.705 704.68359 1341.041 z M 490.76562 1374.9258 C 486.97222 1375.3435 483.17817 1375.762 479.38477 1376.1797 C 446.8279 1379.5924 414.20762 1382.3925 381.54297 1384.543 L 389.02539 1496.291 C 427.05701 1493.7752 465.03756 1490.4534 502.92188 1486.2656 L 490.76562 1374.9258 z M 271.83984 1389.6191 L 268.07422 1389.7207 C 232.6816 1390.5958 197.27427 1390.8126 161.87305 1390.4355 L 160.9668 1502.4316 C 198.97226 1502.8258 236.98621 1502.5851 274.98047 1501.5762 L 271.83984 1389.6191 z M 357.22656 1396.3418 C 338.59527 1408.1771 318.87987 1418.9922 297.99609 1428.6855 L 299.29688 1475.0938 L 362.5 1475.0938 L 357.22656 1396.3418 z M 149.00195 1700.0352 L 149.00195 1789.0215 L 149.01367 1789.0215 L 149.01367 1855.5156 L 228.90625 1855.5156 L 228.90625 1789.0215 L 428.48633 1789.0215 L 428.48633 1855.5156 L 508.38086 1855.5156 L 508.38086 1789.0215 L 707.96094 1789.0215 L 707.96094 1855.5156 L 787.85547 1855.5156 L 787.85547 1789.0215 L 987.43555 1789.0215 L 987.43555 1855.5156 L 1067.3281 1855.5156 L 1067.3281 1789.0215 L 1266.9102 1789.0215 L 1266.9102 1855.5156 L 1346.8027 1855.5156 L 1346.8027 1789.0215 L 1546.3848 1789.0215 L 1546.3848 1855.5156 L 1626.2773 1855.5156 L 1626.2773 1789.0215 L 1825.8574 1789.0215 L 1825.8574 1855.5156 L 1905.752 1855.5156 L 1905.752 1702.1211 L 1905.5547 1702.1211 L 1905.5547 1700.0352 L 149.00195 1700.0352 z" transform="translate(-128 -128)" color="#000" overflow="visible"/></svg>