<svg width="512" height="512" xmlns="http://www.w3.org/2000/svg"><path d="M 30.894531 146.75195 L 30.894531 167.74805 L 46.919922 167.74805 L 99.607422 359.94531 L 90.373047 394.67188 C 87.294983 406.24684 84.218688 414.32229 81.140625 418.89844 C 77.881499 422.93622 73.897079 424.95508 69.189453 424.95508 C 63.938639 424.95508 60.046594 423.06937 57.511719 419.30078 C 54.976843 414.99382 53.437719 408.53385 52.894531 399.91992 L 40.400391 399.91992 L 40.400391 439.89453 C 43.478454 441.24046 47.914983 442.72083 53.708984 444.33594 C 57.511298 445.41268 61.766983 445.95117 66.474609 445.95117 C 76.43305 445.95117 84.036295 442.99043 89.287109 437.06836 C 94.900048 430.8771 99.788686 419.7058 103.95312 403.55469 L 168.59375 167.74805 L 184.3457 167.74805 L 184.3457 146.75195 L 131.38477 146.75195 L 131.38477 167.74805 L 152.56836 167.74805 L 112.91602 311.89648 L 73.263672 167.74805 L 95.806641 167.74805 L 95.806641 146.75195 L 30.894531 146.75195 z M 344.29492 146.75195 L 344.29492 167.74805 L 361.67578 167.74805 L 404.58789 255.77148 L 365.75 335.31641 L 347.00977 335.31641 L 347.00977 356.3125 L 400.51367 356.3125 L 400.51367 335.31641 L 382.31641 335.31641 L 413.00781 272.73047 L 443.69727 335.31641 L 425.77148 335.31641 L 425.77148 356.3125 L 490.95508 356.3125 L 490.95508 335.31641 L 472.48633 335.31641 L 428.48828 245.27344 L 466.24023 167.74805 L 484.98047 167.74805 L 484.98047 146.75195 L 430.66016 146.75195 L 430.66016 167.74805 L 449.67188 167.74805 L 420.06836 228.31445 L 390.46484 167.74805 L 407.30469 167.74805 L 407.30469 146.75195 L 344.29492 146.75195 z M 348.04688 197.22461 C 340.26119 207.18446 332.47514 214.58631 324.68945 219.43164 C 316.7227 224.27697 308.75581 226.69922 300.78906 226.69922 C 291.917 226.69922 281.2355 222.93172 268.74219 215.39453 L 264.66797 212.9707 L 263.31055 212.16406 C 247.5581 203.55014 235.6068 199.24219 227.45898 199.24219 C 219.49223 199.24219 211.3445 201.93466 203.01562 207.31836 C 195.411 212.43288 187.08242 220.7766 178.0293 232.35156 L 178.0293 262.23242 C 186.35817 251.46501 194.14422 244.06122 201.38672 240.02344 C 208.99135 235.1781 216.86781 232.75586 225.01562 232.75586 C 233.52556 232.75586 244.20706 236.52531 257.0625 244.0625 C 258.32994 244.87006 259.77864 245.67682 261.4082 246.48438 L 262.76758 247.29297 C 278.52002 255.90689 290.46937 260.21289 298.61719 260.21289 C 306.58394 260.21289 314.64125 257.52042 322.78906 252.13672 C 330.93688 246.21464 339.35587 237.6007 348.04688 226.29492 L 348.04688 197.22461 z" opacity=".336"/><path d="M 21.132812 127.22656 L 21.132812 148.22266 L 37.15625 148.22266 L 89.845703 340.41992 L 80.611328 375.14648 C 77.533265 386.72145 74.455016 394.7969 71.376953 399.37305 C 68.117827 403.41082 64.135361 405.42969 59.427734 405.42969 C 54.17692 405.42969 50.282923 403.54398 47.748047 399.77539 C 45.213171 395.46843 43.674047 389.00846 43.130859 380.39453 L 30.638672 380.39453 L 30.638672 420.36914 C 33.716735 421.71507 38.151311 423.19544 43.945312 424.81055 C 47.747626 425.88729 52.003311 426.42578 56.710938 426.42578 C 66.669378 426.42578 74.274577 423.46504 79.525391 417.54297 C 85.13833 411.35171 90.026968 400.18041 94.191406 384.0293 L 158.83008 148.22266 L 174.58203 148.22266 L 174.58203 127.22656 L 121.62109 127.22656 L 121.62109 148.22266 L 142.80664 148.22266 L 103.1543 292.37109 L 63.5 148.22266 L 86.042969 148.22266 L 86.042969 127.22656 L 21.132812 127.22656 z M 334.53125 127.22656 L 334.53125 148.22266 L 351.91406 148.22266 L 394.82617 236.24609 L 355.98828 315.79102 L 337.24805 315.79102 L 337.24805 336.78711 L 390.75195 336.78711 L 390.75195 315.79102 L 372.55469 315.79102 L 403.24414 253.20508 L 433.93555 315.79102 L 416.00977 315.79102 L 416.00977 336.78711 L 481.19141 336.78711 L 481.19141 315.79102 L 462.72461 315.79102 L 418.72461 225.74805 L 456.47656 148.22266 L 475.2168 148.22266 L 475.2168 127.22656 L 420.89844 127.22656 L 420.89844 148.22266 L 439.91016 148.22266 L 410.30664 208.78906 L 380.70312 148.22266 L 397.54102 148.22266 L 397.54102 127.22656 L 334.53125 127.22656 z M 338.28516 177.69922 C 330.49947 187.65907 322.71342 195.06092 314.92773 199.90625 C 306.96098 204.75158 298.9941 207.17383 291.02734 207.17383 C 282.15528 207.17383 271.47183 203.40633 258.97852 195.86914 L 254.9043 193.44531 L 253.54688 192.63867 C 237.79443 184.02475 225.84508 179.7168 217.69727 179.7168 C 209.73051 179.7168 201.58278 182.40927 193.25391 187.79297 C 185.64928 192.90749 177.32071 201.25121 168.26758 212.82617 L 168.26758 242.70703 C 176.59646 231.93962 184.38054 224.53582 191.62305 220.49805 C 199.22767 215.65271 207.10414 213.23047 215.25195 213.23047 C 223.76189 213.23047 234.44534 216.99992 247.30078 224.53711 C 248.56822 225.34466 250.01692 226.15143 251.64648 226.95898 L 253.00391 227.76758 C 268.75635 236.3815 280.7057 240.6875 288.85352 240.6875 C 296.82027 240.6875 304.87758 237.99503 313.02539 232.61133 C 321.17321 226.68925 329.59415 218.07531 338.28516 206.76953 L 338.28516 177.69922 z"/></svg>