<svg xmlns="http://www.w3.org/2000/svg" xmlns:xlink="http://www.w3.org/1999/xlink" width="512" height="512"><defs><linearGradient id="b"><stop offset="0" stop-color="#60db6e"/><stop offset="1" stop-color="#ccf3d0"/></linearGradient><linearGradient id="a"><stop offset="0" stop-color="#367838"/><stop offset="1" stop-color="#56b259"/></linearGradient><linearGradient xlink:href="#a" id="c" x1="14.799" y1="32.55" x2="21.436" y2="44.436" gradientUnits="userSpaceOnUse"/><linearGradient xlink:href="#b" id="d" x1="41.05" y1="25.235" x2="48.005" y2="47.153" gradientUnits="userSpaceOnUse"/></defs><path d="M 3.1953125,44.320312 28.855469,57.953125 35.429688,25.767578 -0.66796875,15.123047 C 9.1058444,23.968904 7.0300887,34.052723 3.1953125,44.320312 Z" transform="matrix(7.0272 0 0 7.0275 52.211 52.203)" fill="url(#c)"/><path d="M 35.429688,25.767578 28.855469,57.953125 45.666016,43.994141 c 0.754241,-6.635037 5.685976,-13.270073 9.75036,-19.90511 l 3.703303,-12.123825 z" transform="matrix(7.0272 0 0 7.0275 52.211 52.203)" fill="url(#d)" fill-opacity=".862"/><path d="M -0.66796875,15.123047 35.429688,25.767578 59.003906,11.039062 51.116831,4.8735986 34,-3.4589844 11.318796,11.170971 Z" transform="matrix(7.0272 0 0 7.0275 52.215 52.202)" fill="#b5e797" fill-opacity=".731"/><path overflow="visible" white-space="normal" font-weight="400" style="line-height:normal;text-indent:0;text-align:start;text-decoration-line:none;text-decoration-style:solid;text-decoration-color:#000;text-transform:none;block-progression:tb;isolation:auto;mix-blend-mode:normal" d="m 288.83789,24.175781 c -11.10374,4.882043 -21.43983,11.282353 -32.1586,16.921186 -37.65205,20.803538 -74.34554,43.688306 -107.58544,71.100293 -15.86668,12.49458 -33.90772,22.57769 -53.542663,27.6751 -15.689539,4.67809 -31.840926,7.67361 -47.408609,12.77998 -5.155344,3.34652 -5.764136,11.00117 -2.531997,15.88727 11.507894,21.55266 28.352248,39.99862 37.764019,62.71175 5.115495,12.24817 6.773084,25.93714 4.41257,39.0202 -2.150977,12.56404 -6.865573,24.47216 -10.457425,36.65551 -4.541039,14.6896 -8.509811,29.9535 -7.599276,45.45965 0.484716,5.89818 2.247359,12.4202 7.436508,15.90099 5.732988,3.97132 12.750238,5.17501 19.200947,7.51202 22.241126,7.20513 43.467676,17.82615 62.013906,32.12101 18.76611,13.41299 38.01167,26.21379 58.25119,37.31123 11.32848,6.451 22.86708,12.52257 34.43534,18.52975 7.91817,0.43423 14.99423,-3.99219 21.1004,-8.53473 15.67746,-11.80776 28.73579,-27.03393 45.92116,-36.82061 12.93586,-8.0076 26.32046,-15.5439 37.76658,-25.67186 7.09445,-6.40953 13.7587,-13.62704 17.73055,-22.43568 5.7995,-12.77995 7.44547,-26.88297 11.76856,-40.14949 5.69299,-18.8616 14.89611,-36.6129 26.7875,-52.3082 15.53754,-21.48384 32.21987,-42.36981 44.39143,-66.04236 10.00287,-19.59629 15.15187,-41.78841 14.06934,-63.80442 -0.38926,-6.16859 -1.0221,-12.38456 -2.66169,-18.35653 -3.53563,-10.90093 -11.69565,-19.38348 -19.68802,-27.24249 C 428.92767,83.347085 403.44748,76.074327 379.69014,62.632032 350.6747,46.336596 323.09676,25.974169 289.93945,24.138672 c -0.36844,-0.01277 -0.73486,-9.2e-4 -1.10156,0.03711 z M 458.81445,128.875 412.67718,161.10645 309.11133,222.25781 83.894531,164.55273 300.14844,33.712891 c 35.29225,18.688399 78.07248,35.276888 124.04717,64.647725 12.63766,8.073544 20.55317,21.012824 34.61884,30.514384 z m -88.89062,222.37891 -105.92969,94.24218 c -1.08085,-0.0406 -1.53249,-1.71907 -0.61523,-2.29492 l 44.17578,-200.47461 c 9.51972,-10.42891 22.65168,-16.25234 34.17667,-24.03998 l 122.06552,-75.99713 -29.42609,79.05546 c -26.43203,40.25807 -60.97774,75.74339 -64.44696,129.509 z M 75.097656,175.78516 c 40.777714,12.68707 80.262074,29.24815 121.290034,41.1549 20.52032,3.29676 41.73467,2.02465 61.80958,8.01892 9.67812,3.28726 19.07469,7.32732 28.45117,11.37891 1.34786,7.62569 -2.14023,14.86838 -3.7925,22.14628 -11.30204,39.10838 -22.55033,78.51599 -26.92881,119.11705 -2.66017,22.52466 -4.14708,45.16364 -6.2494,67.74253 -18.70537,-6.80279 -35.10883,-18.34326 -52.75379,-27.32477 L 86.84375,356.32422 c 0.174951,-18.95934 6.529756,-37.14448 13.65117,-54.48678 5.5958,-13.29549 11.60529,-26.89545 12.34262,-41.50835 -0.66449,-18.72983 -8.51812,-36.49038 -19.145663,-51.66136 C 86.861959,198.1454 79.989223,187.61092 74.3125,176.40625 c 0.0031,-0.38914 0.421647,-0.66558 0.785156,-0.62109 z" color="#000" font-family="sans-serif"/></svg>