<svg xmlns="http://www.w3.org/2000/svg" height="512" width="512"><defs><linearGradient id="a"><stop offset="0" stop-color="#8f8fff" stop-opacity=".89"/><stop offset="1" stop-color="#e0e0ff" stop-opacity=".89"/></linearGradient><linearGradient id="b"><stop offset="0" stop-color="#ceceff"/><stop offset="1" stop-color="#d5d6fd" stop-opacity=".533"/></linearGradient></defs><path d="m 97.433594,166.96289 c 0.432942,59.97656 0.865885,119.95313 1.298828,179.92969 52.151038,29.61198 104.302088,59.22396 156.453128,88.83594 C 306.9043,405.37174 358.62305,375.01497 410.3418,344.6582 409.90885,284.68229 409.47591,224.70638 409.04297,164.73047 356.89128,135.11849 304.73958,105.50651 252.58789,75.894531 200.86979,106.25065 149.15169,136.60677 97.433594,166.96289 Z" color="#000" overflow="visible" fill="#f1f1f1"/><path d="M 252.41602 50.5 L 75.347656 154.42969 L 76.207031 274.46875 L 74.761719 275.44727 L 76.230469 277.61719 L 76.818359 359.74023 L 255.35742 461.12305 L 432.42773 357.19336 L 430.95703 151.88281 L 252.41602 50.5 z M 252.58789 75.894531 L 390.54102 154.22461 L 274.23047 231.0918 L 228.62109 171.36523 L 98.103516 259.6582 L 97.433594 166.96289 L 252.58789 75.894531 z M 393.60938 155.9668 L 396.04492 157.34961 L 396.04492 164.06836 L 393.60938 155.9668 z M 406.3457 163.19922 L 409.04297 164.73047 L 410.3418 344.6582 L 255.18555 435.72852 L 98.732422 346.89258 L 98.244141 279.12109 L 225.0293 193.35352 L 270.53906 252.94922 L 406.3457 163.19922 z" color="#000" overflow="visible"/><circle cx="163.379" cy="226.001" r="27.409" color="#000" overflow="visible" fill="#52a7f7"/><circle r="27.409" cy="183.444" cx="227.592" color="#000" overflow="visible" fill="#0964be"/><circle cx="274.182" cy="240.169" r="27.409" color="#000" overflow="visible" fill="#174f85"/><circle r="27.409" cy="200.417" cx="335.114" color="#000" overflow="visible" fill="#022451"/><path d="M 373.78711 144.71094 A 27.408581 27.408581 0 0 0 368.63672 160.66406 A 27.408581 27.408581 0 0 0 396.04492 188.07227 A 27.408581 27.408581 0 0 0 409.1875 184.68555 L 409.04297 164.73047 L 373.78711 144.71094 z" color="#000" overflow="visible" fill="#010441"/><path d="M 99.166016 241.15039 A 27.408581 27.408581 0 0 0 97.96875 241.19336 L 98.365234 295.92578 A 27.408581 27.408581 0 0 0 99.166016 295.9668 A 27.408581 27.408581 0 0 0 126.57422 268.55859 A 27.408581 27.408581 0 0 0 99.166016 241.15039 z" color="#000" overflow="visible" fill="#a8d5fe"/></svg>