<svg xmlns="http://www.w3.org/2000/svg" width="512" height="512"><path style="line-height:125%;-inkscape-font-specification:'Consolas, Normal';text-align:start" d="m 181.625,146.32031 c -34.69494,-0.36582 -65.89155,27.32709 -72.91016,60.85352 -10.349658,36.53464 -8.46324,76.56303 4.44727,112.47656 9.52298,22.42345 30.47148,41.07903 55.17159,43.86373 32.18097,5.52642 68.00267,-11.52121 80.72489,-42.29342 16.06096,-33.68219 15.23528,-72.61536 8.95505,-108.60343 -5.35139,-25.17633 -20.02416,-50.86841 -45.13473,-60.68954 -9.87622,-4.0394 -20.61741,-5.70024 -31.25391,-5.60742 z m 103.95312,215.25196 c 15.59766,0 31.19532,0 46.79297,0 0,-28.5612 0,-57.1224 0,-85.6836 25.81315,0 51.62631,0 77.43946,0 0,-13.97916 0,-27.95833 0,-41.9375 -25.81315,0 -51.62631,0 -77.43946,0 0,-14.14062 0,-28.28125 0,-42.42187 27.23633,0 54.47266,0 81.70899,0 0,-14.12565 0,-28.25131 0,-42.37696 -42.83399,0 -85.66797,0 -128.50196,0 0,70.80664 10e-6,141.61328 0,212.41993 z M 183.08984,188.30859 c 11.82579,0.25936 21.47816,9.72851 25.45899,20.32618 -20.32162,14.47545 -40.09269,29.80341 -60.37305,44.38085 0.51967,-20.70622 2.23521,-44.59282 18.73047,-59.34765 4.35604,-3.85034 10.46027,-5.4386 16.18359,-5.35938 z m 33.01954,71.53516 c -0.14728,20.63266 -3.04219,44.22093 -19.70899,58.44727 -13.27936,8.88352 -33.81849,2.39685 -39.03906,-12.85352 -2.44417,-2.36133 -1.6087,-6.85314 1.96679,-7.38867 18.93751,-14.07422 37.87498,-28.14847 56.8125,-42.22266 -0.0104,1.33919 -0.0208,2.67839 -0.0312,4.01758 z" font-weight="400" font-family="Consolas" letter-spacing="0" word-spacing="0" fill="#aaf"/><path style="line-height:125%;-inkscape-font-specification:'Consolas, Normal';text-align:start" d="m 404.08055,181.52873 -81.70881,0 0,62.42259 77.43934,0 0,21.93623 -77.43934,0 0,85.68383 -26.79459,0 0,-192.42055 108.5034,0 0,22.3779 z m -151.93421,73.90599 q 0,22.08346 -4.4167,40.33912 -4.41669,18.10843 -13.3973,31.21129 -8.9806,12.95563 -22.3779,20.16956 -13.25008,7.06671 -31.21129,7.06671 -15.45843,0 -28.11961,-5.7417 -12.66118,-5.88893 -21.64179,-17.96122 -8.98061,-12.07229 -13.83897,-30.76962 -4.85836,-18.69733 -4.85836,-44.31414 0,-22.08346 4.41669,-40.33913 4.56392,-18.25566 13.3973,-31.21129 8.98061,-13.10285 22.37791,-20.16956 13.3973,-7.21393 31.21129,-7.21393 15.45842,0 28.1196,5.88893 12.66119,5.7417 21.6418,17.96121 8.9806,12.07229 13.83896,30.76962 4.85837,18.69733 4.85837,44.31415 z m -25.91126,0.88333 q 0,-5.00558 -0.44167,-9.86394 -0.29445,-5.00559 -0.73612,-9.71672 l -81.41436,60.50868 q 2.20835,7.6556 5.59448,14.13341 3.38613,6.47782 8.09727,11.18896 4.85836,4.56391 10.89451,7.21393 6.18336,2.50279 13.98619,2.50279 10.01117,0 18.10843,-4.85836 8.2445,-4.85836 13.9862,-14.42786 5.7417,-9.5695 8.83338,-23.70292 3.09169,-14.28064 3.09169,-32.97797 z m -88.0394,-1.76667 q 0,4.56391 0,9.12783 0.14722,4.56391 0.58889,8.83338 l 81.41436,-60.21423 q -2.20835,-7.50838 -5.59448,-13.69175 -3.38613,-6.18337 -8.09727,-10.60006 -4.71113,-4.56392 -10.74728,-7.06671 -6.03615,-2.50279 -13.54452,-2.50279 -10.01117,0 -18.25566,4.85836 -8.09727,4.85836 -13.83897,14.57509 -5.7417,9.56949 -8.83339,23.85013 -3.09168,14.13342 -3.09168,32.83075 z" font-weight="400" font-family="Consolas" letter-spacing="0" word-spacing="0"/></svg>