<svg xmlns="http://www.w3.org/2000/svg" height="612" width="612"><path opacity=".176" d="M574.56 725.862H618.8729999999999V810.0999999999999H574.56zM502.636 619.477H546.979V810.114H502.636zM430.743 704.274H475.056V810.099H430.743zM358.805 582.061H403.148V810.115H358.805z" transform="translate(-147.814 -381.203)"/><path d="M581.176 581.176L0 581.176 0 0 66.424 0 66.424 514.777 581.176 514.777z" transform="matrix(.61864 0 0 .61864 126.23 126.23)"/><path fill="#762e92" d="M466.37 330.447H538V466.61199999999997H466.37zM350.11 158.483H421.788V466.636H350.11zM233.899 295.552H305.529V466.612H233.899zM117.616 98.001H189.29399999999998V466.63599999999997H117.616z" transform="matrix(.61864 0 0 .61864 126.23 126.23)"/></svg>