<svg xmlns="http://www.w3.org/2000/svg" height="512" width="512"><path transform="matrix(1.05623 0 0 .94676 8 8)" d="m 242.06445,118.02734 a 18.06056,18.06056 0 0 0 -11.96875,4.53516 l -78.05859,69.0918 a 18.06056,18.06056 0 0 0 -2.64453,24.13476 l 10.80273,14.87696 -0.23437,-0.33204 c 4.27999,6.18218 10.30253,9.29123 15.6914,11.00586 a 18.06056,18.06056 0 0 0 0.91602,0.26563 c 9.35172,2.43958 19.57605,-1.35407 25.69726,-6.45508 a 18.06056,18.06056 0 0 0 0.36133,-0.30859 l 14.85743,-13.0586 0,138.77539 -37.58008,0 a 18.06056,18.06056 0 0 0 -18.0586,18.0586 l 0,26.08789 a 18.06056,18.06056 0 0 0 18.0586,18.05859 l 140.83008,0 a 18.06056,18.06056 0 0 0 18.05859,-18.05859 l 0,-26.08789 a 18.06056,18.06056 0 0 0 -18.05859,-18.0586 l -32.89258,0 0,-224.47265 a 18.06056,18.06056 0 0 0 -18.0586,-18.0586 l -27.71875,0 z" fill="#1c2224"/><path d="m 192.02018,358.46023 58.76831,0 0,-171.15294 q 0,-7.52534 0.6458,-15.62953 l -48.00488,37.81958 q -5.16644,3.85915 -10.11762,2.70141 -4.7359,-1.3507 -6.67332,-3.85914 l -11.40923,-14.08588 82.44784,-65.41245 29.27652,0 0,229.61895 53.81713,0 0,24.69851 -148.75055,0 0,-24.69851 z" fill="#59f"/><path d="m 242.06445,118.02734 a 18.06056,18.06056 0 0 0 -11.96875,4.53516 l -78.05859,69.0918 a 18.06056,18.06056 0 0 0 -2.64453,24.13476 l 10.80273,14.87696 -0.23437,-0.33204 c 4.27999,6.18218 10.30253,9.29123 15.6914,11.00586 a 18.06056,18.06056 0 0 0 0.91602,0.26563 c 9.35172,2.43958 19.57605,-1.35407 25.69726,-6.45508 a 18.06056,18.06056 0 0 0 0.36133,-0.30859 l 14.85743,-13.0586 0,138.77539 -37.58008,0 a 18.06056,18.06056 0 0 0 -18.0586,18.0586 l 0,26.08789 a 18.06056,18.06056 0 0 0 18.0586,18.05859 l 140.83008,0 a 18.06056,18.06056 0 0 0 18.05859,-18.05859 l 0,-26.08789 a 18.06056,18.06056 0 0 0 -18.05859,-18.0586 l -32.89258,0 0,-224.47265 a 18.06056,18.06056 0 0 0 -18.0586,-18.0586 l -27.71875,0 z" transform="matrix(1.05623 0 0 .94676 8 8)" opacity=".378"/></svg>