<svg xmlns="http://www.w3.org/2000/svg" width="512" height="512"><path d="m 78.101695,78.101695 0,355.796615 355.796615,0 0,-355.796615 -355.796615,0 z" color="#000" overflow="visible" fill="#ff5650"/><path d="m 78.101695,78.101695 0,355.796615 355.796615,0 0,-355.796615 -355.796615,0 z m 333.559325,111.186445 -88.94916,0 0,-88.94916 88.94916,0 0,88.94916 z m -200.1356,111.18644 0,-88.94916 88.94916,0 0,88.94916 -88.94916,0 z m 88.94916,22.23728 0,88.94916 -88.94916,0 0,-88.94916 88.94916,0 z m -111.18644,-22.23728 -88.94916,0 0,-88.94916 88.94916,0 0,88.94916 z m 22.23728,-111.18644 0,-88.94916 88.94916,0 0,88.94916 -88.94916,0 z m 111.18644,22.23728 88.94916,0 0,88.94916 -88.94916,0 0,-88.94916 z m -133.42372,-111.18644 0,88.94916 -88.94916,0 0,-88.94916 88.94916,0 z m -88.94916,222.37288 88.94916,0 0,88.94916 -88.94916,0 0,-88.94916 z m 222.37288,88.94916 0,-88.94916 88.94916,0 0,88.94916 -88.94916,0 z" color="#000" overflow="visible" fill="#003f80"/><path d="m -66.180371,-155.24769 c 109.3346,259.70966 54.6673,129.85483 0,0 z" fill="red"/></svg>