<svg xmlns="http://www.w3.org/2000/svg" width="512" height="512"><path transform="translate(2 4)" d="m 371.87891,123.11133 c -27.02192,0 -49.36485,9.37408 -65.36914,27.23633 -16.49556,18.37005 -24.04297,44.6325 -24.04297,78.24023 l 0,54.82422 c 0,33.58939 7.50081,60.17327 24.05273,78.25 16.35442,18.20682 38.73692,27.22656 65.70899,27.22656 26.63638,0 48.69859,-9.0452 64.69726,-27.26758 16.14837,-18.04297 24.01563,-44.58 24.01563,-78.20898 l 0,-54.82422 c 0,-33.30459 -7.91245,-59.51116 -24.00196,-77.8457 -0.0136,-0.0151 -0.0273,-0.03 -0.041,-0.0449 -16.30497,-18.15782 -38.32793,-27.58594 -65.01953,-27.58594 z m -224.11524,3.49219 -45.74609,0.3496 c -1.11785,0.009 -2.203667,0.37443 -3.099611,1.04297 l -39.810547,29.68164 c -1.329547,0.99144 -2.112935,2.55243 -2.113281,4.21094 l 0,39.71485 c 9.59e-4,4.45854 5.20492,6.88964 8.625,4.02929 l 27.671875,-15.14648 -0.31836,150.09765 -37.3125,4.66407 c -2.628704,0.32907 -4.601251,2.56367 -4.601562,5.21289 l 0,29.68164 c 1.65e-4,2.90158 2.352323,5.25374 5.253906,5.2539 l 133.39648,0 c 2.90158,-1.6e-4 5.25375,-2.35232 5.25391,-5.2539 l 0,-29.68164 c -3.1e-4,-2.64922 -1.97286,-4.88382 -4.60156,-5.21289 l -37.30274,-4.66407 0,-208.72656 c -8e-5,-2.91767 -2.37733,-5.27651 -5.29492,-5.2539 z m 224.11524,45.42773 c 9.24348,0 15.57619,3.68292 20.74609,11.58984 5.01692,7.67293 8.22266,21.0856 8.22266,40.07813 l 0,64.60156 c 0,19.71042 -3.19512,33.16984 -7.95118,40.89844 -4.76801,7.74803 -10.91626,11.11914 -20.66796,11.11914 -10.14403,0 -16.71064,-3.46426 -21.79493,-11.24024 -4.96513,-7.59373 -7.87304,-21.00653 -7.87304,-40.77734 l 0,-64.60156 c 0,-19.05514 2.94164,-32.88558 7.87304,-40.42774 5.08435,-7.77605 11.69362,-11.24023 21.44532,-11.24023 z M 212.96094,331.23828 c -2.90159,1.6e-4 -5.25375,2.35232 -5.25391,5.25391 l 0,43.65039 c 1.6e-4,2.90158 2.35233,5.25374 5.25391,5.2539 l 49.58594,0 c 2.90158,-1.6e-4 5.25374,-2.35232 5.2539,-5.2539 l 0,-43.65039 c -1.6e-4,-2.90158 -2.35232,-5.25375 -5.2539,-5.25391 z" opacity=".831" fill="#0b1728"/><path d="m 455.68827,283.4127 0,-54.82537 c 0,-32.47618 -7.68253,-57.26982 -22.6984,-74.38092 -15.36507,-17.11111 -35.61903,-25.84126 -61.11109,-25.84126 -25.84126,0 -46.44442,8.73015 -61.46029,25.49205 -15.36507,17.1111 -22.6984,41.90474 -22.6984,74.73013 l 0,54.82537 c 0,32.82539 7.33333,57.96823 22.6984,74.73013 15.36507,17.11111 35.96824,25.49205 61.8095,25.49205 25.49205,0 45.74601,-8.38094 60.76188,-25.49205 15.01587,-16.7619 22.6984,-41.90474 22.6984,-74.73013 z m -49.58728,-59.71426 0,64.60315 c 0,20.25396 -3.14285,34.57141 -8.73015,43.65078 -5.5873,9.07936 -13.96825,13.61904 -25.14285,13.61904 -11.52381,0 -20.25396,-4.53968 -26.19047,-13.61904 -5.9365,-9.07937 -8.73015,-23.39682 -8.73015,-43.65078 l 0,-64.60315 c 0,-19.55555 2.79365,-34.22221 8.73015,-43.30157 5.93651,-9.07936 14.66666,-13.61904 25.84126,-13.61904 10.8254,0 19.20635,4.88889 25.14285,13.96825 5.93651,9.07936 9.07936,23.39681 9.07936,42.95236 z m -143.55337,156.44438 0,-43.65077 -49.58728,0 0,43.65077 z m -206.235883,-29.68253 0,29.68253 133.396773,0 0,-29.68253 -41.90475,-5.23809 0,-213.36499 -45.74601,0.34921 -39.809507,29.68252 0,46.66342 36.317445,-20.88941 -0.349206,157.55925 z" /><path d="m 367.91992,138.76367 c -28.7534,0.20974 -57.07805,20.09647 -64.04711,48.54334 -9.60261,31.89749 -4.07892,65.57817 -5.62703,98.28256 0.3478,25.29673 5.35699,53.50002 25.42337,70.95751 25.41886,21.41608 65.51833,22.41868 92.42069,3.20487 20.65503,-15.89702 28.19383,-43.13386 28.71606,-68.18048 0.80391,-23.09095 0.0459,-46.24484 0.2273,-69.29217 -0.85557,-25.13125 -7.45278,-52.95722 -28.41015,-69.04688 -13.74049,-10.84113 -31.39315,-15.32247 -48.70313,-14.46875 z m -255.72851,3.75391 c -12.292138,0.18374 -20.460681,10.87404 -30.533207,16.33008 -5.004141,3.71511 -14.300589,6.45152 -12.778851,14.2539 -0.0239,7.29485 -0.514333,14.64761 0.743695,21.87891 9.911151,-6.22588 18.296847,-16.14808 30.179687,-18.33008 8.628856,1.2275 11.287606,12.07512 9.304966,19.35542 -0.69619,51.2251 1.09707,102.62186 -1.36356,153.73247 -5.08516,8.78915 -17.046153,6.24143 -25.531249,8.23633 -5.102667,0.57301 -10.276164,0.79006 -15.257813,2.14258 0.399434,3.13964 -2.329268,9.60744 3.070313,9.64843 36.334419,-0.5586 72.765679,0.0967 109.136719,-0.3457 -0.72627,-3.323 2.47261,-9.8064 -3.02149,-10.29687 -11.98934,-1.95798 -25.41421,-0.263 -36.0996,-6.94727 -6.00826,-8.6118 -1.22149,-19.47935 -2.82154,-29.1289 -0.0599,-60.14712 0.15068,-120.2946 -0.12573,-180.44141 -8.30133,0.20485 -16.60095,-0.15285 -24.90234,-0.0879 z m 260.12695,13.57226 c 22.38077,0.0382 40.30583,20.6606 42.10837,42.02449 4.99769,31.55011 0.78732,63.75287 2.19933,95.68806 -0.47485,20.00964 -4.24842,43.64132 -21.962,55.95933 -20.17792,13.14961 -51.90329,5.12824 -60.69336,-18.1211 -11.68555,-26.3129 -5.56292,-55.58133 -7.11257,-83.48612 -0.0989,-24.13602 -2.49935,-50.00538 9.27859,-71.96895 7.60973,-12.31087 21.52965,-20.65882 36.18164,-20.09571 z M 223.54297,349.07422 c 0,6.82877 0,13.65755 0,20.48633 9.47396,0 18.94792,0 28.42187,0 0,-7.49545 0,-14.99089 0,-22.48633 -9.47395,0 -18.94791,0 -28.42187,0 l 0,1 0,1 z" fill="#448ef9" fill-opacity=".988"/></svg>