<svg xmlns="http://www.w3.org/2000/svg" width="512" height="512"><path d="m 125.94803,154.38243 c -32.203781,-0.2418 -60.415465,26.49302 -66.09461,57.47486 -8.523241,33.42642 -6.778232,69.96347 7.112823,101.70228 10.854606,21.41982 33.994407,36.27729 58.229307,35.57006 27.1302,0.56409 54.42578,-16.12583 63.9659,-41.9621 13.92211,-31.69343 12.45391,-67.99008 4.7881,-101.06861 -6.6256,-23.09319 -24.11229,-44.91079 -48.61156,-49.76205 -6.3464,-1.47533 -12.88269,-2.03545 -19.38996,-1.95444 z m 1.7782,43.19179 c 7.81873,0.0275 14.52797,5.82278 17.63354,12.68704 -14.80581,10.39362 -28.93503,21.70998 -43.59376,32.25721 0.6906,-15.15505 3.40359,-33.07265 16.77414,-42.83338 2.82177,-1.45934 6.01636,-2.14911 9.18608,-2.11087 z m 24.98002,62.88274 c -0.57759,15.56359 -3.44074,34.39731 -17.55829,43.63733 -10.1101,4.94006 -24.96981,-1.95527 -26.3919,-12.6217 9.76644,-5.5261 17.88538,-13.59756 27.26837,-19.81628 5.57315,-4.1417 11.1463,-8.2834 16.71945,-12.42508 l -0.0312,1.01338 -0.006,0.21235 z" fill="#9f5"/><path d="m 256.62239,154.38243 c -32.20575,-0.24397 -60.41259,26.49656 -66.0946,57.47684 -8.52413,33.42512 -6.77646,69.9609 7.11282,101.69832 10.84993,21.41748 33.98597,36.27281 58.21544,35.57204 27.13599,0.5679 54.44406,-16.1218 63.98373,-41.96606 13.91282,-31.69445 12.45493,-67.9892 4.78413,-101.06664 -6.626,-23.09092 -24.11132,-44.90913 -48.60959,-49.75807 -6.3454,-1.48069 -12.88475,-2.03522 -19.39193,-1.95643 z m 2.90691,43.21357 c 7.32032,0.57144 13.37892,6.06076 16.4276,12.48309 -14.40938,10.8853 -28.87753,21.69395 -43.5007,32.29086 0.75204,-15.24473 3.48169,-33.97604 17.56227,-43.06901 2.96279,-1.34842 6.269,-1.89162 9.51083,-1.70494 z m 23.84538,62.90453 c -0.59371,15.62005 -3.3865,34.17149 -17.46325,43.53237 -10.14454,4.88133 -24.47563,-1.44654 -26.65131,-12.47517 10.38432,-5.96324 19.10471,-14.40036 29.0679,-21.11195 5.02809,-3.73685 10.05618,-7.47373 15.08428,-11.2106 l -0.0301,1.01341 -0.007,0.25194 z" fill="#9f5"/><path d="m 385.5225,154.43788 c -24.44126,-0.0112 -50.83764,13.26435 -59.1798,37.41756 -7.25693,20.3122 0.71694,44.2908 17.3385,57.59764 -20.18577,15.02583 -30.59827,44.44856 -18.90087,67.76588 9.15095,19.26951 30.4636,29.76573 51.06824,31.05246 24.49947,2.88043 52.1503,-2.7074 69.28936,-21.64065 15.97142,-18.69647 16.22389,-48.62394 0.21021,-67.40166 -3.41469,-4.40908 -7.42628,-8.35294 -11.86359,-11.72851 20.32861,-16.35096 27.43251,-49.07608 11.1425,-70.60545 -13.33306,-18.27011 -37.73649,-23.38768 -59.10455,-22.45727 z m 6.61778,42.6314 c 7.1588,-0.78639 17.71534,5.39186 13.75436,13.55436 -2.57165,6.89546 -9.26143,11.05342 -15.66524,13.92465 -8.03175,-3.97335 -19.63969,-8.80174 -19.62957,-19.35234 2.16674,-8.92952 14.52734,-8.03466 21.54045,-8.12667 z m -2.78216,76.87075 c 8.73173,4.35977 20.26016,11.00327 19.5365,22.24739 -3.69295,10.0385 -16.76651,9.95115 -25.70873,9.40191 -7.95842,-0.13838 -17.85111,-7.16259 -14.24744,-15.95434 2.68159,-8.34051 10.78986,-13.05861 18.08701,-16.87316 0.77755,0.39273 1.55511,0.78547 2.33266,1.1782 z" fill="#9f5"/><path d="m 126.56584,164.59225 c -21.62053,-0.2467 -41.979976,13.41678 -50.843791,32.98056 -12.155722,25.6903 -12.378329,55.34086 -8.521904,82.98079 3.355985,21.59125 13.801531,44.84401 35.175765,53.7088 22.97815,9.35715 52.507,4.45919 68.24507,-15.70088 17.9389,-22.70308 19.91557,-53.40287 18.31706,-81.19089 -1.64738,-23.4487 -8.23965,-49.63828 -28.64372,-63.77447 -9.87124,-6.60708 -21.94507,-9.36762 -33.72848,-9.00391 z m 130.67437,0 c -21.62062,-0.24734 -41.97841,13.41701 -50.84182,32.98056 -12.15932,25.68896 -12.37962,55.34096 -8.52388,82.98079 3.35598,21.59125 13.80153,44.84401 35.17576,53.7088 22.97815,9.35715 52.507,4.45919 68.24507,-15.70088 17.9389,-22.70308 19.91559,-53.40287 18.31706,-81.19089 -1.64738,-23.4487 -8.23964,-49.63828 -28.64372,-63.77447 -9.87124,-6.60708 -21.94507,-9.36762 -33.72847,-9.00391 z m 130.3991,-0.0101 c -19.67054,-0.071 -41.95385,8.16916 -50.33233,27.31664 -8.02506,17.27796 -1.73009,39.18415 13.79227,50.06534 3.62794,2.87893 7.55226,5.36857 11.60558,7.6016 -15.64493,8.08329 -30.64682,21.89509 -32.09285,40.48487 -2.37197,15.74393 5.29391,32.46212 19.45334,40.07696 18.3596,10.13424 40.86796,10.56375 60.85899,5.62967 17.29361,-4.22229 33.60471,-17.74102 35.61361,-36.27105 2.83012,-17.04053 -5.61046,-34.51416 -19.74837,-44.10068 -3.51547,-2.89252 -8.89629,-5.45615 -11.80982,-7.77619 14.64484,-7.863 27.99245,-21.8256 28.24733,-39.36211 1.40152,-15.04448 -6.63784,-30.61491 -20.60777,-36.93044 -10.79961,-5.31756 -23.05657,-6.92645 -34.97998,-6.73461 z m 0.93663,22.40974 c 10.5132,-0.26964 24.88978,2.88169 27.54834,14.87713 3.15991,11.82011 -5.1383,22.92645 -15.15506,28.32224 -4.91818,2.57232 -10.23608,7.94028 -15.4685,3.41419 -10.33428,-5.35823 -24.2832,-12.25764 -24.89092,-25.70082 -1.13741,-9.1218 5.60218,-17.55279 14.50288,-19.26126 4.36996,-1.24109 8.93502,-1.63954 13.46326,-1.65148 z m -261.3408,0.50693 c 14.10115,-0.67934 25.72472,11.20314 29.56389,24.11907 2.33229,4.52949 -6.19113,5.67941 -8.21767,8.84509 -18.9819,13.96791 -38.15991,28.36585 -57.019244,42.06504 -0.494575,-22.01934 -0.504025,-46.44879 13.611794,-64.73818 5.30983,-6.59556 13.60203,-10.42971 22.06123,-10.29102 z m 130.67635,0 c 14.08624,-0.672 25.73353,11.19901 29.56191,24.11907 2.33229,4.52949 -6.19114,5.67941 -8.21768,8.84509 -18.98189,13.96791 -38.1599,28.36585 -57.01924,42.06504 -0.49458,-22.01934 -0.50403,-46.44879 13.61179,-64.73818 5.30843,-6.59513 13.60497,-10.43125 22.06322,-10.29102 z m -95.49639,52.41548 c 1.45876,21.25284 0.95799,44.53027 -11.12009,63.05522 -9.66196,15.46357 -34.42487,17.51549 -45.9112,3.05325 -4.28561,-5.07287 -7.008636,-11.26254 -8.994004,-17.54642 21.995884,-16.34708 43.991784,-32.69416 65.987664,-49.04124 l 0.0376,0.47919 z m 130.67436,0 c 1.45876,21.25284 0.95799,44.53027 -11.12009,63.05522 -9.66403,15.45747 -34.42451,17.51666 -45.9112,3.05325 -4.28561,-5.07287 -7.00862,-11.26254 -8.99401,-17.54642 21.99591,-16.34708 43.99179,-32.69416 65.98768,-49.04124 l 0.0376,0.47919 z m 95.31817,22.25135 c 11.81257,5.99215 26.79574,12.86955 30.02751,27.0711 2.74922,9.73537 -2.85105,20.45167 -12.45337,23.6137 -13.38666,4.49702 -30.32422,4.87843 -41.72052,-4.5881 -10.42371,-9.2585 -6.49281,-26.91254 3.65345,-34.72895 5.61838,-5.00084 12.21005,-8.76189 18.92067,-12.09052 l 0.92117,0.42347 0.65109,0.2993 z" fill="#0a0"/><path d="m 444.94627,292.89299 q 0,10.51413 -4.30699,18.74809 -4.30699,8.10728 -12.03425,13.68104 -7.72725,5.57375 -18.24138,8.48731 -10.51413,2.91355 -22.80173,2.91355 -13.55436,0 -23.94181,-3.04023 -10.26078,-3.04023 -17.22798,-8.48731 -6.96719,-5.44708 -10.51413,-12.92098 -3.54694,-7.4739 -3.54694,-16.46791 0,-15.20116 8.48732,-26.22199 8.48731,-11.02084 26.22198,-20.01486 -16.21456,-8.23395 -23.68846,-18.24138 -7.4739,-10.1341 -7.4739,-23.18176 0,-7.9806 3.29358,-15.4545 3.29359,-7.4739 9.88075,-13.30101 6.71385,-5.82711 16.72127,-9.24737 10.00743,-3.54694 23.56179,-3.54694 12.7943,0 22.4217,2.78688 9.75407,2.6602 16.34124,7.72725 6.58717,5.06706 9.88075,12.2876 3.29358,7.22055 3.29358,16.08789 0,14.4411 -8.10728,24.5752 -7.9806,10.1341 -22.80173,17.73468 7.34723,3.67361 13.68104,8.10728 6.33381,4.43367 11.02083,9.88075 4.68703,5.44708 7.22055,12.16092 2.6602,6.71384 2.6602,14.9478 z m -26.22198,-85.63316 q 0,-11.27419 -7.98061,-16.72127 -7.85393,-5.57376 -22.16835,-5.57376 -14.18774,0 -22.16835,5.44708 -7.85393,5.44708 -7.85393,16.34124 0,4.94038 1.90015,9.1207 1.90014,4.18031 5.82711,7.85392 4.05364,3.67362 10.00742,7.22055 5.95379,3.54694 14.18775,7.22055 14.31441,-6.71384 21.28161,-13.93439 6.9672,-7.34722 6.9672,-16.97462 z m 2.28017,87.27995 q 0,-4.68702 -1.52012,-9.12069 -1.52011,-4.43367 -5.44708,-8.74066 -3.92696,-4.307 -10.51413,-8.61399 -6.58716,-4.30699 -16.72127,-8.86734 -8.61398,4.18032 -14.56777,8.36064 -5.82711,4.05364 -9.50072,8.36063 -3.54693,4.18032 -5.06705,8.74066 -1.52012,4.56035 -1.52012,9.6274 0,5.70043 2.40685,10.1341 2.53353,4.307 6.84052,7.34723 4.307,3.04023 10.26078,4.56034 5.95379,1.52012 12.92098,1.52012 6.71384,0 12.66763,-1.39344 5.95378,-1.39344 10.26078,-4.18032 4.43367,-2.91355 6.96719,-7.22055 2.53353,-4.43367 2.53353,-10.51413 z M 318.07197,251.7232 q 0,19.00144 -3.80029,34.7093 -3.80028,15.58118 -11.52754,26.85537 -7.72725,11.14751 -19.25479,17.35465 -11.40087,6.08046 -26.85537,6.08046 -13.30101,0 -24.19517,-4.94037 -10.89416,-5.06705 -18.62141,-15.45451 -7.72726,-10.38745 -11.90757,-26.47534 -4.18032,-16.08789 -4.18032,-38.12956 0,-19.00144 3.80029,-34.7093 3.92696,-15.70786 11.52754,-26.85537 7.72725,-11.27419 19.25479,-17.35465 11.52754,-6.20714 26.85537,-6.20714 13.30101,0 24.19517,5.06705 10.89416,4.94038 18.62141,15.45451 7.72726,10.38746 11.90757,26.47534 4.18032,16.08789 4.18032,38.12956 z m -22.29502,0.76006 q 0,-4.30699 -0.38003,-8.48731 -0.25335,-4.30699 -0.63338,-8.36064 l -70.05198,52.06395 q 1.90014,6.58717 4.81369,12.16093 2.91356,5.57375 6.9672,9.62739 4.18032,3.92697 9.37404,6.20714 5.32041,2.1535 12.03425,2.1535 8.61399,0 15.58118,-4.18032 7.09387,-4.18032 12.03425,-12.41427 4.94037,-8.23396 7.60058,-20.39488 2.6602,-12.2876 2.6602,-28.37549 z m -75.75242,-1.52012 q 0,3.92697 0,7.85393 0.12668,3.92697 0.50671,7.60058 l 70.05198,-51.8106 q -1.90014,-6.46049 -4.8137,-11.78089 -2.91355,-5.3204 -6.96719,-9.12069 -4.05364,-3.92697 -9.24737,-6.08046 -5.19373,-2.1535 -11.65422,-2.1535 -8.61399,0 -15.70786,4.18032 -6.96719,4.18031 -11.90757,12.54095 -4.94037,8.23396 -7.60057,20.52155 -2.66021,12.16093 -2.66021,28.24881 z m -32.62715,0.76006 q 0,19.00144 -3.80029,34.7093 -3.80029,15.58118 -11.52754,26.85537 -7.72725,11.14751 -19.25479,17.35465 -11.40087,6.08046 -26.85537,6.08046 -13.30101,0 -24.19517,-4.94037 -10.894162,-5.06705 -18.621415,-15.45451 -7.727253,-10.38745 -11.90757,-26.47534 -4.180317,-16.08789 -4.180317,-38.12956 0,-19.00144 3.800288,-34.7093 3.926965,-15.70786 11.527542,-26.85537 7.727252,-11.27419 19.254792,-17.35465 11.52754,-6.20714 26.85537,-6.20714 13.30101,0 24.19517,5.06705 10.89416,4.94038 18.62141,15.45451 7.72726,10.38746 11.90757,26.47534 4.18032,16.08789 4.18032,38.12956 z m -22.29502,0.76006 q 0,-4.30699 -0.38003,-8.48731 -0.25336,-4.30699 -0.63338,-8.36064 l -70.051985,52.06395 q 1.900144,6.58717 4.813699,12.16093 2.913556,5.57375 6.967196,9.62739 4.18032,3.92697 9.37404,6.20714 5.32041,2.1535 12.03425,2.1535 8.61399,0 15.58118,-4.18032 7.09387,-4.18032 12.03425,-12.41427 4.94037,-8.23396 7.60057,-20.39488 2.66021,-12.2876 2.66021,-28.37549 z m -75.752417,-1.52012 q 0,3.92697 0,7.85393 0.126676,3.92697 0.506705,7.60058 l 70.051982,-51.8106 q -1.90015,-6.46049 -4.8137,-11.78089 -2.91355,-5.3204 -6.96719,-9.12069 -4.05365,-3.92697 -9.24737,-6.08046 -5.19373,-2.1535 -11.65422,-2.1535 -8.61399,0 -15.70786,4.18032 -6.96719,4.18031 -11.907569,12.54095 -4.940375,8.23396 -7.600576,20.52155 -2.660202,12.16093 -2.660202,28.24881 z" /></svg>