<svg xmlns="http://www.w3.org/2000/svg" height="612" width="612"><path d="m 91.025424,93.618646 122.842606,0 0,121.360764 -122.842606,0 z" fill="green" stroke="#000" stroke-width="14.3" fill-opacity=".502"/><path d="m 244.57868,95.61865 122.84262,0 0,121.36076 -122.84262,0 z" fill="#0cf" fill-opacity=".502" stroke="#000" stroke-width="14.3"/><path d="M398.13195 93.618646l122.8426 0 0 121.360764-122.8426 0zM91.025424 245.3196l122.842606 0 0 121.36078-122.842606 0z" fill="#803300" stroke="#000" stroke-width="14.3" fill-opacity=".502"/><path d="m 244.57868,247.3196 122.84262,0 0,121.36078 -122.84262,0 z" fill="#0cf" fill-opacity=".502" stroke="#000" stroke-width="14.3"/><path d="M398.13195 245.3196l122.8426 0 0 121.36078-122.8426 0zM91.025424 397.02057l122.842606 0 0 121.36077-122.842606 0zM244.57868 397.02057l122.84262 0 0 121.36077-122.84262 0zM398.13195 397.02057l122.8426 0 0 121.36077-122.8426 0z" fill="green" stroke="#000" stroke-width="14.3" fill-opacity=".502"/></svg>