<svg xmlns="http://www.w3.org/2000/svg" height="612" width="612"><g stroke="#000" stroke-width="19.171"><g fill-opacity=".502"><path d="m 124.73729,122.14407 122.8426,0 0,121.36076 -122.8426,0 z" fill="green" transform="matrix(.74596 0 0 .74584 3.811 9.916)"/><path d="m 278.29054,124.14407 122.84262,0 0,121.36076 -122.84262,0 z" fill="#0cf" transform="matrix(.74596 0 0 .74584 3.811 9.916)"/><path d="M431.84381 122.14407l122.8426 0 0 121.36076-122.8426 0zM124.73729 273.84502l122.8426 0 0 121.36078-122.8426 0z" fill="#803300" transform="matrix(.74596 0 0 .74584 3.811 9.916)"/><path d="m 278.29054,275.84502 122.84262,0 0,121.36078 -122.84262,0 z" fill="#0cf" transform="matrix(.74596 0 0 .74584 3.811 9.916)"/><path d="M431.84381 273.84502l122.8426 0 0 121.36078-122.8426 0zM124.73729 425.54599l122.8426 0 0 121.36077-122.8426 0zM278.29054 425.54599l122.84262 0 0 121.36077-122.84262 0zM431.84381 425.54599l122.8426 0 0 121.36077-122.8426 0z" fill="green" transform="matrix(.74596 0 0 .74584 3.811 9.916)"/></g><g fill-opacity=".502"><path d="m 124.73729,122.14407 122.8426,0 0,121.36076 -122.8426,0 z" fill="green" transform="matrix(.74596 0 0 .74584 23.323 28.549)"/><path d="m 278.29054,124.14407 122.84262,0 0,121.36076 -122.84262,0 z" fill="#0cf" transform="matrix(.74596 0 0 .74584 23.323 28.549)"/><path d="M431.84381 122.14407l122.8426 0 0 121.36076-122.8426 0zM124.73729 273.84502l122.8426 0 0 121.36078-122.8426 0z" fill="#803300" transform="matrix(.74596 0 0 .74584 23.323 28.549)"/><path d="m 278.29054,275.84502 122.84262,0 0,121.36078 -122.84262,0 z" fill="#0cf" transform="matrix(.74596 0 0 .74584 23.323 28.549)"/><path d="M431.84381 273.84502l122.8426 0 0 121.36078-122.8426 0zM124.73729 425.54599l122.8426 0 0 121.36077-122.8426 0zM278.29054 425.54599l122.84262 0 0 121.36077-122.84262 0zM431.84381 425.54599l122.8426 0 0 121.36077-122.8426 0z" fill="green" transform="matrix(.74596 0 0 .74584 23.323 28.549)"/></g><g fill-opacity=".502"><path d="m 124.73729,122.14407 122.8426,0 0,121.36076 -122.8426,0 z" fill="green" transform="matrix(.74596 0 0 .74584 42.834 47.181)"/><path d="m 278.29054,124.14407 122.84262,0 0,121.36076 -122.84262,0 z" fill="#0cf" transform="matrix(.74596 0 0 .74584 42.834 47.181)"/><path d="M431.84381 122.14407l122.8426 0 0 121.36076-122.8426 0zM124.73729 273.84502l122.8426 0 0 121.36078-122.8426 0z" fill="#803300" transform="matrix(.74596 0 0 .74584 42.834 47.181)"/><path d="m 278.29054,275.84502 122.84262,0 0,121.36078 -122.84262,0 z" fill="#0cf" transform="matrix(.74596 0 0 .74584 42.834 47.181)"/><path d="M431.84381 273.84502l122.8426 0 0 121.36078-122.8426 0zM124.73729 425.54599l122.8426 0 0 121.36077-122.8426 0zM278.29054 425.54599l122.84262 0 0 121.36077-122.84262 0zM431.84381 425.54599l122.8426 0 0 121.36077-122.8426 0z" fill="green" transform="matrix(.74596 0 0 .74584 42.834 47.181)"/></g><g fill-opacity=".502"><path d="m 124.73729,122.14407 122.8426,0 0,121.36076 -122.8426,0 z" fill="green" transform="matrix(.74596 0 0 .74584 62.345 65.814)"/><path d="m 278.29054,124.14407 122.84262,0 0,121.36076 -122.84262,0 z" fill="#0cf" transform="matrix(.74596 0 0 .74584 62.345 65.814)"/><path d="M431.84381 122.14407l122.8426 0 0 121.36076-122.8426 0zM124.73729 273.84502l122.8426 0 0 121.36078-122.8426 0z" fill="#803300" transform="matrix(.74596 0 0 .74584 62.345 65.814)"/><path d="m 278.29054,275.84502 122.84262,0 0,121.36078 -122.84262,0 z" fill="#0cf" transform="matrix(.74596 0 0 .74584 62.345 65.814)"/><path d="M431.84381 273.84502l122.8426 0 0 121.36078-122.8426 0zM124.73729 425.54599l122.8426 0 0 121.36077-122.8426 0zM278.29054 425.54599l122.84262 0 0 121.36077-122.84262 0zM431.84381 425.54599l122.8426 0 0 121.36077-122.8426 0z" fill="green" transform="matrix(.74596 0 0 .74584 62.345 65.814)"/></g><g fill-opacity=".502"><path d="m 124.73729,122.14407 122.8426,0 0,121.36076 -122.8426,0 z" fill="green" transform="matrix(.74596 0 0 .74584 81.856 84.446)"/><path d="m 278.29054,124.14407 122.84262,0 0,121.36076 -122.84262,0 z" fill="#0cf" transform="matrix(.74596 0 0 .74584 81.856 84.446)"/><path d="M431.84381 122.14407l122.8426 0 0 121.36076-122.8426 0zM124.73729 273.84502l122.8426 0 0 121.36078-122.8426 0z" fill="#803300" transform="matrix(.74596 0 0 .74584 81.856 84.446)"/><path d="m 278.29054,275.84502 122.84262,0 0,121.36078 -122.84262,0 z" fill="#0cf" transform="matrix(.74596 0 0 .74584 81.856 84.446)"/><path d="M431.84381 273.84502l122.8426 0 0 121.36078-122.8426 0zM124.73729 425.54599l122.8426 0 0 121.36077-122.8426 0zM278.29054 425.54599l122.84262 0 0 121.36077-122.84262 0zM431.84381 425.54599l122.8426 0 0 121.36077-122.8426 0z" fill="green" transform="matrix(.74596 0 0 .74584 81.856 84.446)"/></g><path d="m 124.73729,122.14407 122.8426,0 0,121.36076 -122.8426,0 z" fill="#00d800" fill-opacity=".816" transform="matrix(.74596 0 0 .74584 101.368 103.078)"/><path d="m 278.29054,124.14407 122.84262,0 0,121.36076 -122.84262,0 z" fill="#27d4ff" fill-opacity=".567" transform="matrix(.74596 0 0 .74584 101.368 103.078)"/><path d="M431.84381 122.14407l122.8426 0 0 121.36076-122.8426 0zM124.73729 273.84502l122.8426 0 0 121.36078-122.8426 0z" fill="#e15a00" fill-opacity=".659" transform="matrix(.74596 0 0 .74584 101.368 103.078)"/><path d="m 278.29054,275.84502 122.84262,0 0,121.36078 -122.84262,0 z" fill="#27d4ff" fill-opacity=".567" transform="matrix(.74596 0 0 .74584 101.368 103.078)"/><path d="M431.84381 273.84502l122.8426 0 0 121.36078-122.8426 0zM124.73729 425.54599l122.8426 0 0 121.36077-122.8426 0zM278.29054 425.54599l122.84262 0 0 121.36077-122.84262 0zM431.84381 425.54599l122.8426 0 0 121.36077-122.8426 0z" fill="#00d800" fill-opacity=".816" transform="matrix(.74596 0 0 .74584 101.368 103.078)"/></g></svg>