<svg xmlns="http://www.w3.org/2000/svg" width="512" height="512"><path d="m 255.77539,79.876953 c -2.06989,-0.09147 -4.131,0.355362 -6.61328,1.777344 C 201.51782,120.74072 154.57153,160.83489 107.125,200.36719 l 0.31836,-0.28907 c -8.494181,8.3273 -18.243187,13.56626 -22.900391,21.0293 -1.408026,13.71417 -0.15227,28.3235 -0.625,43.29297 l -0.01953,-0.63867 c 1.047791,11.78535 -1.495985,22.18232 1.939453,29.48437 50.498239,43.23402 101.847239,85.62246 152.734379,128.58789 a 5.3132454,5.3132454 0 0 1 0.36523,0.3379 c 3.8334,3.90785 8.83789,7.55425 13.43359,9.04296 4.5957,1.48872 8.29542,1.35702 12.49219,-2.19922 a 5.3132454,5.3132454 0 0 1 0.0273,-0.0234 C 318.29166,384.3481 371.59131,339.3895 424.96875,294.61133 a 5.3132454,5.3132454 0 0 1 0.043,-0.0352 c 1.36491,-1.12053 2.33145,-2.6347 2.7539,-4.12109 0.69553,-15.33196 0.10202,-30.9813 0.31446,-46.83203 l 0.0351,0.68359 c -0.68329,-5.88358 0.16942,-11.42151 0.17579,-16.05469 0.006,-4.55002 -0.58736,-7.7248 -2.88868,-10.34375 C 376.25865,176.2845 326.73973,135.02838 277.42383,93.521484 a 5.3132454,5.3132454 0 0 1 -0.0312,-0.02734 C 269.96598,87.142644 262.1771,80.15986 255.77539,79.876953 Z" fill="#d9e294"/><path d="m 57.769531,2.6523438 c -0.535878,0 -1.025053,0.2258077 -1.36914,0.5703124 L 14.197266,46.03125 a 2.6524101,2.6524101 0 0 1 -0.01367,0.01367 c -0.349914,0.349914 -0.542969,0.814652 -0.542969,1.341797 l 0,20.765625 0,0.08203 c 0,0.106024 0.0091,0.203594 0.02734,0.292969 a 2.6524101,2.6524101 0 0 1 0.0059,0.02539 c -0.05734,-0.295191 -0.0027,-0.192241 0.109375,0.375 l -0.08398,-0.318359 c 0.07919,0.238999 0.08372,0.275555 0.09766,0.333984 0.0057,0.01065 -0.02596,-0.0532 0.01758,0.01953 a 2.6524101,2.6524101 0 0 1 0.162109,0.318359 c -0.03502,-0.05745 -0.0275,-0.05441 0.183594,0.208984 a 2.6524101,2.6524101 0 0 1 0.0957,0.13086 l 42.126953,42.677736 a 2.6524101,2.6524101 0 0 1 0.01953,0.0176 c 0.344919,0.35624 0.836282,0.56836 1.367187,0.56836 0.534045,0 0.985344,-0.18457 1.398438,-0.59766 L 101.3418,69.507812 a 2.6524101,2.6524101 0 0 1 0.0254,-0.02539 c -0.32064,0.316771 -0.21896,0.177825 0.18554,-0.236328 l -0.0469,0.07422 c 0.0869,-0.145117 0.10254,-0.199416 0.0488,-0.07031 a 2.6524101,2.6524101 0 0 1 0.008,-0.01758 2.6524101,2.6524101 0 0 1 0.002,-0.0059 l -0.008,0.01367 -0.18164,0.203125 c 0.23334,-0.293285 0.24563,-0.302353 0.18945,-0.216797 a 2.6524101,2.6524101 0 0 1 0.0723,-0.152343 c 0.11454,-0.226991 0.18796,-0.357119 0.17969,-0.339844 -0.10871,0.220908 -0.0407,0.04089 0.0215,-0.136719 0.01,-0.02525 0.034,-0.118458 0.0293,-0.08789 0.0179,-0.119731 0.0312,-0.235807 0.0312,-0.353516 l 0,-20.767578 0,-0.002 c -9.2e-4,-0.529179 -0.19423,-0.993055 -0.54297,-1.341797 a 2.6524101,2.6524101 0 0 1 -0.0137,-0.01367 L 59.933594,4 61.013672,4 A 2.6524101,2.6524101 0 0 1 59.136719,3.2226562 C 58.791976,2.8774947 58.305589,2.6523438 57.769531,2.6523438 Z M 53.195312,13.107422 a 2.6524101,2.6524101 0 0 1 2.632813,2.652344 l 0,7.671875 a 2.6524101,2.6524101 0 0 1 -0.763672,1.861328 L 22.0625,58.791016 a 2.6524101,2.6524101 0 0 1 -4.541016,-1.861328 l 0,-7.671876 a 2.6524101,2.6524101 0 0 1 0.763672,-1.861328 L 51.287109,13.898438 a 2.6524101,2.6524101 0 0 1 1.908203,-0.791016 z m 9.244141,0.002 A 2.6524101,2.6524101 0 0 1 64.25,13.898438 l 33.001953,33.498046 a 2.6524101,2.6524101 0 0 1 0.763672,1.861328 l 0,0.109376 0,7.589843 a 2.6524101,2.6524101 0 0 1 -4.542969,1.861328 L 60.470703,25.292969 a 2.6524101,2.6524101 0 0 1 -0.761719,-1.861328 l 0,-7.671875 a 2.6524101,2.6524101 0 0 1 2.730469,-2.650391 z m -4.650391,16.085937 a 2.6524101,2.6524101 0 0 1 1.871094,0.791016 l 35.751953,36.304688 a 2.6524101,2.6524101 0 0 1 -0.002,3.722656 L 59.658203,106.28906 a 2.6524101,2.6524101 0 0 1 -3.777344,0 L 20.126953,70.013672 a 2.6524101,2.6524101 0 0 1 0,-3.722656 L 55.880859,29.986328 a 2.6524101,2.6524101 0 0 1 1.908203,-0.791016 z" transform="matrix(3.79194 0 0 -3.13834 36.941 437.299)" fill="navy"/><path d="m -164.0019,122.43551 c 109.3346,259.70966 54.6673,129.85483 0,0 z" fill="red"/></svg>