<svg width="512" height="512" xmlns="http://www.w3.org/2000/svg"><path d="M42 0C20 0 2 18 2 40v432c0 22 18 40 40 40h368c22 0 40-18 40-40v-37.123l-32 4.129V472c0 4.336-3.664 8-8 8H42c-4.336 0-8-3.664-8-8V40c0-4.336 3.664-8 8-8h240c2.416 0 5.127.305 8 .852v98.316L317.844 160h99.304c.073.381.13.752.194 1.127 6.146-12.024 10.846-23.775 13.93-34.842a168.078 168.078 0 0 0 2.582-10.533c-3.684-6.18-7.8-11.7-12.137-16.037l-71.434-71.432C334.727 12.727 304 0 282 0H42zm405.553 18.73l-8.742 7.657c59.34 49.27 24.154 160.06-62.655 240.343l-65.31-67.625-36.11 225.915 226.118-29.17-56.524-58.528c79.317-84.948 87.658-277.641 3.223-318.592zM322 46.271c2.17 1.515 4.091 3.076 5.656 4.641l71.434 71.432c1.565 1.565 3.124 3.486 4.639 5.656H322V46.271z"/></svg>