<svg xmlns="http://www.w3.org/2000/svg" height="612" width="612"><path d="M462.81319 404.27439l-11.76478 5.46988-3.60654 12.46318c-3.98647 13.77617-9.68449 28.75175-15.34804 42.28301-5.6291-13.4428-11.32805-28.41837-15.33594-42.28115l-3.60468-12.46597-11.76664-5.47174c-26.00284-12.09256-42.80541-38.46509-42.80541-67.18703 0-40.83313 32.98311-74.05277 73.52385-74.05277 40.54073 0 73.52291 33.21964 73.52291 74.05277-.002 28.72567-16.80723 55.09912-42.81473 67.18982zM160.94693 250.49225l-11.76664-5.47173c-26.00284-12.09163-42.80541-38.46508-42.80541-67.18703 0-40.83313 32.98311-74.05277 73.52291-74.05277 40.54074 0 73.52292 33.21964 73.52292 74.05277 0 28.72568-16.80537 55.10006-42.81287 67.18983l-11.76571 5.46893-3.60654 12.46412c-3.98647 13.77804-9.68449 28.75174-15.34805 42.28301-5.62909-13.44281-11.32897-28.42023-15.33593-42.28114l-3.60468-12.46599z" fill="#f60"/><path d="m 466.01095,337.08365 a 33.908727,34.084724 0 0 1 -33.90874,34.08473 33.908727,34.084724 0 0 1 -33.90873,-34.08473 33.908727,34.084724 0 0 1 33.90873,-34.08472 33.908727,34.084724 0 0 1 33.90874,34.08472 z m -33.9078,-102.57079 c -56.35625,0 -102.04187,45.92307 -102.04187,102.57078 0,41.28663 24.32016,76.78026 59.29884,93.04646 0.50284,1.73856 1.05225,3.50225 1.59887,5.26315 l -196.85201,0 0,-91.88247 c 8.42177,-17.99917 21.04698,-46.79653 28.52173,-72.62709 34.98426,-16.26342 59.30908,-51.76077 59.30908,-93.0502 9.3e-4,-56.64863 -45.68469,-102.570775 -102.04094,-102.570775 -56.3553,0 -102.040918,45.922145 -102.040918,102.570775 0,41.28664 24.320158,76.78026 59.298838,93.04554 7.44214,25.74024 19.99752,54.40909 28.4342,72.41851 l 0,120.61372 235.50055,0 c 10.71253,27.21526 22.69149,51.19739 25.03253,55.78913 l 5.9811,11.85046 6.01834,-11.85046 c 3.26479,-6.50256 25.64897,-51.33148 36.7135,-89.56563 34.98426,-16.26341 59.30908,-51.76077 59.30908,-93.05112 0,-56.64771 -45.68469,-102.57078 -102.04092,-102.57078 z m -271.15622,15.97939 -11.76664,-5.47173 c -26.00284,-12.09163 -42.80541,-38.46508 -42.80541,-67.18703 0,-40.83313 32.98311,-74.05277 73.52291,-74.05277 40.54074,0 73.52292,33.21964 73.52292,74.05277 0,28.72568 -16.80537,55.10006 -42.81287,67.18983 l -11.76571,5.46893 -3.60654,12.46412 c -3.98647,13.77804 -9.68449,28.75174 -15.34805,42.28301 -5.62909,-13.44281 -11.32897,-28.42023 -15.33593,-42.28114 l -3.60468,-12.46599 z m 301.86626,153.78214 -11.76478,5.46988 -3.60654,12.46318 c -3.98647,13.77617 -9.68449,28.75175 -15.34804,42.28301 -5.6291,-13.4428 -11.32805,-28.41837 -15.33594,-42.28115 l -3.60468,-12.46597 -11.76664,-5.47174 c -26.00284,-12.09256 -42.80541,-38.46509 -42.80541,-67.18703 0,-40.83313 32.98311,-74.05277 73.52385,-74.05277 40.54073,0 73.52291,33.21964 73.52291,74.05277 -0.002,28.72567 -16.80723,55.09912 -42.81473,67.18982 z m -249.0076,-226.4409 a 33.908727,34.084724 0 0 1 -33.90874,34.08472 33.908727,34.084724 0 0 1 -33.90872,-34.08472 33.908727,34.084724 0 0 1 33.90872,-34.08471 33.908727,34.084724 0 0 1 33.90874,34.08471 z"/></svg>