<svg xmlns="http://www.w3.org/2000/svg" height="512" width="512"><path d="m 396.67796,171.59321 q 2.81358,2.81356 5.62715,7.23486 l -94.85715,0 0,-94.857142 q 4.42131,2.81358 7.23487,5.62712 z m -95.661,32.95884 109.32687,0 0,212.22278 q 0,8.03874 -5.62711,13.66586 -5.62712,5.62711 -13.66586,5.62711 l -270.10171,0 q -8.03874,0 -13.66585,-5.62711 -5.62713,-5.62712 -5.62713,-13.66586 l 0,-321.549662 q 0,-8.03873 5.62713,-13.66586 5.62711,-5.62711 13.66585,-5.62711 l 160.77483,0 0,109.326862 q 0,8.03875 5.62711,13.66586 5.62715,5.62713 13.66587,5.62713 z m 32.15497,147.91286 0,-12.86201 q 0,-2.81356 -1.80872,-4.62227 -1.80872,-1.80871 -4.62229,-1.80871 l -141.48184,0 q -2.81357,0 -4.62227,1.80871 -1.80872,1.80871 -1.80872,4.62227 l 0,12.86201 q 0,2.81355 1.80872,4.62227 1.8087,1.80871 4.62227,1.80871 l 141.48184,0 q 2.81357,0 4.62229,-1.80871 1.80872,-1.80872 1.80872,-4.62227 z m 0,-51.44797 0,-12.86198 q 0,-2.81358 -1.80872,-4.62227 -1.80872,-1.80872 -4.62229,-1.80872 l -141.48184,0 q -2.81357,0 -4.62227,1.80872 -1.80872,1.80869 -1.80872,4.62227 l 0,12.86198 q 0,2.81355 1.80872,4.62228 1.8087,1.80873 4.62227,1.80873 l 141.48184,0 q 2.81357,0 4.62229,-1.80873 1.80872,-1.80873 1.80872,-4.62228 z m 0,-51.44794 0,-12.86198 q 0,-2.81357 -1.80872,-4.62228 -1.80872,-1.8087 -4.62229,-1.8087 l -141.48184,0 q -2.81357,0 -4.62227,1.8087 -1.80872,1.80871 -1.80872,4.62228 l 0,12.86198 q 0,2.81357 1.80872,4.62227 1.8087,1.80872 4.62227,1.80872 l 141.48184,0 q 2.81357,0 4.62229,-1.80872 1.80872,-1.8087 1.80872,-4.62227 z"/></svg>