<svg xmlns="http://www.w3.org/2000/svg" height="512" width="512"><path d="m 398.02081,146.93749 q 5.68084,5.91812 9.73859,16.06346 4.05774,10.14536 4.05774,18.59981 l 0,243.48844 q 0,8.45445 -5.68083,14.37257 -5.68085,5.91811 -13.79632,5.91811 l -272.67999,0 q -8.11548,0 -13.79631,-5.91811 -5.68083,-5.91812 -5.68083,-14.37257 l 0,-338.178368 q 0,-8.454462 5.68083,-14.372585 5.68083,-5.918131 13.79631,-5.918131 l 181.78666,0 q 8.11549,0 17.85405,4.227233 9.73857,4.227238 15.41941,10.145361 z m -90.08175,-51.572195 0,79.471895 76.28545,0 q -2.02885,-6.12948 -4.46351,-8.66581 l -63.50358,-66.15614 q -2.43466,-2.536332 -8.31836,-4.649945 z m 77.90856,322.960335 0,-216.43416 -84.40096,0 q -8.11547,0 -13.79632,-5.91814 -5.68082,-5.91811 -5.68082,-14.37257 l 0,-87.926362 -155.81715,0 0,324.651232 259.69525,0 z M 178.09143,235.7093 q 0,-2.95904 1.82598,-4.86131 1.82599,-1.90226 4.6664,-1.90226 l 142.83239,0 q 2.8404,0 4.6664,1.90226 1.82598,1.90227 1.82598,4.86131 l 0,13.52714 q 0,2.95905 -1.82598,4.86131 Q 330.2566,256 327.4162,256 l -142.83239,0 q -2.84041,0 -4.6664,-1.90225 -1.82598,-1.90226 -1.82598,-4.86131 l 0,-13.52714 z m 149.32477,47.34497 q 2.8404,0 4.6664,1.90226 1.82598,1.90225 1.82598,4.86131 l 0,13.52713 q 0,2.95907 -1.82598,4.86132 -1.826,1.90225 -4.6664,1.90225 l -142.83239,0 q -2.84041,0 -4.6664,-1.90225 -1.82598,-1.90225 -1.82598,-4.86132 l 0,-13.52713 q 0,-2.95906 1.82598,-4.86131 1.82599,-1.90226 4.6664,-1.90226 l 142.83239,0 z m 0,54.10855 q 2.8404,0 4.6664,1.90226 1.82598,1.90224 1.82598,4.8613 l 0,13.52714 q 0,2.95905 -1.82598,4.8613 -1.826,1.90226 -4.6664,1.90226 l -142.83239,0 q -2.84041,0 -4.6664,-1.90226 -1.82598,-1.90225 -1.82598,-4.8613 l 0,-13.52714 q 0,-2.95906 1.82598,-4.8613 1.82599,-1.90226 4.6664,-1.90226 l 142.83239,0 z"/></svg>