<svg xmlns="http://www.w3.org/2000/svg" width="512" height="512"><path d="m 232.06112,139.4208 c -3.64537,0 -6.64144,1.00552 -8.98492,3.01589 -2.34346,2.01035 -3.51294,4.58 -3.51294,7.70724 l 0,47.49368 -149.490922,0 0.100887,119.45099 149.390035,0 0,47.49219 c 0,2.90385 1.23655,5.4199 3.71019,7.54193 2.47367,2.12206 5.40267,3.18268 8.78767,3.18268 3.64538,0 6.64142,-1.00551 8.9849,-3.01588 L 366.0276,265.07034 c 2.34348,-2.01034 3.51596,-4.57851 3.51596,-7.70574 0,-3.12723 -1.17248,-5.69536 -3.51596,-7.70573 L 241.43601,142.77329 c -3.12457,-2.23374 -6.25027,-3.35249 -9.37489,-3.35249 z M 70.072338,197.63761 Z" opacity=".458" solid-color="#fff" fill="#fff"/><path d="m 240.24182,166.161 c -2.85564,0 -5.20219,0.77757 -7.03795,2.33214 -1.83578,1.55458 -2.75254,3.5414 -2.75254,5.95962 l 0,49.74621 -156.745707,0 0.05572,66.32826 156.689995,0 0,49.7462 c 0,2.24551 0.96836,4.18946 2.90612,5.83041 1.93776,1.64093 4.23269,2.46138 6.88436,2.46138 2.85564,0 5.20067,-0.77758 7.03644,-2.33216 l 97.90791,-82.91033 c 1.83577,-1.55458 2.75404,-3.5414 2.75404,-5.95964 0,-2.41821 -0.91827,-4.40355 -2.75404,-5.95812 l -97.60074,-82.65186 c -2.44769,-1.72732 -4.89593,-2.59211 -7.34361,-2.59211 z" color="#000" opacity=".888" fill="#f9f9f9"/><path d="M 252.11074,65.177213 A 191.26602,190.82343 0 0 0 70.60592,196.27522 l 149.49132,0 0,-47.49364 c 0,-3.12723 1.16954,-5.69768 3.513,-7.70805 2.34347,-2.01036 5.33938,-3.01632 8.98475,-3.01632 3.12461,0 6.2514,1.1198 9.37597,3.35353 l 124.59162,106.8852 c 2.34348,2.01036 3.51567,4.57816 3.51567,7.70539 0,3.12723 -1.17219,5.69506 -3.51567,7.70541 L 241.57975,370.92647 c -2.34347,2.01036 -5.33939,3.01632 -8.98476,3.01632 -3.385,0 -6.31416,-1.06154 -8.78783,-3.18359 -2.47364,-2.12204 -3.70992,-4.63691 -3.70992,-7.54078 l 0,-47.49361 -149.3902,0 A 191.26602,190.82343 0 0 0 252.11074,446.82279 191.26602,190.82343 0 0 0 443.37745,255.99868 191.26602,190.82343 0 0 0 252.11074,65.177213 Z" color="#000" fill="#6363e6"/><path d="M 252.11074,65.177213 A 191.26602,190.82343 0 0 0 70.60592,196.27522 l 149.49132,0 0,-47.49364 c 0,-3.12723 1.16954,-5.69768 3.513,-7.70805 2.34347,-2.01036 5.33938,-3.01632 8.98475,-3.01632 3.12461,0 6.2514,1.1198 9.37597,3.35353 l 124.59162,106.8852 c 2.34348,2.01036 3.51567,4.57816 3.51567,7.70539 0,3.12723 -1.17219,5.69506 -3.51567,7.70541 L 241.57975,370.92647 c -2.34347,2.01036 -5.33939,3.01632 -8.98476,3.01632 -3.385,0 -6.31416,-1.06154 -8.78783,-3.18359 -2.47364,-2.12204 -3.70992,-4.63691 -3.70992,-7.54078 l 0,-47.49361 -149.3902,0 A 191.26602,190.82343 0 0 0 252.11074,446.82279 191.26602,190.82343 0 0 0 443.37745,255.99868 191.26602,190.82343 0 0 0 252.11074,65.177213 Z" color="#000" fill="none" stroke="#000" stroke-width="12" stroke-linecap="round"/></svg>