<svg xmlns="http://www.w3.org/2000/svg" height="612" width="612"><path d="M 587.572,186.881 C 555.306,111.656 500.476,56.947 424.623,24.596 386.711,8.427 347.328,0.168 305.832,0.168 264.344,0.168 224.918,8.349 187.048,24.596 111.824,56.861 56.415,111.535 24.092,186.881 7.895,224.629 0,264.176 0,305.664 c 0,41.496 7.895,81.371 24.092,119.127 32.323,75.346 87.731,130.348 162.956,162.621 37.87,16.247 77.295,24.42 118.784,24.42 41.496,0 80.879,-8.259 118.791,-24.42 C 500.477,555.06 555.307,500.009 587.572,424.791 603.819,386.914 612,347.16 612,305.664 612,264.176 603.819,224.757 587.572,186.881 Z M 204.109,57.054 c -26.434,33.458 -45.836,75.953 -58.221,127.485 l -79.971,0 C 95.362,127.318 144.889,81.475 204.109,57.054 Z M 37.141,305.664 c 0,-29.11 4.683,-57.214 13.72,-84.319 l 87.667,0 c -4.348,28.439 -6.36,56.551 -6.36,84.319 0,27.44 2.013,55.217 6.36,83.656 l -88.338,0 C 41.489,362.215 37.141,334.111 37.141,305.664 Z m 28.776,120.462 79.972,0 c 12.385,52.531 31.788,95.697 58.221,128.827 C 143.882,529.854 94.356,484.012 65.917,426.126 Z m 221.177,145.553 c -21.751,-6.354 -42.16,-22.415 -60.562,-48.513 -18.403,-26.105 -32.458,-58.557 -42.16,-97.04 l 102.722,0 0,145.553 z m 0,-182.359 -111.089,0 c -4.354,-29.782 -6.696,-57.558 -6.696,-83.656 0,-28.104 2.341,-56.215 7.367,-84.319 l 110.417,0 0,167.975 10e-4,0 z m 0,-204.78 -102.722,0 c 10.372,-38.148 24.506,-70.214 42.831,-96.034 18.481,-26.048 38.141,-42.16 59.892,-48.185 l 0,144.219 z m 258.99,0 -79.973,0 C 453.733,133.007 434.324,90.512 407.89,57.055 467.118,81.475 516.638,127.318 546.084,184.54 Z M 324.906,40.321 c 21.751,6.025 41.41,22.137 59.892,48.185 18.331,25.82 32.458,57.886 42.83,96.034 l -102.722,0 0,-144.219 z m 0,181.024 110.417,0 c 5.025,28.104 7.367,56.215 7.367,84.319 0,26.099 -2.342,53.874 -6.696,83.656 l -111.088,0 0,-167.975 z m 0,350.334 0,-145.553 102.722,0 c -10.036,38.483 -24.277,70.806 -42.495,97.04 -18.26,26.298 -38.141,42.495 -60.227,48.513 z m 82.985,-16.726 c 26.434,-33.13 45.843,-76.296 58.221,-128.827 l 79.973,0 c -28.44,57.886 -77.968,103.728 -138.194,128.827 z M 561.81,389.32 l -88.338,0 c 4.354,-28.44 6.36,-56.216 6.36,-83.656 0,-27.768 -2.006,-55.879 -6.36,-84.319 l 87.667,0 c 9.037,27.104 13.72,55.208 13.72,84.319 -0.001,28.447 -4.347,56.551 -13.049,83.656 z" transform="translate(128.3 128.3) scale(.58072)"/></svg>